<svg xmlns="http://www.w3.org/2000/svg" xmlns:xlink="http://www.w3.org/1999/xlink" width="500" zoomAndPan="magnify" viewBox="0 0 375 374.999991" height="500" preserveAspectRatio="xMidYMid meet" version="1.0"><defs><clipPath id="687c77f392"><path d="M 72.535156 21.785156 L 302.785156 21.785156 L 302.785156 353.285156 L 72.535156 353.285156 Z M 72.535156 21.785156 " clip-rule="nonzero"/></clipPath></defs><g clip-path="url(#687c77f392)"><path fill="#1298ff" d="M 187.5 21.746094 C 124.042969 21.746094 72.617188 73.175781 72.617188 136.628906 C 72.617188 147.183594 74.066406 157.394531 76.738281 167.101562 C 79.046875 175.550781 82.289062 183.625 86.375 191.179688 C 87.359375 193.003906 88.402344 194.800781 89.480469 196.566406 L 176.09375 346.59375 C 176.277344 346.914062 176.449219 347.25 176.652344 347.5625 C 179.035156 351.003906 182.996094 353.253906 187.492188 353.253906 C 191.996094 353.253906 195.972656 350.972656 198.351562 347.519531 L 198.71875 346.882812 L 285.492188 196.59375 L 288.625 191.167969 C 292.703125 183.617188 295.9375 175.539062 298.261719 167.101562 C 300.921875 157.394531 302.375 147.183594 302.375 136.628906 C 302.375 73.175781 250.945312 21.746094 187.5 21.746094 Z M 187.492188 184.789062 C 160.882812 184.789062 139.316406 163.222656 139.316406 136.628906 C 139.316406 110.019531 160.878906 88.449219 187.492188 88.449219 C 214.097656 88.449219 235.652344 110.019531 235.652344 136.628906 C 235.652344 163.222656 214.097656 184.789062 187.492188 184.789062 Z M 187.492188 184.789062 " fill-opacity="1" fill-rule="nonzero"/></g></svg>