<svg xmlns="http://www.w3.org/2000/svg" xmlns:xlink="http://www.w3.org/1999/xlink" width="500" zoomAndPan="magnify" viewBox="0 0 375 374.999991" height="500" preserveAspectRatio="xMidYMid meet" version="1.0"><defs><g/><clipPath id="b0bb43a96b"><path d="M 92 0 L 258 0 L 258 134 L 92 134 Z M 92 0 " clip-rule="nonzero"/></clipPath><clipPath id="b91501e172"><path d="M 258.160156 73.976562 L 135.265625 135.089844 L 90.515625 45.101562 L 213.410156 -16.011719 Z M 258.160156 73.976562 " clip-rule="nonzero"/></clipPath><clipPath id="a9af80f997"><path d="M 8 29 L 164 29 L 164 82 L 8 82 Z M 8 29 " clip-rule="nonzero"/></clipPath><clipPath id="b5bb3862b1"><path d="M 166.160156 73.976562 L 43.265625 135.089844 L -1.484375 45.101562 L 121.410156 -16.011719 Z M 166.160156 73.976562 " clip-rule="nonzero"/></clipPath><clipPath id="487983eaf7"><path d="M 121.515625 -15.800781 L -1.378906 45.308594 L 43.367188 135.296875 L 166.261719 74.1875 Z M 121.515625 -15.800781 " clip-rule="nonzero"/></clipPath><clipPath id="1d45445783"><rect x="0" width="166" y="0" height="134"/></clipPath><clipPath id="435d04637f"><rect x="0" width="235" y="0" height="83"/></clipPath><clipPath id="39b3f78013"><rect x="0" width="54" y="0" height="53"/></clipPath><clipPath id="c213127c9a"><rect x="0" width="238" y="0" height="100"/></clipPath><clipPath id="d2957fe2d2"><rect x="0" width="185" y="0" height="83"/></clipPath><clipPath id="eedfcf42d9"><path d="M 105 239 L 271 239 L 271 375 L 105 375 Z M 105 239 " clip-rule="nonzero"/></clipPath><clipPath id="a71e69505b"><path d="M 104.316406 302.3125 L 225.429688 237.742188 L 272.710938 326.425781 L 151.597656 390.996094 Z M 104.316406 302.3125 " clip-rule="nonzero"/></clipPath><clipPath id="f231557eb2"><path d="M 1 52 L 157 52 L 157 104 L 1 104 Z M 1 52 " clip-rule="nonzero"/></clipPath><clipPath id="d31cf58038"><path d="M -0.683594 63.3125 L 120.429688 -1.257812 L 167.710938 87.425781 L 46.597656 151.996094 Z M -0.683594 63.3125 " clip-rule="nonzero"/></clipPath><clipPath id="3ea03926b1"><path d="M 46.488281 151.789062 L 167.601562 87.21875 L 120.320312 -1.464844 L -0.792969 63.105469 Z M 46.488281 151.789062 " clip-rule="nonzero"/></clipPath><clipPath id="5c04675436"><rect x="0" width="166" y="0" height="136"/></clipPath><clipPath id="a4ab8511ad"><rect x="0" width="239" y="0" height="133"/></clipPath></defs><g clip-path="url(#b0bb43a96b)"><g clip-path="url(#b91501e172)"><g transform="matrix(1, 0, 0, 1, 92, 0)"><g clip-path="url(#1d45445783)"><g clip-path="url(#a9af80f997)"><g clip-path="url(#b5bb3862b1)"><g clip-path="url(#487983eaf7)"><path fill="#1298ff" d="M 9.851562 55.210938 C 10.972656 52.234375 14.703125 46.417969 17.480469 42.503906 C 20.839844 37.769531 25.378906 31.980469 30.863281 29.792969 C 32.808594 29.015625 35.378906 30.820312 34.84375 33.019531 C 33.492188 38.542969 29.039062 43.734375 25.746094 48.386719 C 71.019531 31.617188 126.59375 36.949219 162.910156 70.148438 C 165.128906 72.175781 162.757812 75.664062 160.125 73.992188 C 121.179688 49.207031 71.597656 41.808594 29.160156 60.410156 C 30.527344 61.191406 31.898438 61.976562 33.269531 62.75 C 38.820312 65.886719 44.761719 68.554688 49.03125 73.394531 C 51.867188 76.605469 48.679688 81.957031 44.574219 81.390625 C 38.503906 80.554688 33.285156 77.148438 27.941406 74.339844 C 22.515625 71.492188 17.007812 68.769531 11.695312 65.722656 C 7.976562 63.597656 8.726562 58.191406 9.851562 55.210938 Z M 9.851562 55.210938 " fill-opacity="1" fill-rule="nonzero"/></g></g></g></g></g></g></g><g transform="matrix(1, 0, 0, 1, 65, 130)"><g clip-path="url(#435d04637f)"><g fill="#1298ff" fill-opacity="1"><g transform="translate(0.515466, 64.746453)"><g><path d="M 45.015625 -0.984375 C 45.015625 -0.796875 44.957031 -0.628906 44.84375 -0.484375 C 44.726562 -0.335938 44.53125 -0.210938 44.25 -0.109375 C 43.976562 -0.015625 43.609375 0.0507812 43.140625 0.09375 C 42.679688 0.144531 42.09375 0.171875 41.375 0.171875 C 40.632812 0.171875 40.03125 0.144531 39.5625 0.09375 C 39.101562 0.0507812 38.726562 -0.015625 38.4375 -0.109375 C 38.15625 -0.210938 37.960938 -0.335938 37.859375 -0.484375 C 37.753906 -0.628906 37.703125 -0.796875 37.703125 -0.984375 L 37.703125 -16.40625 C 37.703125 -17.28125 37.617188 -18.078125 37.453125 -18.796875 C 37.285156 -19.515625 37.03125 -20.128906 36.6875 -20.640625 C 36.351562 -21.160156 35.925781 -21.5625 35.40625 -21.84375 C 34.894531 -22.125 34.28125 -22.265625 33.5625 -22.265625 C 32.6875 -22.265625 31.800781 -21.921875 30.90625 -21.234375 C 30.019531 -20.554688 29.050781 -19.566406 28 -18.265625 L 28 -0.984375 C 28 -0.796875 27.941406 -0.628906 27.828125 -0.484375 C 27.710938 -0.335938 27.515625 -0.210938 27.234375 -0.109375 C 26.953125 -0.015625 26.578125 0.0507812 26.109375 0.09375 C 25.640625 0.144531 25.054688 0.171875 24.359375 0.171875 C 23.640625 0.171875 23.046875 0.144531 22.578125 0.09375 C 22.109375 0.0507812 21.734375 -0.015625 21.453125 -0.109375 C 21.171875 -0.210938 20.972656 -0.335938 20.859375 -0.484375 C 20.742188 -0.628906 20.6875 -0.796875 20.6875 -0.984375 L 20.6875 -16.40625 C 20.6875 -17.28125 20.601562 -18.078125 20.4375 -18.796875 C 20.269531 -19.515625 20.019531 -20.128906 19.6875 -20.640625 C 19.363281 -21.160156 18.9375 -21.5625 18.40625 -21.84375 C 17.882812 -22.125 17.273438 -22.265625 16.578125 -22.265625 C 15.679688 -22.265625 14.785156 -21.921875 13.890625 -21.234375 C 13.003906 -20.554688 12.046875 -19.566406 11.015625 -18.265625 L 11.015625 -0.984375 C 11.015625 -0.796875 10.953125 -0.628906 10.828125 -0.484375 C 10.710938 -0.335938 10.515625 -0.210938 10.234375 -0.109375 C 9.953125 -0.015625 9.578125 0.0507812 9.109375 0.09375 C 8.648438 0.144531 8.0625 0.171875 7.34375 0.171875 C 6.625 0.171875 6.03125 0.144531 5.5625 0.09375 C 5.09375 0.0507812 4.71875 -0.015625 4.4375 -0.109375 C 4.15625 -0.210938 3.957031 -0.335938 3.84375 -0.484375 C 3.726562 -0.628906 3.671875 -0.796875 3.671875 -0.984375 L 3.671875 -26.984375 C 3.671875 -27.171875 3.71875 -27.335938 3.8125 -27.484375 C 3.914062 -27.628906 4.09375 -27.75 4.34375 -27.84375 C 4.59375 -27.945312 4.914062 -28.019531 5.3125 -28.0625 C 5.71875 -28.113281 6.21875 -28.140625 6.8125 -28.140625 C 7.4375 -28.140625 7.953125 -28.113281 8.359375 -28.0625 C 8.765625 -28.019531 9.078125 -27.945312 9.296875 -27.84375 C 9.523438 -27.75 9.6875 -27.628906 9.78125 -27.484375 C 9.882812 -27.335938 9.9375 -27.171875 9.9375 -26.984375 L 9.9375 -23.984375 C 11.375 -25.535156 12.804688 -26.695312 14.234375 -27.46875 C 15.660156 -28.25 17.148438 -28.640625 18.703125 -28.640625 C 19.773438 -28.640625 20.738281 -28.523438 21.59375 -28.296875 C 22.445312 -28.078125 23.207031 -27.757812 23.875 -27.34375 C 24.539062 -26.925781 25.117188 -26.425781 25.609375 -25.84375 C 26.097656 -25.257812 26.503906 -24.609375 26.828125 -23.890625 C 27.609375 -24.722656 28.375 -25.441406 29.125 -26.046875 C 29.875 -26.648438 30.609375 -27.140625 31.328125 -27.515625 C 32.054688 -27.898438 32.785156 -28.179688 33.515625 -28.359375 C 34.242188 -28.546875 34.988281 -28.640625 35.75 -28.640625 C 37.476562 -28.640625 38.9375 -28.347656 40.125 -27.765625 C 41.3125 -27.179688 42.265625 -26.390625 42.984375 -25.390625 C 43.710938 -24.390625 44.234375 -23.21875 44.546875 -21.875 C 44.859375 -20.539062 45.015625 -19.125 45.015625 -17.625 Z M 45.015625 -0.984375 "/></g></g></g><g fill="#1298ff" fill-opacity="1"><g transform="translate(49.047342, 64.746453)"><g><path d="M 27.6875 -14.75 C 27.6875 -13.851562 27.484375 -13.191406 27.078125 -12.765625 C 26.679688 -12.335938 26.132812 -12.125 25.4375 -12.125 L 9.609375 -12.125 C 9.609375 -11.007812 9.738281 -10 10 -9.09375 C 10.269531 -8.195312 10.691406 -7.429688 11.265625 -6.796875 C 11.835938 -6.171875 12.570312 -5.691406 13.46875 -5.359375 C 14.375 -5.023438 15.457031 -4.859375 16.71875 -4.859375 C 18 -4.859375 19.125 -4.953125 20.09375 -5.140625 C 21.070312 -5.328125 21.914062 -5.53125 22.625 -5.75 C 23.332031 -5.976562 23.921875 -6.179688 24.390625 -6.359375 C 24.859375 -6.546875 25.238281 -6.640625 25.53125 -6.640625 C 25.695312 -6.640625 25.835938 -6.601562 25.953125 -6.53125 C 26.078125 -6.46875 26.175781 -6.347656 26.25 -6.171875 C 26.332031 -6.003906 26.382812 -5.757812 26.40625 -5.4375 C 26.4375 -5.113281 26.453125 -4.707031 26.453125 -4.21875 C 26.453125 -3.789062 26.441406 -3.425781 26.421875 -3.125 C 26.398438 -2.832031 26.367188 -2.578125 26.328125 -2.359375 C 26.296875 -2.148438 26.238281 -1.972656 26.15625 -1.828125 C 26.082031 -1.679688 25.984375 -1.535156 25.859375 -1.390625 C 25.734375 -1.253906 25.390625 -1.070312 24.828125 -0.84375 C 24.265625 -0.613281 23.546875 -0.382812 22.671875 -0.15625 C 21.796875 0.0625 20.796875 0.253906 19.671875 0.421875 C 18.546875 0.585938 17.335938 0.671875 16.046875 0.671875 C 13.742188 0.671875 11.722656 0.378906 9.984375 -0.203125 C 8.242188 -0.785156 6.789062 -1.664062 5.625 -2.84375 C 4.457031 -4.03125 3.585938 -5.523438 3.015625 -7.328125 C 2.441406 -9.140625 2.15625 -11.257812 2.15625 -13.6875 C 2.15625 -16 2.457031 -18.082031 3.0625 -19.9375 C 3.664062 -21.800781 4.539062 -23.378906 5.6875 -24.671875 C 6.832031 -25.960938 8.222656 -26.945312 9.859375 -27.625 C 11.503906 -28.300781 13.351562 -28.640625 15.40625 -28.640625 C 17.582031 -28.640625 19.441406 -28.316406 20.984375 -27.671875 C 22.535156 -27.035156 23.804688 -26.148438 24.796875 -25.015625 C 25.785156 -23.878906 26.515625 -22.53125 26.984375 -20.96875 C 27.453125 -19.414062 27.6875 -17.726562 27.6875 -15.90625 Z M 20.578125 -16.84375 C 20.628906 -18.894531 20.210938 -20.507812 19.328125 -21.6875 C 18.441406 -22.863281 17.078125 -23.453125 15.234375 -23.453125 C 14.304688 -23.453125 13.492188 -23.273438 12.796875 -22.921875 C 12.109375 -22.578125 11.535156 -22.109375 11.078125 -21.515625 C 10.628906 -20.921875 10.28125 -20.21875 10.03125 -19.40625 C 9.789062 -18.601562 9.648438 -17.75 9.609375 -16.84375 Z M 20.578125 -16.84375 "/></g></g></g><g fill="#1298ff" fill-opacity="1"><g transform="translate(79.081175, 64.746453)"><g><path d="M 45.015625 -0.984375 C 45.015625 -0.796875 44.957031 -0.628906 44.84375 -0.484375 C 44.726562 -0.335938 44.53125 -0.210938 44.25 -0.109375 C 43.976562 -0.015625 43.609375 0.0507812 43.140625 0.09375 C 42.679688 0.144531 42.09375 0.171875 41.375 0.171875 C 40.632812 0.171875 40.03125 0.144531 39.5625 0.09375 C 39.101562 0.0507812 38.726562 -0.015625 38.4375 -0.109375 C 38.15625 -0.210938 37.960938 -0.335938 37.859375 -0.484375 C 37.753906 -0.628906 37.703125 -0.796875 37.703125 -0.984375 L 37.703125 -16.40625 C 37.703125 -17.28125 37.617188 -18.078125 37.453125 -18.796875 C 37.285156 -19.515625 37.03125 -20.128906 36.6875 -20.640625 C 36.351562 -21.160156 35.925781 -21.5625 35.40625 -21.84375 C 34.894531 -22.125 34.28125 -22.265625 33.5625 -22.265625 C 32.6875 -22.265625 31.800781 -21.921875 30.90625 -21.234375 C 30.019531 -20.554688 29.050781 -19.566406 28 -18.265625 L 28 -0.984375 C 28 -0.796875 27.941406 -0.628906 27.828125 -0.484375 C 27.710938 -0.335938 27.515625 -0.210938 27.234375 -0.109375 C 26.953125 -0.015625 26.578125 0.0507812 26.109375 0.09375 C 25.640625 0.144531 25.054688 0.171875 24.359375 0.171875 C 23.640625 0.171875 23.046875 0.144531 22.578125 0.09375 C 22.109375 0.0507812 21.734375 -0.015625 21.453125 -0.109375 C 21.171875 -0.210938 20.972656 -0.335938 20.859375 -0.484375 C 20.742188 -0.628906 20.6875 -0.796875 20.6875 -0.984375 L 20.6875 -16.40625 C 20.6875 -17.28125 20.601562 -18.078125 20.4375 -18.796875 C 20.269531 -19.515625 20.019531 -20.128906 19.6875 -20.640625 C 19.363281 -21.160156 18.9375 -21.5625 18.40625 -21.84375 C 17.882812 -22.125 17.273438 -22.265625 16.578125 -22.265625 C 15.679688 -22.265625 14.785156 -21.921875 13.890625 -21.234375 C 13.003906 -20.554688 12.046875 -19.566406 11.015625 -18.265625 L 11.015625 -0.984375 C 11.015625 -0.796875 10.953125 -0.628906 10.828125 -0.484375 C 10.710938 -0.335938 10.515625 -0.210938 10.234375 -0.109375 C 9.953125 -0.015625 9.578125 0.0507812 9.109375 0.09375 C 8.648438 0.144531 8.0625 0.171875 7.34375 0.171875 C 6.625 0.171875 6.03125 0.144531 5.5625 0.09375 C 5.09375 0.0507812 4.71875 -0.015625 4.4375 -0.109375 C 4.15625 -0.210938 3.957031 -0.335938 3.84375 -0.484375 C 3.726562 -0.628906 3.671875 -0.796875 3.671875 -0.984375 L 3.671875 -26.984375 C 3.671875 -27.171875 3.71875 -27.335938 3.8125 -27.484375 C 3.914062 -27.628906 4.09375 -27.75 4.34375 -27.84375 C 4.59375 -27.945312 4.914062 -28.019531 5.3125 -28.0625 C 5.71875 -28.113281 6.21875 -28.140625 6.8125 -28.140625 C 7.4375 -28.140625 7.953125 -28.113281 8.359375 -28.0625 C 8.765625 -28.019531 9.078125 -27.945312 9.296875 -27.84375 C 9.523438 -27.75 9.6875 -27.628906 9.78125 -27.484375 C 9.882812 -27.335938 9.9375 -27.171875 9.9375 -26.984375 L 9.9375 -23.984375 C 11.375 -25.535156 12.804688 -26.695312 14.234375 -27.46875 C 15.660156 -28.25 17.148438 -28.640625 18.703125 -28.640625 C 19.773438 -28.640625 20.738281 -28.523438 21.59375 -28.296875 C 22.445312 -28.078125 23.207031 -27.757812 23.875 -27.34375 C 24.539062 -26.925781 25.117188 -26.425781 25.609375 -25.84375 C 26.097656 -25.257812 26.503906 -24.609375 26.828125 -23.890625 C 27.609375 -24.722656 28.375 -25.441406 29.125 -26.046875 C 29.875 -26.648438 30.609375 -27.140625 31.328125 -27.515625 C 32.054688 -27.898438 32.785156 -28.179688 33.515625 -28.359375 C 34.242188 -28.546875 34.988281 -28.640625 35.75 -28.640625 C 37.476562 -28.640625 38.9375 -28.347656 40.125 -27.765625 C 41.3125 -27.179688 42.265625 -26.390625 42.984375 -25.390625 C 43.710938 -24.390625 44.234375 -23.21875 44.546875 -21.875 C 44.859375 -20.539062 45.015625 -19.125 45.015625 -17.625 Z M 45.015625 -0.984375 "/></g></g></g><g fill="#1298ff" fill-opacity="1"><g transform="translate(127.613051, 64.746453)"><g><path d="M 29.84375 -14.328125 C 29.84375 -12.023438 29.585938 -9.945312 29.078125 -8.09375 C 28.578125 -6.25 27.847656 -4.675781 26.890625 -3.375 C 25.941406 -2.070312 24.769531 -1.070312 23.375 -0.375 C 21.988281 0.320312 20.410156 0.671875 18.640625 0.671875 C 17.773438 0.671875 16.960938 0.585938 16.203125 0.421875 C 15.441406 0.253906 14.71875 -0.0078125 14.03125 -0.375 C 13.34375 -0.75 12.660156 -1.21875 11.984375 -1.78125 C 11.316406 -2.34375 10.632812 -3.019531 9.9375 -3.8125 L 9.9375 -0.984375 C 9.9375 -0.773438 9.878906 -0.597656 9.765625 -0.453125 C 9.660156 -0.304688 9.488281 -0.179688 9.25 -0.078125 C 9.007812 0.015625 8.679688 0.078125 8.265625 0.109375 C 7.859375 0.148438 7.363281 0.171875 6.78125 0.171875 C 6.1875 0.171875 5.6875 0.148438 5.28125 0.109375 C 4.882812 0.078125 4.566406 0.015625 4.328125 -0.078125 C 4.085938 -0.179688 3.914062 -0.304688 3.8125 -0.453125 C 3.71875 -0.597656 3.671875 -0.773438 3.671875 -0.984375 L 3.671875 -39.3125 C 3.671875 -39.5 3.726562 -39.671875 3.84375 -39.828125 C 3.957031 -39.984375 4.15625 -40.113281 4.4375 -40.21875 C 4.71875 -40.332031 5.09375 -40.414062 5.5625 -40.46875 C 6.03125 -40.53125 6.625 -40.5625 7.34375 -40.5625 C 8.0625 -40.5625 8.648438 -40.53125 9.109375 -40.46875 C 9.578125 -40.414062 9.953125 -40.332031 10.234375 -40.21875 C 10.515625 -40.113281 10.710938 -39.984375 10.828125 -39.828125 C 10.953125 -39.671875 11.015625 -39.5 11.015625 -39.3125 L 11.015625 -24.9375 C 11.671875 -25.601562 12.328125 -26.164062 12.984375 -26.625 C 13.648438 -27.09375 14.3125 -27.476562 14.96875 -27.78125 C 15.632812 -28.082031 16.316406 -28.300781 17.015625 -28.4375 C 17.710938 -28.570312 18.453125 -28.640625 19.234375 -28.640625 C 21.148438 -28.640625 22.78125 -28.253906 24.125 -27.484375 C 25.46875 -26.722656 26.5625 -25.691406 27.40625 -24.390625 C 28.25 -23.085938 28.863281 -21.566406 29.25 -19.828125 C 29.644531 -18.085938 29.84375 -16.253906 29.84375 -14.328125 Z M 22.234375 -13.8125 C 22.234375 -14.914062 22.148438 -15.984375 21.984375 -17.015625 C 21.816406 -18.046875 21.53125 -18.957031 21.125 -19.75 C 20.71875 -20.550781 20.1875 -21.1875 19.53125 -21.65625 C 18.882812 -22.132812 18.066406 -22.375 17.078125 -22.375 C 16.585938 -22.375 16.109375 -22.304688 15.640625 -22.171875 C 15.179688 -22.035156 14.703125 -21.800781 14.203125 -21.46875 C 13.710938 -21.144531 13.203125 -20.71875 12.671875 -20.1875 C 12.148438 -19.664062 11.597656 -19.015625 11.015625 -18.234375 L 11.015625 -9.609375 C 12.046875 -8.296875 13.03125 -7.289062 13.96875 -6.59375 C 14.914062 -5.90625 15.898438 -5.5625 16.921875 -5.5625 C 17.878906 -5.5625 18.6875 -5.800781 19.34375 -6.28125 C 20.007812 -6.769531 20.5625 -7.40625 21 -8.1875 C 21.4375 -8.96875 21.75 -9.851562 21.9375 -10.84375 C 22.132812 -11.832031 22.234375 -12.820312 22.234375 -13.8125 Z M 22.234375 -13.8125 "/></g></g></g><g fill="#1298ff" fill-opacity="1"><g transform="translate(159.627775, 64.746453)"><g><path d="M 27.6875 -14.75 C 27.6875 -13.851562 27.484375 -13.191406 27.078125 -12.765625 C 26.679688 -12.335938 26.132812 -12.125 25.4375 -12.125 L 9.609375 -12.125 C 9.609375 -11.007812 9.738281 -10 10 -9.09375 C 10.269531 -8.195312 10.691406 -7.429688 11.265625 -6.796875 C 11.835938 -6.171875 12.570312 -5.691406 13.46875 -5.359375 C 14.375 -5.023438 15.457031 -4.859375 16.71875 -4.859375 C 18 -4.859375 19.125 -4.953125 20.09375 -5.140625 C 21.070312 -5.328125 21.914062 -5.53125 22.625 -5.75 C 23.332031 -5.976562 23.921875 -6.179688 24.390625 -6.359375 C 24.859375 -6.546875 25.238281 -6.640625 25.53125 -6.640625 C 25.695312 -6.640625 25.835938 -6.601562 25.953125 -6.53125 C 26.078125 -6.46875 26.175781 -6.347656 26.25 -6.171875 C 26.332031 -6.003906 26.382812 -5.757812 26.40625 -5.4375 C 26.4375 -5.113281 26.453125 -4.707031 26.453125 -4.21875 C 26.453125 -3.789062 26.441406 -3.425781 26.421875 -3.125 C 26.398438 -2.832031 26.367188 -2.578125 26.328125 -2.359375 C 26.296875 -2.148438 26.238281 -1.972656 26.15625 -1.828125 C 26.082031 -1.679688 25.984375 -1.535156 25.859375 -1.390625 C 25.734375 -1.253906 25.390625 -1.070312 24.828125 -0.84375 C 24.265625 -0.613281 23.546875 -0.382812 22.671875 -0.15625 C 21.796875 0.0625 20.796875 0.253906 19.671875 0.421875 C 18.546875 0.585938 17.335938 0.671875 16.046875 0.671875 C 13.742188 0.671875 11.722656 0.378906 9.984375 -0.203125 C 8.242188 -0.785156 6.789062 -1.664062 5.625 -2.84375 C 4.457031 -4.03125 3.585938 -5.523438 3.015625 -7.328125 C 2.441406 -9.140625 2.15625 -11.257812 2.15625 -13.6875 C 2.15625 -16 2.457031 -18.082031 3.0625 -19.9375 C 3.664062 -21.800781 4.539062 -23.378906 5.6875 -24.671875 C 6.832031 -25.960938 8.222656 -26.945312 9.859375 -27.625 C 11.503906 -28.300781 13.351562 -28.640625 15.40625 -28.640625 C 17.582031 -28.640625 19.441406 -28.316406 20.984375 -27.671875 C 22.535156 -27.035156 23.804688 -26.148438 24.796875 -25.015625 C 25.785156 -23.878906 26.515625 -22.53125 26.984375 -20.96875 C 27.453125 -19.414062 27.6875 -17.726562 27.6875 -15.90625 Z M 20.578125 -16.84375 C 20.628906 -18.894531 20.210938 -20.507812 19.328125 -21.6875 C 18.441406 -22.863281 17.078125 -23.453125 15.234375 -23.453125 C 14.304688 -23.453125 13.492188 -23.273438 12.796875 -22.921875 C 12.109375 -22.578125 11.535156 -22.109375 11.078125 -21.515625 C 10.628906 -20.921875 10.28125 -20.21875 10.03125 -19.40625 C 9.789062 -18.601562 9.648438 -17.75 9.609375 -16.84375 Z M 20.578125 -16.84375 "/></g></g></g><g fill="#1298ff" fill-opacity="1"><g transform="translate(189.661608, 64.746453)"><g><path d="M 20.359375 -24.5625 C 20.359375 -23.863281 20.335938 -23.289062 20.296875 -22.84375 C 20.265625 -22.394531 20.207031 -22.046875 20.125 -21.796875 C 20.050781 -21.546875 19.953125 -21.367188 19.828125 -21.265625 C 19.703125 -21.171875 19.539062 -21.125 19.34375 -21.125 C 19.1875 -21.125 19.007812 -21.15625 18.8125 -21.21875 C 18.625 -21.289062 18.40625 -21.363281 18.15625 -21.4375 C 17.914062 -21.519531 17.648438 -21.59375 17.359375 -21.65625 C 17.066406 -21.726562 16.75 -21.765625 16.40625 -21.765625 C 16 -21.765625 15.585938 -21.679688 15.171875 -21.515625 C 14.765625 -21.347656 14.34375 -21.085938 13.90625 -20.734375 C 13.46875 -20.390625 13.007812 -19.925781 12.53125 -19.34375 C 12.0625 -18.757812 11.554688 -18.039062 11.015625 -17.1875 L 11.015625 -0.984375 C 11.015625 -0.796875 10.953125 -0.628906 10.828125 -0.484375 C 10.710938 -0.335938 10.515625 -0.210938 10.234375 -0.109375 C 9.953125 -0.015625 9.578125 0.0507812 9.109375 0.09375 C 8.648438 0.144531 8.0625 0.171875 7.34375 0.171875 C 6.625 0.171875 6.03125 0.144531 5.5625 0.09375 C 5.09375 0.0507812 4.71875 -0.015625 4.4375 -0.109375 C 4.15625 -0.210938 3.957031 -0.335938 3.84375 -0.484375 C 3.726562 -0.628906 3.671875 -0.796875 3.671875 -0.984375 L 3.671875 -26.984375 C 3.671875 -27.171875 3.71875 -27.335938 3.8125 -27.484375 C 3.914062 -27.628906 4.09375 -27.75 4.34375 -27.84375 C 4.59375 -27.945312 4.914062 -28.019531 5.3125 -28.0625 C 5.71875 -28.113281 6.21875 -28.140625 6.8125 -28.140625 C 7.4375 -28.140625 7.953125 -28.113281 8.359375 -28.0625 C 8.765625 -28.019531 9.078125 -27.945312 9.296875 -27.84375 C 9.523438 -27.75 9.6875 -27.628906 9.78125 -27.484375 C 9.882812 -27.335938 9.9375 -27.171875 9.9375 -26.984375 L 9.9375 -23.75 C 10.613281 -24.71875 11.253906 -25.515625 11.859375 -26.140625 C 12.460938 -26.773438 13.035156 -27.273438 13.578125 -27.640625 C 14.117188 -28.015625 14.660156 -28.273438 15.203125 -28.421875 C 15.753906 -28.566406 16.300781 -28.640625 16.84375 -28.640625 C 17.09375 -28.640625 17.363281 -28.625 17.65625 -28.59375 C 17.945312 -28.5625 18.25 -28.507812 18.5625 -28.4375 C 18.875 -28.375 19.144531 -28.300781 19.375 -28.21875 C 19.601562 -28.132812 19.769531 -28.039062 19.875 -27.9375 C 19.988281 -27.84375 20.066406 -27.738281 20.109375 -27.625 C 20.160156 -27.507812 20.207031 -27.347656 20.25 -27.140625 C 20.289062 -26.929688 20.316406 -26.625 20.328125 -26.21875 C 20.347656 -25.8125 20.359375 -25.257812 20.359375 -24.5625 Z M 20.359375 -24.5625 "/></g></g></g><g fill="#1298ff" fill-opacity="1"><g transform="translate(210.868814, 64.746453)"><g><path d="M 21.96875 -8.328125 C 21.96875 -6.859375 21.691406 -5.554688 21.140625 -4.421875 C 20.585938 -3.296875 19.804688 -2.351562 18.796875 -1.59375 C 17.785156 -0.84375 16.585938 -0.28125 15.203125 0.09375 C 13.828125 0.476562 12.332031 0.671875 10.71875 0.671875 C 9.75 0.671875 8.820312 0.597656 7.9375 0.453125 C 7.050781 0.304688 6.257812 0.125 5.5625 -0.09375 C 4.863281 -0.320312 4.28125 -0.550781 3.8125 -0.78125 C 3.351562 -1.019531 3.015625 -1.238281 2.796875 -1.4375 C 2.585938 -1.644531 2.421875 -1.96875 2.296875 -2.40625 C 2.179688 -2.84375 2.125 -3.488281 2.125 -4.34375 C 2.125 -4.90625 2.144531 -5.351562 2.1875 -5.6875 C 2.226562 -6.03125 2.285156 -6.300781 2.359375 -6.5 C 2.441406 -6.707031 2.539062 -6.84375 2.65625 -6.90625 C 2.769531 -6.976562 2.914062 -7.015625 3.09375 -7.015625 C 3.300781 -7.015625 3.613281 -6.894531 4.03125 -6.65625 C 4.445312 -6.414062 4.96875 -6.148438 5.59375 -5.859375 C 6.21875 -5.566406 6.941406 -5.289062 7.765625 -5.03125 C 8.585938 -4.78125 9.523438 -4.65625 10.578125 -4.65625 C 11.234375 -4.65625 11.816406 -4.722656 12.328125 -4.859375 C 12.847656 -4.992188 13.296875 -5.1875 13.671875 -5.4375 C 14.054688 -5.695312 14.34375 -6.019531 14.53125 -6.40625 C 14.726562 -6.800781 14.828125 -7.25 14.828125 -7.75 C 14.828125 -8.332031 14.644531 -8.832031 14.28125 -9.25 C 13.925781 -9.664062 13.453125 -10.03125 12.859375 -10.34375 C 12.265625 -10.65625 11.59375 -10.945312 10.84375 -11.21875 C 10.101562 -11.488281 9.335938 -11.785156 8.546875 -12.109375 C 7.765625 -12.441406 7 -12.820312 6.25 -13.25 C 5.5 -13.675781 4.828125 -14.203125 4.234375 -14.828125 C 3.640625 -15.453125 3.160156 -16.203125 2.796875 -17.078125 C 2.441406 -17.953125 2.265625 -19 2.265625 -20.21875 C 2.265625 -21.457031 2.507812 -22.597656 3 -23.640625 C 3.488281 -24.679688 4.1875 -25.570312 5.09375 -26.3125 C 6.007812 -27.050781 7.125 -27.625 8.4375 -28.03125 C 9.75 -28.4375 11.21875 -28.640625 12.84375 -28.640625 C 13.664062 -28.640625 14.457031 -28.582031 15.21875 -28.46875 C 15.988281 -28.351562 16.679688 -28.207031 17.296875 -28.03125 C 17.921875 -27.851562 18.445312 -27.660156 18.875 -27.453125 C 19.300781 -27.253906 19.609375 -27.082031 19.796875 -26.9375 C 19.984375 -26.789062 20.113281 -26.644531 20.1875 -26.5 C 20.269531 -26.351562 20.328125 -26.175781 20.359375 -25.96875 C 20.398438 -25.769531 20.4375 -25.519531 20.46875 -25.21875 C 20.5 -24.914062 20.515625 -24.539062 20.515625 -24.09375 C 20.515625 -23.570312 20.5 -23.144531 20.46875 -22.8125 C 20.4375 -22.476562 20.382812 -22.210938 20.3125 -22.015625 C 20.25 -21.828125 20.160156 -21.695312 20.046875 -21.625 C 19.929688 -21.5625 19.796875 -21.53125 19.640625 -21.53125 C 19.460938 -21.53125 19.1875 -21.628906 18.8125 -21.828125 C 18.445312 -22.035156 17.988281 -22.253906 17.4375 -22.484375 C 16.882812 -22.722656 16.242188 -22.941406 15.515625 -23.140625 C 14.785156 -23.347656 13.957031 -23.453125 13.03125 -23.453125 C 12.363281 -23.453125 11.785156 -23.382812 11.296875 -23.25 C 10.816406 -23.113281 10.421875 -22.921875 10.109375 -22.671875 C 9.796875 -22.421875 9.5625 -22.125 9.40625 -21.78125 C 9.25 -21.4375 9.171875 -21.070312 9.171875 -20.6875 C 9.171875 -20.082031 9.351562 -19.578125 9.71875 -19.171875 C 10.09375 -18.765625 10.582031 -18.40625 11.1875 -18.09375 C 11.789062 -17.78125 12.472656 -17.488281 13.234375 -17.21875 C 14.003906 -16.945312 14.78125 -16.648438 15.5625 -16.328125 C 16.351562 -16.003906 17.132812 -15.628906 17.90625 -15.203125 C 18.675781 -14.773438 19.359375 -14.25 19.953125 -13.625 C 20.554688 -13.007812 21.039062 -12.269531 21.40625 -11.40625 C 21.78125 -10.539062 21.96875 -9.515625 21.96875 -8.328125 Z M 21.96875 -8.328125 "/></g></g></g></g></g><g transform="matrix(1, 0, 0, 1, 65, 193)"><g clip-path="url(#39b3f78013)"><g fill="#000000" fill-opacity="1"><g transform="translate(2.741589, 40.625757)"><g><path d="M 11.953125 -22.78125 C 11.953125 -22.4375 11.9375 -22.160156 11.90625 -21.953125 C 11.882812 -21.742188 11.847656 -21.582031 11.796875 -21.46875 C 11.753906 -21.351562 11.703125 -21.273438 11.640625 -21.234375 C 11.578125 -21.191406 11.515625 -21.171875 11.453125 -21.171875 C 11.367188 -21.171875 11.273438 -21.191406 11.171875 -21.234375 C 11.066406 -21.273438 10.9375 -21.316406 10.78125 -21.359375 C 10.632812 -21.410156 10.457031 -21.457031 10.25 -21.5 C 10.050781 -21.539062 9.8125 -21.5625 9.53125 -21.5625 C 9.207031 -21.5625 8.925781 -21.507812 8.6875 -21.40625 C 8.457031 -21.300781 8.265625 -21.140625 8.109375 -20.921875 C 7.960938 -20.703125 7.851562 -20.414062 7.78125 -20.0625 C 7.707031 -19.707031 7.671875 -19.269531 7.671875 -18.75 L 7.671875 -17.28125 L 10.59375 -17.28125 C 10.707031 -17.28125 10.804688 -17.25 10.890625 -17.1875 C 10.984375 -17.125 11.0625 -17.023438 11.125 -16.890625 C 11.1875 -16.753906 11.226562 -16.566406 11.25 -16.328125 C 11.28125 -16.085938 11.296875 -15.789062 11.296875 -15.4375 C 11.296875 -14.78125 11.234375 -14.3125 11.109375 -14.03125 C 10.992188 -13.75 10.820312 -13.609375 10.59375 -13.609375 L 7.671875 -13.609375 L 7.671875 -0.609375 C 7.671875 -0.492188 7.632812 -0.390625 7.5625 -0.296875 C 7.488281 -0.203125 7.367188 -0.125 7.203125 -0.0625 C 7.035156 -0.0078125 6.800781 0.03125 6.5 0.0625 C 6.195312 0.09375 5.832031 0.109375 5.40625 0.109375 C 4.96875 0.109375 4.601562 0.09375 4.3125 0.0625 C 4.019531 0.03125 3.785156 -0.0078125 3.609375 -0.0625 C 3.429688 -0.125 3.3125 -0.203125 3.25 -0.296875 C 3.1875 -0.390625 3.15625 -0.492188 3.15625 -0.609375 L 3.15625 -13.609375 L 1.140625 -13.609375 C 0.910156 -13.609375 0.738281 -13.75 0.625 -14.03125 C 0.507812 -14.3125 0.453125 -14.78125 0.453125 -15.4375 C 0.453125 -15.789062 0.46875 -16.085938 0.5 -16.328125 C 0.53125 -16.566406 0.570312 -16.753906 0.625 -16.890625 C 0.675781 -17.023438 0.742188 -17.125 0.828125 -17.1875 C 0.921875 -17.25 1.03125 -17.28125 1.15625 -17.28125 L 3.15625 -17.28125 L 3.15625 -18.625 C 3.15625 -19.71875 3.257812 -20.675781 3.46875 -21.5 C 3.6875 -22.320312 4.023438 -23.003906 4.484375 -23.546875 C 4.953125 -24.097656 5.539062 -24.507812 6.25 -24.78125 C 6.96875 -25.0625 7.8125 -25.203125 8.78125 -25.203125 C 9.25 -25.203125 9.691406 -25.160156 10.109375 -25.078125 C 10.535156 -25.003906 10.867188 -24.921875 11.109375 -24.828125 C 11.347656 -24.734375 11.507812 -24.644531 11.59375 -24.5625 C 11.675781 -24.488281 11.742188 -24.378906 11.796875 -24.234375 C 11.847656 -24.085938 11.882812 -23.894531 11.90625 -23.65625 C 11.9375 -23.425781 11.953125 -23.132812 11.953125 -22.78125 Z M 11.953125 -22.78125 "/></g></g><g transform="translate(14.403718, 40.625757)"><g><path d="M 18.5 -8.796875 C 18.5 -7.429688 18.316406 -6.179688 17.953125 -5.046875 C 17.597656 -3.921875 17.050781 -2.953125 16.3125 -2.140625 C 15.582031 -1.328125 14.664062 -0.695312 13.5625 -0.25 C 12.46875 0.1875 11.179688 0.40625 9.703125 0.40625 C 8.273438 0.40625 7.03125 0.207031 5.96875 -0.1875 C 4.914062 -0.582031 4.039062 -1.15625 3.34375 -1.90625 C 2.644531 -2.664062 2.128906 -3.597656 1.796875 -4.703125 C 1.460938 -5.804688 1.296875 -7.066406 1.296875 -8.484375 C 1.296875 -9.847656 1.476562 -11.097656 1.84375 -12.234375 C 2.207031 -13.367188 2.753906 -14.335938 3.484375 -15.140625 C 4.222656 -15.953125 5.140625 -16.578125 6.234375 -17.015625 C 7.335938 -17.460938 8.625 -17.6875 10.09375 -17.6875 C 11.53125 -17.6875 12.773438 -17.488281 13.828125 -17.09375 C 14.890625 -16.707031 15.765625 -16.132812 16.453125 -15.375 C 17.148438 -14.625 17.664062 -13.695312 18 -12.59375 C 18.332031 -11.488281 18.5 -10.222656 18.5 -8.796875 Z M 13.84375 -8.625 C 13.84375 -9.414062 13.78125 -10.144531 13.65625 -10.8125 C 13.53125 -11.476562 13.316406 -12.054688 13.015625 -12.546875 C 12.710938 -13.035156 12.3125 -13.414062 11.8125 -13.6875 C 11.3125 -13.96875 10.6875 -14.109375 9.9375 -14.109375 C 9.257812 -14.109375 8.671875 -13.984375 8.171875 -13.734375 C 7.671875 -13.492188 7.253906 -13.132812 6.921875 -12.65625 C 6.597656 -12.1875 6.351562 -11.617188 6.1875 -10.953125 C 6.03125 -10.285156 5.953125 -9.523438 5.953125 -8.671875 C 5.953125 -7.878906 6.019531 -7.148438 6.15625 -6.484375 C 6.289062 -5.816406 6.503906 -5.238281 6.796875 -4.75 C 7.085938 -4.257812 7.484375 -3.878906 7.984375 -3.609375 C 8.492188 -3.335938 9.117188 -3.203125 9.859375 -3.203125 C 10.546875 -3.203125 11.140625 -3.320312 11.640625 -3.5625 C 12.148438 -3.8125 12.566406 -4.171875 12.890625 -4.640625 C 13.210938 -5.109375 13.453125 -5.675781 13.609375 -6.34375 C 13.765625 -7.007812 13.84375 -7.769531 13.84375 -8.625 Z M 13.84375 -8.625 "/></g></g><g transform="translate(34.218538, 40.625757)"><g><path d="M 12.578125 -15.171875 C 12.578125 -14.742188 12.566406 -14.390625 12.546875 -14.109375 C 12.523438 -13.835938 12.488281 -13.625 12.4375 -13.46875 C 12.382812 -13.3125 12.316406 -13.203125 12.234375 -13.140625 C 12.160156 -13.078125 12.066406 -13.046875 11.953125 -13.046875 C 11.859375 -13.046875 11.75 -13.066406 11.625 -13.109375 C 11.507812 -13.148438 11.375 -13.191406 11.21875 -13.234375 C 11.070312 -13.285156 10.90625 -13.332031 10.71875 -13.375 C 10.539062 -13.414062 10.34375 -13.4375 10.125 -13.4375 C 9.875 -13.4375 9.625 -13.382812 9.375 -13.28125 C 9.125 -13.1875 8.863281 -13.03125 8.59375 -12.8125 C 8.320312 -12.59375 8.039062 -12.300781 7.75 -11.9375 C 7.457031 -11.582031 7.140625 -11.144531 6.796875 -10.625 L 6.796875 -0.609375 C 6.796875 -0.492188 6.757812 -0.390625 6.6875 -0.296875 C 6.625 -0.203125 6.503906 -0.125 6.328125 -0.0625 C 6.148438 -0.0078125 5.914062 0.03125 5.625 0.0625 C 5.34375 0.09375 4.976562 0.109375 4.53125 0.109375 C 4.09375 0.109375 3.726562 0.09375 3.4375 0.0625 C 3.144531 0.03125 2.910156 -0.0078125 2.734375 -0.0625 C 2.566406 -0.125 2.445312 -0.203125 2.375 -0.296875 C 2.300781 -0.390625 2.265625 -0.492188 2.265625 -0.609375 L 2.265625 -16.671875 C 2.265625 -16.785156 2.296875 -16.882812 2.359375 -16.96875 C 2.421875 -17.0625 2.53125 -17.140625 2.6875 -17.203125 C 2.84375 -17.265625 3.039062 -17.3125 3.28125 -17.34375 C 3.53125 -17.375 3.84375 -17.390625 4.21875 -17.390625 C 4.59375 -17.390625 4.90625 -17.375 5.15625 -17.34375 C 5.414062 -17.3125 5.613281 -17.265625 5.75 -17.203125 C 5.882812 -17.140625 5.984375 -17.0625 6.046875 -16.96875 C 6.109375 -16.882812 6.140625 -16.785156 6.140625 -16.671875 L 6.140625 -14.671875 C 6.554688 -15.265625 6.953125 -15.753906 7.328125 -16.140625 C 7.703125 -16.535156 8.054688 -16.847656 8.390625 -17.078125 C 8.722656 -17.304688 9.054688 -17.460938 9.390625 -17.546875 C 9.734375 -17.640625 10.070312 -17.6875 10.40625 -17.6875 C 10.5625 -17.6875 10.726562 -17.675781 10.90625 -17.65625 C 11.082031 -17.644531 11.265625 -17.617188 11.453125 -17.578125 C 11.648438 -17.535156 11.820312 -17.484375 11.96875 -17.421875 C 12.113281 -17.367188 12.21875 -17.3125 12.28125 -17.25 C 12.34375 -17.195312 12.390625 -17.132812 12.421875 -17.0625 C 12.453125 -16.988281 12.476562 -16.890625 12.5 -16.765625 C 12.53125 -16.640625 12.550781 -16.445312 12.5625 -16.1875 C 12.570312 -15.9375 12.578125 -15.597656 12.578125 -15.171875 Z M 12.578125 -15.171875 "/></g></g></g></g></g><g transform="matrix(1, 0, 0, 1, 65, 215)"><g clip-path="url(#c213127c9a)"><g fill="#000000" fill-opacity="1"><g transform="translate(0.870801, 76.736792)"><g><path d="M 31.203125 -1.09375 C 31.203125 -0.757812 31.082031 -0.5 30.84375 -0.3125 C 30.601562 -0.125 30.234375 0.0078125 29.734375 0.09375 C 29.234375 0.175781 28.488281 0.21875 27.5 0.21875 C 26.445312 0.21875 25.675781 0.175781 25.1875 0.09375 C 24.707031 0.0078125 24.367188 -0.125 24.171875 -0.3125 C 23.972656 -0.5 23.875 -0.757812 23.875 -1.09375 L 23.875 -3.59375 C 22.582031 -2.207031 21.109375 -1.125 19.453125 -0.34375 C 17.796875 0.425781 15.957031 0.8125 13.9375 0.8125 C 12.269531 0.8125 10.738281 0.59375 9.34375 0.15625 C 7.945312 -0.28125 6.738281 -0.925781 5.71875 -1.78125 C 4.695312 -2.632812 3.90625 -3.691406 3.34375 -4.953125 C 2.78125 -6.222656 2.5 -7.707031 2.5 -9.40625 C 2.5 -11.226562 2.851562 -12.816406 3.5625 -14.171875 C 4.28125 -15.523438 5.347656 -16.640625 6.765625 -17.515625 C 8.191406 -18.398438 9.960938 -19.050781 12.078125 -19.46875 C 14.191406 -19.894531 16.644531 -20.109375 19.4375 -20.109375 L 22.5 -20.109375 L 22.5 -22 C 22.5 -22.988281 22.398438 -23.851562 22.203125 -24.59375 C 22.003906 -25.332031 21.675781 -25.945312 21.21875 -26.4375 C 20.757812 -26.9375 20.144531 -27.300781 19.375 -27.53125 C 18.613281 -27.769531 17.671875 -27.890625 16.546875 -27.890625 C 15.066406 -27.890625 13.742188 -27.722656 12.578125 -27.390625 C 11.421875 -27.066406 10.394531 -26.703125 9.5 -26.296875 C 8.613281 -25.898438 7.867188 -25.535156 7.265625 -25.203125 C 6.671875 -24.878906 6.1875 -24.71875 5.8125 -24.71875 C 5.550781 -24.71875 5.320312 -24.796875 5.125 -24.953125 C 4.925781 -25.117188 4.757812 -25.351562 4.625 -25.65625 C 4.5 -25.96875 4.398438 -26.347656 4.328125 -26.796875 C 4.253906 -27.242188 4.21875 -27.734375 4.21875 -28.265625 C 4.21875 -28.992188 4.273438 -29.566406 4.390625 -29.984375 C 4.515625 -30.410156 4.738281 -30.796875 5.0625 -31.140625 C 5.394531 -31.484375 5.972656 -31.859375 6.796875 -32.265625 C 7.617188 -32.679688 8.582031 -33.0625 9.6875 -33.40625 C 10.789062 -33.757812 11.992188 -34.046875 13.296875 -34.265625 C 14.597656 -34.492188 15.941406 -34.609375 17.328125 -34.609375 C 19.785156 -34.609375 21.890625 -34.367188 23.640625 -33.890625 C 25.390625 -33.410156 26.828125 -32.671875 27.953125 -31.671875 C 29.078125 -30.671875 29.898438 -29.382812 30.421875 -27.8125 C 30.941406 -26.238281 31.203125 -24.375 31.203125 -22.21875 Z M 22.5 -14.546875 L 19.125 -14.546875 C 17.6875 -14.546875 16.460938 -14.4375 15.453125 -14.21875 C 14.441406 -14.007812 13.617188 -13.691406 12.984375 -13.265625 C 12.359375 -12.847656 11.894531 -12.335938 11.59375 -11.734375 C 11.300781 -11.140625 11.15625 -10.457031 11.15625 -9.6875 C 11.15625 -8.363281 11.570312 -7.328125 12.40625 -6.578125 C 13.238281 -5.828125 14.394531 -5.453125 15.875 -5.453125 C 17.125 -5.453125 18.269531 -5.769531 19.3125 -6.40625 C 20.351562 -7.039062 21.414062 -7.96875 22.5 -9.1875 Z M 22.5 -14.546875 "/></g></g></g><g fill="#000000" fill-opacity="1"><g transform="translate(36.466486, 76.736792)"><g><path d="M 54.40625 -1.203125 C 54.40625 -0.960938 54.332031 -0.753906 54.1875 -0.578125 C 54.039062 -0.398438 53.800781 -0.253906 53.46875 -0.140625 C 53.144531 -0.0234375 52.703125 0.0625 52.140625 0.125 C 51.578125 0.1875 50.863281 0.21875 50 0.21875 C 49.101562 0.21875 48.375 0.1875 47.8125 0.125 C 47.25 0.0625 46.796875 -0.0234375 46.453125 -0.140625 C 46.117188 -0.253906 45.882812 -0.398438 45.75 -0.578125 C 45.625 -0.753906 45.5625 -0.960938 45.5625 -1.203125 L 45.5625 -19.828125 C 45.5625 -20.878906 45.460938 -21.835938 45.265625 -22.703125 C 45.066406 -23.578125 44.757812 -24.320312 44.34375 -24.9375 C 43.9375 -25.5625 43.421875 -26.046875 42.796875 -26.390625 C 42.171875 -26.734375 41.425781 -26.90625 40.5625 -26.90625 C 39.507812 -26.90625 38.441406 -26.492188 37.359375 -25.671875 C 36.273438 -24.847656 35.101562 -23.648438 33.84375 -22.078125 L 33.84375 -1.203125 C 33.84375 -0.960938 33.769531 -0.753906 33.625 -0.578125 C 33.476562 -0.398438 33.234375 -0.253906 32.890625 -0.140625 C 32.554688 -0.0234375 32.109375 0.0625 31.546875 0.125 C 30.984375 0.1875 30.28125 0.21875 29.4375 0.21875 C 28.5625 0.21875 27.84375 0.1875 27.28125 0.125 C 26.71875 0.0625 26.265625 -0.0234375 25.921875 -0.140625 C 25.585938 -0.253906 25.347656 -0.398438 25.203125 -0.578125 C 25.066406 -0.753906 25 -0.960938 25 -1.203125 L 25 -19.828125 C 25 -20.878906 24.898438 -21.835938 24.703125 -22.703125 C 24.503906 -23.578125 24.203125 -24.320312 23.796875 -24.9375 C 23.398438 -25.5625 22.882812 -26.046875 22.25 -26.390625 C 21.613281 -26.734375 20.875 -26.90625 20.03125 -26.90625 C 18.957031 -26.90625 17.878906 -26.492188 16.796875 -25.671875 C 15.710938 -24.847656 14.550781 -23.648438 13.3125 -22.078125 L 13.3125 -1.203125 C 13.3125 -0.960938 13.238281 -0.753906 13.09375 -0.578125 C 12.957031 -0.398438 12.71875 -0.253906 12.375 -0.140625 C 12.03125 -0.0234375 11.578125 0.0625 11.015625 0.125 C 10.453125 0.1875 9.738281 0.21875 8.875 0.21875 C 8 0.21875 7.28125 0.1875 6.71875 0.125 C 6.15625 0.0625 5.703125 -0.0234375 5.359375 -0.140625 C 5.023438 -0.253906 4.785156 -0.398438 4.640625 -0.578125 C 4.503906 -0.753906 4.4375 -0.960938 4.4375 -1.203125 L 4.4375 -32.609375 C 4.4375 -32.835938 4.492188 -33.039062 4.609375 -33.21875 C 4.722656 -33.394531 4.929688 -33.539062 5.234375 -33.65625 C 5.546875 -33.78125 5.941406 -33.867188 6.421875 -33.921875 C 6.898438 -33.984375 7.503906 -34.015625 8.234375 -34.015625 C 8.984375 -34.015625 9.601562 -33.984375 10.09375 -33.921875 C 10.59375 -33.867188 10.976562 -33.78125 11.25 -33.65625 C 11.519531 -33.539062 11.710938 -33.394531 11.828125 -33.21875 C 11.941406 -33.039062 12 -32.835938 12 -32.609375 L 12 -28.984375 C 13.738281 -30.859375 15.46875 -32.265625 17.1875 -33.203125 C 18.914062 -34.140625 20.722656 -34.609375 22.609375 -34.609375 C 23.898438 -34.609375 25.0625 -34.472656 26.09375 -34.203125 C 27.125 -33.929688 28.039062 -33.539062 28.84375 -33.03125 C 29.65625 -32.53125 30.351562 -31.925781 30.9375 -31.21875 C 31.53125 -30.519531 32.023438 -29.738281 32.421875 -28.875 C 33.367188 -29.882812 34.289062 -30.75 35.1875 -31.46875 C 36.09375 -32.195312 36.984375 -32.789062 37.859375 -33.25 C 38.742188 -33.707031 39.625 -34.046875 40.5 -34.265625 C 41.382812 -34.492188 42.285156 -34.609375 43.203125 -34.609375 C 45.285156 -34.609375 47.039062 -34.253906 48.46875 -33.546875 C 49.90625 -32.847656 51.0625 -31.894531 51.9375 -30.6875 C 52.820312 -29.476562 53.453125 -28.0625 53.828125 -26.4375 C 54.210938 -24.820312 54.40625 -23.109375 54.40625 -21.296875 Z M 54.40625 -1.203125 "/></g></g></g><g fill="#000000" fill-opacity="1"><g transform="translate(95.123652, 76.736792)"><g><path d="M 31.203125 -1.09375 C 31.203125 -0.757812 31.082031 -0.5 30.84375 -0.3125 C 30.601562 -0.125 30.234375 0.0078125 29.734375 0.09375 C 29.234375 0.175781 28.488281 0.21875 27.5 0.21875 C 26.445312 0.21875 25.675781 0.175781 25.1875 0.09375 C 24.707031 0.0078125 24.367188 -0.125 24.171875 -0.3125 C 23.972656 -0.5 23.875 -0.757812 23.875 -1.09375 L 23.875 -3.59375 C 22.582031 -2.207031 21.109375 -1.125 19.453125 -0.34375 C 17.796875 0.425781 15.957031 0.8125 13.9375 0.8125 C 12.269531 0.8125 10.738281 0.59375 9.34375 0.15625 C 7.945312 -0.28125 6.738281 -0.925781 5.71875 -1.78125 C 4.695312 -2.632812 3.90625 -3.691406 3.34375 -4.953125 C 2.78125 -6.222656 2.5 -7.707031 2.5 -9.40625 C 2.5 -11.226562 2.851562 -12.816406 3.5625 -14.171875 C 4.28125 -15.523438 5.347656 -16.640625 6.765625 -17.515625 C 8.191406 -18.398438 9.960938 -19.050781 12.078125 -19.46875 C 14.191406 -19.894531 16.644531 -20.109375 19.4375 -20.109375 L 22.5 -20.109375 L 22.5 -22 C 22.5 -22.988281 22.398438 -23.851562 22.203125 -24.59375 C 22.003906 -25.332031 21.675781 -25.945312 21.21875 -26.4375 C 20.757812 -26.9375 20.144531 -27.300781 19.375 -27.53125 C 18.613281 -27.769531 17.671875 -27.890625 16.546875 -27.890625 C 15.066406 -27.890625 13.742188 -27.722656 12.578125 -27.390625 C 11.421875 -27.066406 10.394531 -26.703125 9.5 -26.296875 C 8.613281 -25.898438 7.867188 -25.535156 7.265625 -25.203125 C 6.671875 -24.878906 6.1875 -24.71875 5.8125 -24.71875 C 5.550781 -24.71875 5.320312 -24.796875 5.125 -24.953125 C 4.925781 -25.117188 4.757812 -25.351562 4.625 -25.65625 C 4.5 -25.96875 4.398438 -26.347656 4.328125 -26.796875 C 4.253906 -27.242188 4.21875 -27.734375 4.21875 -28.265625 C 4.21875 -28.992188 4.273438 -29.566406 4.390625 -29.984375 C 4.515625 -30.410156 4.738281 -30.796875 5.0625 -31.140625 C 5.394531 -31.484375 5.972656 -31.859375 6.796875 -32.265625 C 7.617188 -32.679688 8.582031 -33.0625 9.6875 -33.40625 C 10.789062 -33.757812 11.992188 -34.046875 13.296875 -34.265625 C 14.597656 -34.492188 15.941406 -34.609375 17.328125 -34.609375 C 19.785156 -34.609375 21.890625 -34.367188 23.640625 -33.890625 C 25.390625 -33.410156 26.828125 -32.671875 27.953125 -31.671875 C 29.078125 -30.671875 29.898438 -29.382812 30.421875 -27.8125 C 30.941406 -26.238281 31.203125 -24.375 31.203125 -22.21875 Z M 22.5 -14.546875 L 19.125 -14.546875 C 17.6875 -14.546875 16.460938 -14.4375 15.453125 -14.21875 C 14.441406 -14.007812 13.617188 -13.691406 12.984375 -13.265625 C 12.359375 -12.847656 11.894531 -12.335938 11.59375 -11.734375 C 11.300781 -11.140625 11.15625 -10.457031 11.15625 -9.6875 C 11.15625 -8.363281 11.570312 -7.328125 12.40625 -6.578125 C 13.238281 -5.828125 14.394531 -5.453125 15.875 -5.453125 C 17.125 -5.453125 18.269531 -5.769531 19.3125 -6.40625 C 20.351562 -7.039062 21.414062 -7.96875 22.5 -9.1875 Z M 22.5 -14.546875 "/></g></g></g><g fill="#000000" fill-opacity="1"><g transform="translate(130.719338, 76.736792)"><g><path d="M 26.40625 -3.625 C 26.40625 -2.945312 26.367188 -2.363281 26.296875 -1.875 C 26.234375 -1.394531 26.140625 -1.015625 26.015625 -0.734375 C 25.898438 -0.453125 25.75 -0.257812 25.5625 -0.15625 C 25.375 -0.0507812 25.160156 0 24.921875 0 L 4.40625 0 C 3.769531 0 3.28125 -0.207031 2.9375 -0.625 C 2.59375 -1.050781 2.421875 -1.75 2.421875 -2.71875 L 2.421875 -4.328125 C 2.421875 -4.753906 2.4375 -5.132812 2.46875 -5.46875 C 2.507812 -5.8125 2.582031 -6.140625 2.6875 -6.453125 C 2.800781 -6.773438 2.941406 -7.097656 3.109375 -7.421875 C 3.285156 -7.753906 3.515625 -8.117188 3.796875 -8.515625 L 15.5625 -26.6875 L 4.4375 -26.6875 C 3.988281 -26.6875 3.628906 -26.96875 3.359375 -27.53125 C 3.085938 -28.09375 2.953125 -29 2.953125 -30.25 C 2.953125 -30.925781 2.984375 -31.492188 3.046875 -31.953125 C 3.109375 -32.410156 3.195312 -32.773438 3.3125 -33.046875 C 3.425781 -33.316406 3.578125 -33.507812 3.765625 -33.625 C 3.953125 -33.738281 4.175781 -33.796875 4.4375 -33.796875 L 23.625 -33.796875 C 23.957031 -33.796875 24.238281 -33.757812 24.46875 -33.6875 C 24.707031 -33.625 24.898438 -33.5 25.046875 -33.3125 C 25.203125 -33.125 25.320312 -32.863281 25.40625 -32.53125 C 25.488281 -32.207031 25.53125 -31.796875 25.53125 -31.296875 L 25.53125 -29.578125 C 25.53125 -29.109375 25.503906 -28.691406 25.453125 -28.328125 C 25.410156 -27.960938 25.34375 -27.613281 25.25 -27.28125 C 25.15625 -26.957031 25.019531 -26.628906 24.84375 -26.296875 C 24.664062 -25.972656 24.457031 -25.625 24.21875 -25.25 L 12.53125 -7.109375 L 24.921875 -7.109375 C 25.140625 -7.109375 25.34375 -7.0625 25.53125 -6.96875 C 25.71875 -6.875 25.875 -6.695312 26 -6.4375 C 26.132812 -6.1875 26.234375 -5.832031 26.296875 -5.375 C 26.367188 -4.914062 26.40625 -4.332031 26.40625 -3.625 Z M 26.40625 -3.625 "/></g></g></g><g fill="#000000" fill-opacity="1"><g transform="translate(159.378961, 76.736792)"><g><path d="M 36.203125 -17.21875 C 36.203125 -14.539062 35.847656 -12.097656 35.140625 -9.890625 C 34.429688 -7.679688 33.359375 -5.78125 31.921875 -4.1875 C 30.492188 -2.59375 28.703125 -1.359375 26.546875 -0.484375 C 24.390625 0.378906 21.867188 0.8125 18.984375 0.8125 C 16.179688 0.8125 13.75 0.425781 11.6875 -0.34375 C 9.625 -1.125 7.910156 -2.253906 6.546875 -3.734375 C 5.179688 -5.210938 4.171875 -7.03125 3.515625 -9.1875 C 2.859375 -11.34375 2.53125 -13.804688 2.53125 -16.578125 C 2.53125 -19.253906 2.890625 -21.703125 3.609375 -23.921875 C 4.328125 -26.140625 5.398438 -28.039062 6.828125 -29.625 C 8.265625 -31.207031 10.054688 -32.429688 12.203125 -33.296875 C 14.347656 -34.171875 16.863281 -34.609375 19.75 -34.609375 C 22.570312 -34.609375 25.015625 -34.226562 27.078125 -33.46875 C 29.140625 -32.707031 30.84375 -31.585938 32.1875 -30.109375 C 33.539062 -28.628906 34.546875 -26.804688 35.203125 -24.640625 C 35.867188 -22.484375 36.203125 -20.007812 36.203125 -17.21875 Z M 27.078125 -16.859375 C 27.078125 -18.410156 26.953125 -19.835938 26.703125 -21.140625 C 26.460938 -22.441406 26.046875 -23.570312 25.453125 -24.53125 C 24.867188 -25.5 24.085938 -26.253906 23.109375 -26.796875 C 22.140625 -27.335938 20.914062 -27.609375 19.4375 -27.609375 C 18.125 -27.609375 16.972656 -27.363281 15.984375 -26.875 C 14.992188 -26.394531 14.179688 -25.691406 13.546875 -24.765625 C 12.921875 -23.835938 12.445312 -22.722656 12.125 -21.421875 C 11.8125 -20.117188 11.65625 -18.632812 11.65625 -16.96875 C 11.65625 -15.414062 11.78125 -13.988281 12.03125 -12.6875 C 12.289062 -11.382812 12.707031 -10.253906 13.28125 -9.296875 C 13.863281 -8.335938 14.644531 -7.59375 15.625 -7.0625 C 16.613281 -6.53125 17.835938 -6.265625 19.296875 -6.265625 C 20.628906 -6.265625 21.789062 -6.503906 22.78125 -6.984375 C 23.769531 -7.460938 24.578125 -8.160156 25.203125 -9.078125 C 25.835938 -9.992188 26.304688 -11.101562 26.609375 -12.40625 C 26.921875 -13.707031 27.078125 -15.191406 27.078125 -16.859375 Z M 27.078125 -16.859375 "/></g></g></g><g fill="#000000" fill-opacity="1"><g transform="translate(198.143402, 76.736792)"><g><path d="M 34.4375 -1.203125 C 34.4375 -0.960938 34.363281 -0.753906 34.21875 -0.578125 C 34.082031 -0.398438 33.847656 -0.253906 33.515625 -0.140625 C 33.191406 -0.0234375 32.738281 0.0625 32.15625 0.125 C 31.582031 0.1875 30.875 0.21875 30.03125 0.21875 C 29.164062 0.21875 28.441406 0.1875 27.859375 0.125 C 27.285156 0.0625 26.832031 -0.0234375 26.5 -0.140625 C 26.175781 -0.253906 25.941406 -0.398438 25.796875 -0.578125 C 25.660156 -0.753906 25.59375 -0.960938 25.59375 -1.203125 L 25.59375 -19.125 C 25.59375 -20.644531 25.476562 -21.835938 25.25 -22.703125 C 25.03125 -23.578125 24.707031 -24.320312 24.28125 -24.9375 C 23.863281 -25.5625 23.320312 -26.046875 22.65625 -26.390625 C 21.988281 -26.734375 21.207031 -26.90625 20.3125 -26.90625 C 19.1875 -26.90625 18.046875 -26.492188 16.890625 -25.671875 C 15.742188 -24.847656 14.550781 -23.648438 13.3125 -22.078125 L 13.3125 -1.203125 C 13.3125 -0.960938 13.238281 -0.753906 13.09375 -0.578125 C 12.957031 -0.398438 12.71875 -0.253906 12.375 -0.140625 C 12.03125 -0.0234375 11.578125 0.0625 11.015625 0.125 C 10.453125 0.1875 9.738281 0.21875 8.875 0.21875 C 8 0.21875 7.28125 0.1875 6.71875 0.125 C 6.15625 0.0625 5.703125 -0.0234375 5.359375 -0.140625 C 5.023438 -0.253906 4.785156 -0.398438 4.640625 -0.578125 C 4.503906 -0.753906 4.4375 -0.960938 4.4375 -1.203125 L 4.4375 -32.609375 C 4.4375 -32.835938 4.492188 -33.039062 4.609375 -33.21875 C 4.722656 -33.394531 4.929688 -33.539062 5.234375 -33.65625 C 5.546875 -33.78125 5.941406 -33.867188 6.421875 -33.921875 C 6.898438 -33.984375 7.503906 -34.015625 8.234375 -34.015625 C 8.984375 -34.015625 9.601562 -33.984375 10.09375 -33.921875 C 10.59375 -33.867188 10.976562 -33.78125 11.25 -33.65625 C 11.519531 -33.539062 11.710938 -33.394531 11.828125 -33.21875 C 11.941406 -33.039062 12 -32.835938 12 -32.609375 L 12 -28.984375 C 13.738281 -30.859375 15.503906 -32.265625 17.296875 -33.203125 C 19.097656 -34.140625 20.972656 -34.609375 22.921875 -34.609375 C 25.054688 -34.609375 26.859375 -34.253906 28.328125 -33.546875 C 29.796875 -32.847656 30.976562 -31.894531 31.875 -30.6875 C 32.78125 -29.476562 33.429688 -28.0625 33.828125 -26.4375 C 34.234375 -24.820312 34.4375 -22.875 34.4375 -20.59375 Z M 34.4375 -1.203125 "/></g></g></g></g></g><g transform="matrix(1, 0, 0, 1, 115, 178)"><g clip-path="url(#d2957fe2d2)"><g fill="#000000" fill-opacity="1"><g transform="translate(0.767471, 64.285261)"><g><path d="M 23.375 -5.140625 C 23.375 -4.628906 23.359375 -4.203125 23.328125 -3.859375 C 23.304688 -3.523438 23.269531 -3.238281 23.21875 -3 C 23.164062 -2.769531 23.101562 -2.582031 23.03125 -2.4375 C 22.96875 -2.289062 22.820312 -2.101562 22.59375 -1.875 C 22.363281 -1.65625 21.960938 -1.382812 21.390625 -1.0625 C 20.828125 -0.738281 20.1875 -0.453125 19.46875 -0.203125 C 18.75 0.046875 17.960938 0.25 17.109375 0.40625 C 16.265625 0.5625 15.394531 0.640625 14.5 0.640625 C 12.5 0.640625 10.722656 0.332031 9.171875 -0.28125 C 7.628906 -0.90625 6.332031 -1.828125 5.28125 -3.046875 C 4.226562 -4.265625 3.4375 -5.75 2.90625 -7.5 C 2.375 -9.25 2.109375 -11.253906 2.109375 -13.515625 C 2.109375 -16.117188 2.429688 -18.367188 3.078125 -20.265625 C 3.734375 -22.171875 4.644531 -23.742188 5.8125 -24.984375 C 6.976562 -26.234375 8.359375 -27.160156 9.953125 -27.765625 C 11.546875 -28.367188 13.296875 -28.671875 15.203125 -28.671875 C 15.984375 -28.671875 16.75 -28.597656 17.5 -28.453125 C 18.25 -28.316406 18.945312 -28.132812 19.59375 -27.90625 C 20.25 -27.675781 20.832031 -27.414062 21.34375 -27.125 C 21.863281 -26.832031 22.226562 -26.578125 22.4375 -26.359375 C 22.65625 -26.140625 22.804688 -25.957031 22.890625 -25.8125 C 22.984375 -25.664062 23.050781 -25.476562 23.09375 -25.25 C 23.144531 -25.019531 23.1875 -24.734375 23.21875 -24.390625 C 23.25 -24.046875 23.265625 -23.628906 23.265625 -23.140625 C 23.265625 -22.015625 23.164062 -21.222656 22.96875 -20.765625 C 22.78125 -20.304688 22.53125 -20.078125 22.21875 -20.078125 C 21.882812 -20.078125 21.53125 -20.210938 21.15625 -20.484375 C 20.789062 -20.765625 20.351562 -21.066406 19.84375 -21.390625 C 19.34375 -21.722656 18.738281 -22.023438 18.03125 -22.296875 C 17.332031 -22.566406 16.5 -22.703125 15.53125 -22.703125 C 13.625 -22.703125 12.160156 -21.96875 11.140625 -20.5 C 10.128906 -19.03125 9.625 -16.878906 9.625 -14.046875 C 9.625 -12.640625 9.75 -11.398438 10 -10.328125 C 10.257812 -9.265625 10.632812 -8.367188 11.125 -7.640625 C 11.625 -6.921875 12.25 -6.378906 13 -6.015625 C 13.75 -5.660156 14.617188 -5.484375 15.609375 -5.484375 C 16.628906 -5.484375 17.503906 -5.632812 18.234375 -5.9375 C 18.960938 -6.238281 19.597656 -6.570312 20.140625 -6.9375 C 20.679688 -7.3125 21.132812 -7.648438 21.5 -7.953125 C 21.875 -8.253906 22.191406 -8.40625 22.453125 -8.40625 C 22.617188 -8.40625 22.757812 -8.351562 22.875 -8.25 C 23 -8.15625 23.09375 -7.976562 23.15625 -7.71875 C 23.226562 -7.457031 23.28125 -7.117188 23.3125 -6.703125 C 23.351562 -6.296875 23.375 -5.773438 23.375 -5.140625 Z M 23.375 -5.140625 "/></g></g></g><g fill="#000000" fill-opacity="1"><g transform="translate(25.785572, 64.285261)"><g><path d="M 11.03125 -1 C 11.03125 -0.800781 10.972656 -0.628906 10.859375 -0.484375 C 10.742188 -0.335938 10.546875 -0.210938 10.265625 -0.109375 C 9.984375 -0.015625 9.609375 0.0507812 9.140625 0.09375 C 8.671875 0.144531 8.078125 0.171875 7.359375 0.171875 C 6.640625 0.171875 6.046875 0.144531 5.578125 0.09375 C 5.109375 0.0507812 4.734375 -0.015625 4.453125 -0.109375 C 4.171875 -0.210938 3.96875 -0.335938 3.84375 -0.484375 C 3.726562 -0.628906 3.671875 -0.800781 3.671875 -1 L 3.671875 -39.375 C 3.671875 -39.570312 3.726562 -39.75 3.84375 -39.90625 C 3.96875 -40.0625 4.171875 -40.191406 4.453125 -40.296875 C 4.734375 -40.398438 5.109375 -40.476562 5.578125 -40.53125 C 6.046875 -40.59375 6.640625 -40.625 7.359375 -40.625 C 8.078125 -40.625 8.671875 -40.59375 9.140625 -40.53125 C 9.609375 -40.476562 9.984375 -40.398438 10.265625 -40.296875 C 10.546875 -40.191406 10.742188 -40.0625 10.859375 -39.90625 C 10.972656 -39.75 11.03125 -39.570312 11.03125 -39.375 Z M 11.03125 -1 "/></g></g></g><g fill="#000000" fill-opacity="1"><g transform="translate(40.469478, 64.285261)"><g><path d="M 27.734375 -14.765625 C 27.734375 -13.867188 27.53125 -13.207031 27.125 -12.78125 C 26.726562 -12.351562 26.179688 -12.140625 25.484375 -12.140625 L 9.625 -12.140625 C 9.625 -11.035156 9.753906 -10.03125 10.015625 -9.125 C 10.285156 -8.21875 10.707031 -7.445312 11.28125 -6.8125 C 11.851562 -6.1875 12.59375 -5.707031 13.5 -5.375 C 14.40625 -5.039062 15.488281 -4.875 16.75 -4.875 C 18.039062 -4.875 19.171875 -4.960938 20.140625 -5.140625 C 21.109375 -5.328125 21.945312 -5.53125 22.65625 -5.75 C 23.375 -5.976562 23.960938 -6.1875 24.421875 -6.375 C 24.890625 -6.5625 25.273438 -6.65625 25.578125 -6.65625 C 25.742188 -6.65625 25.882812 -6.617188 26 -6.546875 C 26.125 -6.484375 26.222656 -6.363281 26.296875 -6.1875 C 26.378906 -6.007812 26.429688 -5.757812 26.453125 -5.4375 C 26.484375 -5.125 26.5 -4.722656 26.5 -4.234375 C 26.5 -3.804688 26.488281 -3.441406 26.46875 -3.140625 C 26.457031 -2.835938 26.429688 -2.578125 26.390625 -2.359375 C 26.347656 -2.148438 26.285156 -1.972656 26.203125 -1.828125 C 26.128906 -1.679688 26.03125 -1.539062 25.90625 -1.40625 C 25.78125 -1.269531 25.429688 -1.082031 24.859375 -0.84375 C 24.296875 -0.613281 23.578125 -0.382812 22.703125 -0.15625 C 21.828125 0.0625 20.828125 0.253906 19.703125 0.421875 C 18.578125 0.585938 17.367188 0.671875 16.078125 0.671875 C 13.765625 0.671875 11.738281 0.378906 10 -0.203125 C 8.257812 -0.785156 6.800781 -1.671875 5.625 -2.859375 C 4.457031 -4.046875 3.585938 -5.546875 3.015625 -7.359375 C 2.441406 -9.171875 2.15625 -11.289062 2.15625 -13.71875 C 2.15625 -16.03125 2.457031 -18.113281 3.0625 -19.96875 C 3.664062 -21.832031 4.539062 -23.410156 5.6875 -24.703125 C 6.84375 -26.003906 8.238281 -26.992188 9.875 -27.671875 C 11.519531 -28.347656 13.375 -28.6875 15.4375 -28.6875 C 17.613281 -28.6875 19.476562 -28.363281 21.03125 -27.71875 C 22.582031 -27.082031 23.851562 -26.195312 24.84375 -25.0625 C 25.832031 -23.925781 26.5625 -22.578125 27.03125 -21.015625 C 27.5 -19.460938 27.734375 -17.769531 27.734375 -15.9375 Z M 20.609375 -16.875 C 20.671875 -18.9375 20.257812 -20.554688 19.375 -21.734375 C 18.488281 -22.910156 17.117188 -23.5 15.265625 -23.5 C 14.328125 -23.5 13.515625 -23.320312 12.828125 -22.96875 C 12.140625 -22.625 11.566406 -22.15625 11.109375 -21.5625 C 10.648438 -20.96875 10.296875 -20.265625 10.046875 -19.453125 C 9.804688 -18.648438 9.664062 -17.789062 9.625 -16.875 Z M 20.609375 -16.875 "/></g></g></g><g fill="#000000" fill-opacity="1"><g transform="translate(70.567099, 64.285261)"><g><path d="M 25.859375 -0.90625 C 25.859375 -0.632812 25.757812 -0.421875 25.5625 -0.265625 C 25.375 -0.109375 25.066406 0 24.640625 0.0625 C 24.222656 0.132812 23.609375 0.171875 22.796875 0.171875 C 21.921875 0.171875 21.28125 0.132812 20.875 0.0625 C 20.476562 0 20.195312 -0.109375 20.03125 -0.265625 C 19.875 -0.421875 19.796875 -0.632812 19.796875 -0.90625 L 19.796875 -2.984375 C 18.722656 -1.828125 17.5 -0.925781 16.125 -0.28125 C 14.75 0.351562 13.226562 0.671875 11.5625 0.671875 C 10.175781 0.671875 8.90625 0.488281 7.75 0.125 C 6.59375 -0.226562 5.585938 -0.757812 4.734375 -1.46875 C 3.890625 -2.1875 3.234375 -3.066406 2.765625 -4.109375 C 2.304688 -5.160156 2.078125 -6.390625 2.078125 -7.796875 C 2.078125 -9.316406 2.375 -10.632812 2.96875 -11.75 C 3.5625 -12.863281 4.445312 -13.785156 5.625 -14.515625 C 6.800781 -15.242188 8.265625 -15.785156 10.015625 -16.140625 C 11.765625 -16.492188 13.796875 -16.671875 16.109375 -16.671875 L 18.65625 -16.671875 L 18.65625 -18.25 C 18.65625 -19.0625 18.570312 -19.773438 18.40625 -20.390625 C 18.238281 -21.003906 17.960938 -21.515625 17.578125 -21.921875 C 17.203125 -22.328125 16.695312 -22.628906 16.0625 -22.828125 C 15.4375 -23.023438 14.65625 -23.125 13.71875 -23.125 C 12.488281 -23.125 11.390625 -22.984375 10.421875 -22.703125 C 9.460938 -22.429688 8.613281 -22.128906 7.875 -21.796875 C 7.132812 -21.472656 6.515625 -21.171875 6.015625 -20.890625 C 5.523438 -20.617188 5.125 -20.484375 4.8125 -20.484375 C 4.601562 -20.484375 4.414062 -20.550781 4.25 -20.6875 C 4.082031 -20.832031 3.941406 -21.03125 3.828125 -21.28125 C 3.722656 -21.53125 3.640625 -21.835938 3.578125 -22.203125 C 3.523438 -22.578125 3.5 -22.988281 3.5 -23.4375 C 3.5 -24.039062 3.546875 -24.515625 3.640625 -24.859375 C 3.742188 -25.210938 3.929688 -25.53125 4.203125 -25.8125 C 4.472656 -26.09375 4.945312 -26.40625 5.625 -26.75 C 6.3125 -27.09375 7.113281 -27.410156 8.03125 -27.703125 C 8.945312 -27.992188 9.941406 -28.226562 11.015625 -28.40625 C 12.097656 -28.59375 13.210938 -28.6875 14.359375 -28.6875 C 16.398438 -28.6875 18.144531 -28.488281 19.59375 -28.09375 C 21.050781 -27.695312 22.242188 -27.082031 23.171875 -26.25 C 24.109375 -25.425781 24.789062 -24.363281 25.21875 -23.0625 C 25.644531 -21.757812 25.859375 -20.210938 25.859375 -18.421875 Z M 18.65625 -12.0625 L 15.84375 -12.0625 C 14.65625 -12.0625 13.644531 -11.972656 12.8125 -11.796875 C 11.976562 -11.617188 11.296875 -11.351562 10.765625 -11 C 10.242188 -10.65625 9.859375 -10.234375 9.609375 -9.734375 C 9.367188 -9.234375 9.25 -8.664062 9.25 -8.03125 C 9.25 -6.9375 9.59375 -6.078125 10.28125 -5.453125 C 10.976562 -4.835938 11.941406 -4.53125 13.171875 -4.53125 C 14.203125 -4.53125 15.148438 -4.789062 16.015625 -5.3125 C 16.878906 -5.832031 17.757812 -6.601562 18.65625 -7.625 Z M 18.65625 -12.0625 "/></g></g></g><g fill="#000000" fill-opacity="1"><g transform="translate(100.080867, 64.285261)"><g><path d="M 28.546875 -1 C 28.546875 -0.800781 28.488281 -0.628906 28.375 -0.484375 C 28.257812 -0.335938 28.0625 -0.210938 27.78125 -0.109375 C 27.507812 -0.015625 27.132812 0.0507812 26.65625 0.09375 C 26.1875 0.144531 25.601562 0.171875 24.90625 0.171875 C 24.175781 0.171875 23.570312 0.144531 23.09375 0.09375 C 22.625 0.0507812 22.253906 -0.015625 21.984375 -0.109375 C 21.710938 -0.210938 21.515625 -0.335938 21.390625 -0.484375 C 21.273438 -0.628906 21.21875 -0.800781 21.21875 -1 L 21.21875 -15.84375 C 21.21875 -17.113281 21.125 -18.109375 20.9375 -18.828125 C 20.757812 -19.546875 20.492188 -20.160156 20.140625 -20.671875 C 19.785156 -21.191406 19.332031 -21.59375 18.78125 -21.875 C 18.226562 -22.15625 17.582031 -22.296875 16.84375 -22.296875 C 15.90625 -22.296875 14.957031 -21.957031 14 -21.28125 C 13.050781 -20.601562 12.0625 -19.609375 11.03125 -18.296875 L 11.03125 -1 C 11.03125 -0.800781 10.972656 -0.628906 10.859375 -0.484375 C 10.742188 -0.335938 10.546875 -0.210938 10.265625 -0.109375 C 9.984375 -0.015625 9.609375 0.0507812 9.140625 0.09375 C 8.671875 0.144531 8.078125 0.171875 7.359375 0.171875 C 6.640625 0.171875 6.046875 0.144531 5.578125 0.09375 C 5.109375 0.0507812 4.734375 -0.015625 4.453125 -0.109375 C 4.171875 -0.210938 3.96875 -0.335938 3.84375 -0.484375 C 3.726562 -0.628906 3.671875 -0.800781 3.671875 -1 L 3.671875 -27.03125 C 3.671875 -27.226562 3.71875 -27.398438 3.8125 -27.546875 C 3.914062 -27.691406 4.09375 -27.8125 4.34375 -27.90625 C 4.601562 -28 4.929688 -28.070312 5.328125 -28.125 C 5.722656 -28.175781 6.222656 -28.203125 6.828125 -28.203125 C 7.453125 -28.203125 7.96875 -28.175781 8.375 -28.125 C 8.78125 -28.070312 9.09375 -28 9.3125 -27.90625 C 9.539062 -27.8125 9.703125 -27.691406 9.796875 -27.546875 C 9.898438 -27.398438 9.953125 -27.226562 9.953125 -27.03125 L 9.953125 -24.015625 C 11.390625 -25.578125 12.851562 -26.742188 14.34375 -27.515625 C 15.832031 -28.296875 17.382812 -28.6875 19 -28.6875 C 20.769531 -28.6875 22.265625 -28.394531 23.484375 -27.8125 C 24.703125 -27.226562 25.6875 -26.4375 26.4375 -25.4375 C 27.1875 -24.4375 27.722656 -23.265625 28.046875 -21.921875 C 28.378906 -20.578125 28.546875 -18.960938 28.546875 -17.078125 Z M 28.546875 -1 "/></g></g></g><g fill="#000000" fill-opacity="1"><g transform="translate(132.163587, 64.285261)"><g><path d="M 27.734375 -14.765625 C 27.734375 -13.867188 27.53125 -13.207031 27.125 -12.78125 C 26.726562 -12.351562 26.179688 -12.140625 25.484375 -12.140625 L 9.625 -12.140625 C 9.625 -11.035156 9.753906 -10.03125 10.015625 -9.125 C 10.285156 -8.21875 10.707031 -7.445312 11.28125 -6.8125 C 11.851562 -6.1875 12.59375 -5.707031 13.5 -5.375 C 14.40625 -5.039062 15.488281 -4.875 16.75 -4.875 C 18.039062 -4.875 19.171875 -4.960938 20.140625 -5.140625 C 21.109375 -5.328125 21.945312 -5.53125 22.65625 -5.75 C 23.375 -5.976562 23.960938 -6.1875 24.421875 -6.375 C 24.890625 -6.5625 25.273438 -6.65625 25.578125 -6.65625 C 25.742188 -6.65625 25.882812 -6.617188 26 -6.546875 C 26.125 -6.484375 26.222656 -6.363281 26.296875 -6.1875 C 26.378906 -6.007812 26.429688 -5.757812 26.453125 -5.4375 C 26.484375 -5.125 26.5 -4.722656 26.5 -4.234375 C 26.5 -3.804688 26.488281 -3.441406 26.46875 -3.140625 C 26.457031 -2.835938 26.429688 -2.578125 26.390625 -2.359375 C 26.347656 -2.148438 26.285156 -1.972656 26.203125 -1.828125 C 26.128906 -1.679688 26.03125 -1.539062 25.90625 -1.40625 C 25.78125 -1.269531 25.429688 -1.082031 24.859375 -0.84375 C 24.296875 -0.613281 23.578125 -0.382812 22.703125 -0.15625 C 21.828125 0.0625 20.828125 0.253906 19.703125 0.421875 C 18.578125 0.585938 17.367188 0.671875 16.078125 0.671875 C 13.765625 0.671875 11.738281 0.378906 10 -0.203125 C 8.257812 -0.785156 6.800781 -1.671875 5.625 -2.859375 C 4.457031 -4.046875 3.585938 -5.546875 3.015625 -7.359375 C 2.441406 -9.171875 2.15625 -11.289062 2.15625 -13.71875 C 2.15625 -16.03125 2.457031 -18.113281 3.0625 -19.96875 C 3.664062 -21.832031 4.539062 -23.410156 5.6875 -24.703125 C 6.84375 -26.003906 8.238281 -26.992188 9.875 -27.671875 C 11.519531 -28.347656 13.375 -28.6875 15.4375 -28.6875 C 17.613281 -28.6875 19.476562 -28.363281 21.03125 -27.71875 C 22.582031 -27.082031 23.851562 -26.195312 24.84375 -25.0625 C 25.832031 -23.925781 26.5625 -22.578125 27.03125 -21.015625 C 27.5 -19.460938 27.734375 -17.769531 27.734375 -15.9375 Z M 20.609375 -16.875 C 20.671875 -18.9375 20.257812 -20.554688 19.375 -21.734375 C 18.488281 -22.910156 17.117188 -23.5 15.265625 -23.5 C 14.328125 -23.5 13.515625 -23.320312 12.828125 -22.96875 C 12.140625 -22.625 11.566406 -22.15625 11.109375 -21.5625 C 10.648438 -20.96875 10.296875 -20.265625 10.046875 -19.453125 C 9.804688 -18.648438 9.664062 -17.789062 9.625 -16.875 Z M 20.609375 -16.875 "/></g></g></g><g fill="#000000" fill-opacity="1"><g transform="translate(162.261207, 64.285261)"><g><path d="M 20.40625 -24.609375 C 20.40625 -23.910156 20.382812 -23.335938 20.34375 -22.890625 C 20.300781 -22.441406 20.238281 -22.085938 20.15625 -21.828125 C 20.082031 -21.578125 19.984375 -21.398438 19.859375 -21.296875 C 19.734375 -21.203125 19.570312 -21.15625 19.375 -21.15625 C 19.226562 -21.15625 19.054688 -21.1875 18.859375 -21.25 C 18.660156 -21.320312 18.4375 -21.394531 18.1875 -21.46875 C 17.945312 -21.550781 17.679688 -21.628906 17.390625 -21.703125 C 17.097656 -21.773438 16.78125 -21.8125 16.4375 -21.8125 C 16.03125 -21.8125 15.617188 -21.726562 15.203125 -21.5625 C 14.796875 -21.394531 14.375 -21.132812 13.9375 -20.78125 C 13.5 -20.4375 13.039062 -19.96875 12.5625 -19.375 C 12.082031 -18.789062 11.570312 -18.070312 11.03125 -17.21875 L 11.03125 -1 C 11.03125 -0.800781 10.972656 -0.628906 10.859375 -0.484375 C 10.742188 -0.335938 10.546875 -0.210938 10.265625 -0.109375 C 9.984375 -0.015625 9.609375 0.0507812 9.140625 0.09375 C 8.671875 0.144531 8.078125 0.171875 7.359375 0.171875 C 6.640625 0.171875 6.046875 0.144531 5.578125 0.09375 C 5.109375 0.0507812 4.734375 -0.015625 4.453125 -0.109375 C 4.171875 -0.210938 3.96875 -0.335938 3.84375 -0.484375 C 3.726562 -0.628906 3.671875 -0.800781 3.671875 -1 L 3.671875 -27.03125 C 3.671875 -27.226562 3.71875 -27.398438 3.8125 -27.546875 C 3.914062 -27.691406 4.09375 -27.8125 4.34375 -27.90625 C 4.601562 -28 4.929688 -28.070312 5.328125 -28.125 C 5.722656 -28.175781 6.222656 -28.203125 6.828125 -28.203125 C 7.453125 -28.203125 7.96875 -28.175781 8.375 -28.125 C 8.78125 -28.070312 9.09375 -28 9.3125 -27.90625 C 9.539062 -27.8125 9.703125 -27.691406 9.796875 -27.546875 C 9.898438 -27.398438 9.953125 -27.226562 9.953125 -27.03125 L 9.953125 -23.796875 C 10.628906 -24.765625 11.269531 -25.5625 11.875 -26.1875 C 12.476562 -26.820312 13.050781 -27.320312 13.59375 -27.6875 C 14.144531 -28.0625 14.691406 -28.320312 15.234375 -28.46875 C 15.773438 -28.613281 16.320312 -28.6875 16.875 -28.6875 C 17.125 -28.6875 17.394531 -28.671875 17.6875 -28.640625 C 17.976562 -28.617188 18.28125 -28.570312 18.59375 -28.5 C 18.90625 -28.4375 19.175781 -28.359375 19.40625 -28.265625 C 19.644531 -28.179688 19.816406 -28.085938 19.921875 -27.984375 C 20.023438 -27.890625 20.101562 -27.785156 20.15625 -27.671875 C 20.207031 -27.554688 20.25 -27.394531 20.28125 -27.1875 C 20.320312 -26.988281 20.351562 -26.679688 20.375 -26.265625 C 20.394531 -25.859375 20.40625 -25.304688 20.40625 -24.609375 Z M 20.40625 -24.609375 "/></g></g></g></g></g><g clip-path="url(#eedfcf42d9)"><g clip-path="url(#a71e69505b)"><g transform="matrix(1, 0, 0, 1, 105, 239)"><g clip-path="url(#5c04675436)"><g clip-path="url(#f231557eb2)"><g clip-path="url(#d31cf58038)"><g clip-path="url(#3ea03926b1)"><path fill="#ff9f2e" d="M 156.09375 77.636719 C 155.058594 80.644531 151.496094 86.566406 148.828125 90.558594 C 145.605469 95.382812 141.234375 101.300781 135.8125 103.640625 C 133.890625 104.476562 131.269531 102.742188 131.742188 100.53125 C 132.9375 94.972656 137.242188 89.65625 140.402344 84.910156 C 95.617188 102.957031 39.917969 99.207031 2.671875 67.050781 C 0.398438 65.085938 2.667969 61.53125 5.347656 63.128906 C 44.980469 86.796875 94.753906 92.789062 136.648438 72.992188 C 135.257812 72.25 133.863281 71.5 132.46875 70.765625 C 126.835938 67.789062 120.816406 65.289062 116.414062 60.574219 C 113.488281 57.445312 116.523438 52.007812 120.644531 52.457031 C 126.734375 53.121094 132.046875 56.378906 137.472656 59.03125 C 142.972656 61.722656 148.554688 64.292969 153.953125 67.183594 C 157.730469 69.203125 157.132812 74.628906 156.09375 77.636719 Z M 156.09375 77.636719 " fill-opacity="1" fill-rule="nonzero"/></g></g></g></g></g></g></g><g transform="matrix(1, 0, 0, 1, 62, 48)"><g clip-path="url(#a4ab8511ad)"><g fill="#1298ff" fill-opacity="1"><g transform="translate(0.846375, 102.599144)"><g><path d="M 48.40625 -23.296875 C 48.40625 -19.546875 48 -16.164062 47.1875 -13.15625 C 46.382812 -10.15625 45.210938 -7.597656 43.671875 -5.484375 C 42.128906 -3.367188 40.207031 -1.742188 37.90625 -0.609375 C 35.601562 0.523438 32.972656 1.09375 30.015625 1.09375 C 28.785156 1.09375 27.65625 0.972656 26.625 0.734375 C 25.601562 0.492188 24.613281 0.128906 23.65625 -0.359375 C 22.695312 -0.847656 21.742188 -1.453125 20.796875 -2.171875 C 19.847656 -2.898438 18.867188 -3.75 17.859375 -4.71875 L 17.859375 15.125 C 17.859375 15.4375 17.765625 15.71875 17.578125 15.96875 C 17.390625 16.226562 17.066406 16.441406 16.609375 16.609375 C 16.148438 16.785156 15.539062 16.921875 14.78125 17.015625 C 14.03125 17.109375 13.070312 17.15625 11.90625 17.15625 C 10.738281 17.15625 9.773438 17.109375 9.015625 17.015625 C 8.265625 16.921875 7.660156 16.785156 7.203125 16.609375 C 6.742188 16.441406 6.421875 16.226562 6.234375 15.96875 C 6.046875 15.71875 5.953125 15.4375 5.953125 15.125 L 5.953125 -43.765625 C 5.953125 -44.078125 6.03125 -44.351562 6.1875 -44.59375 C 6.34375 -44.832031 6.617188 -45.03125 7.015625 -45.1875 C 7.410156 -45.34375 7.929688 -45.457031 8.578125 -45.53125 C 9.222656 -45.613281 10.035156 -45.65625 11.015625 -45.65625 C 11.960938 -45.65625 12.757812 -45.613281 13.40625 -45.53125 C 14.050781 -45.457031 14.566406 -45.34375 14.953125 -45.1875 C 15.347656 -45.03125 15.625 -44.832031 15.78125 -44.59375 C 15.9375 -44.351562 16.015625 -44.078125 16.015625 -43.765625 L 16.015625 -38.796875 C 17.242188 -40.054688 18.445312 -41.164062 19.625 -42.125 C 20.8125 -43.09375 22.019531 -43.898438 23.25 -44.546875 C 24.476562 -45.191406 25.742188 -45.671875 27.046875 -45.984375 C 28.359375 -46.296875 29.753906 -46.453125 31.234375 -46.453125 C 34.328125 -46.453125 36.957031 -45.847656 39.125 -44.640625 C 41.300781 -43.429688 43.078125 -41.769531 44.453125 -39.65625 C 45.828125 -37.539062 46.828125 -35.082031 47.453125 -32.28125 C 48.085938 -29.476562 48.40625 -26.484375 48.40625 -23.296875 Z M 36.015625 -22.453125 C 36.015625 -24.242188 35.878906 -25.96875 35.609375 -27.625 C 35.347656 -29.28125 34.894531 -30.753906 34.25 -32.046875 C 33.601562 -33.335938 32.75 -34.367188 31.6875 -35.140625 C 30.632812 -35.910156 29.320312 -36.296875 27.75 -36.296875 C 26.957031 -36.296875 26.175781 -36.175781 25.40625 -35.9375 C 24.632812 -35.707031 23.847656 -35.320312 23.046875 -34.78125 C 22.242188 -34.25 21.414062 -33.554688 20.5625 -32.703125 C 19.707031 -31.859375 18.804688 -30.804688 17.859375 -29.546875 L 17.859375 -15.640625 C 19.535156 -13.535156 21.128906 -11.90625 22.640625 -10.75 C 24.148438 -9.601562 25.722656 -9.03125 27.359375 -9.03125 C 28.910156 -9.03125 30.226562 -9.421875 31.3125 -10.203125 C 32.394531 -10.992188 33.28125 -12.023438 33.96875 -13.296875 C 34.664062 -14.578125 35.179688 -16.019531 35.515625 -17.625 C 35.847656 -19.238281 36.015625 -20.847656 36.015625 -22.453125 Z M 36.015625 -22.453125 "/></g></g></g><g fill="#1298ff" fill-opacity="1"><g transform="translate(52.783054, 102.599144)"><g><path d="M 33.03125 -39.84375 C 33.03125 -38.707031 33 -37.773438 32.9375 -37.046875 C 32.875 -36.328125 32.78125 -35.757812 32.65625 -35.34375 C 32.53125 -34.9375 32.363281 -34.65625 32.15625 -34.5 C 31.957031 -34.34375 31.703125 -34.265625 31.390625 -34.265625 C 31.128906 -34.265625 30.84375 -34.316406 30.53125 -34.421875 C 30.21875 -34.535156 29.863281 -34.65625 29.46875 -34.78125 C 29.070312 -34.90625 28.632812 -35.023438 28.15625 -35.140625 C 27.6875 -35.253906 27.171875 -35.3125 26.609375 -35.3125 C 25.941406 -35.3125 25.273438 -35.175781 24.609375 -34.90625 C 23.953125 -34.632812 23.269531 -34.210938 22.5625 -33.640625 C 21.851562 -33.078125 21.113281 -32.320312 20.34375 -31.375 C 19.570312 -30.4375 18.742188 -29.273438 17.859375 -27.890625 L 17.859375 -1.609375 C 17.859375 -1.296875 17.765625 -1.019531 17.578125 -0.78125 C 17.390625 -0.539062 17.066406 -0.34375 16.609375 -0.1875 C 16.148438 -0.03125 15.539062 0.0820312 14.78125 0.15625 C 14.03125 0.238281 13.070312 0.28125 11.90625 0.28125 C 10.738281 0.28125 9.773438 0.238281 9.015625 0.15625 C 8.265625 0.0820312 7.660156 -0.03125 7.203125 -0.1875 C 6.742188 -0.34375 6.421875 -0.539062 6.234375 -0.78125 C 6.046875 -1.019531 5.953125 -1.296875 5.953125 -1.609375 L 5.953125 -43.765625 C 5.953125 -44.078125 6.03125 -44.351562 6.1875 -44.59375 C 6.34375 -44.832031 6.625 -45.03125 7.03125 -45.1875 C 7.445312 -45.34375 7.976562 -45.457031 8.625 -45.53125 C 9.269531 -45.613281 10.082031 -45.65625 11.0625 -45.65625 C 12.070312 -45.65625 12.90625 -45.613281 13.5625 -45.53125 C 14.226562 -45.457031 14.738281 -45.34375 15.09375 -45.1875 C 15.457031 -45.03125 15.71875 -44.832031 15.875 -44.59375 C 16.03125 -44.351562 16.109375 -44.078125 16.109375 -43.765625 L 16.109375 -38.515625 C 17.210938 -40.097656 18.253906 -41.398438 19.234375 -42.421875 C 20.210938 -43.441406 21.140625 -44.25 22.015625 -44.84375 C 22.898438 -45.445312 23.785156 -45.863281 24.671875 -46.09375 C 25.554688 -46.332031 26.4375 -46.453125 27.3125 -46.453125 C 27.726562 -46.453125 28.171875 -46.425781 28.640625 -46.375 C 29.109375 -46.332031 29.59375 -46.253906 30.09375 -46.140625 C 30.601562 -46.035156 31.046875 -45.910156 31.421875 -45.765625 C 31.804688 -45.628906 32.082031 -45.484375 32.25 -45.328125 C 32.425781 -45.171875 32.550781 -44.992188 32.625 -44.796875 C 32.707031 -44.609375 32.78125 -44.347656 32.84375 -44.015625 C 32.90625 -43.691406 32.953125 -43.195312 32.984375 -42.53125 C 33.015625 -41.875 33.03125 -40.976562 33.03125 -39.84375 Z M 33.03125 -39.84375 "/></g></g></g><g fill="#1298ff" fill-opacity="1"><g transform="translate(87.18696, 102.599144)"><g><path d="M 17.859375 -1.609375 C 17.859375 -1.296875 17.765625 -1.019531 17.578125 -0.78125 C 17.390625 -0.539062 17.066406 -0.34375 16.609375 -0.1875 C 16.148438 -0.03125 15.539062 0.0820312 14.78125 0.15625 C 14.03125 0.238281 13.070312 0.28125 11.90625 0.28125 C 10.738281 0.28125 9.773438 0.238281 9.015625 0.15625 C 8.265625 0.0820312 7.660156 -0.03125 7.203125 -0.1875 C 6.742188 -0.34375 6.421875 -0.539062 6.234375 -0.78125 C 6.046875 -1.019531 5.953125 -1.296875 5.953125 -1.609375 L 5.953125 -43.671875 C 5.953125 -43.984375 6.046875 -44.257812 6.234375 -44.5 C 6.421875 -44.738281 6.742188 -44.941406 7.203125 -45.109375 C 7.660156 -45.285156 8.265625 -45.421875 9.015625 -45.515625 C 9.773438 -45.609375 10.738281 -45.65625 11.90625 -45.65625 C 13.070312 -45.65625 14.03125 -45.609375 14.78125 -45.515625 C 15.539062 -45.421875 16.148438 -45.285156 16.609375 -45.109375 C 17.066406 -44.941406 17.390625 -44.738281 17.578125 -44.5 C 17.765625 -44.257812 17.859375 -43.984375 17.859375 -43.671875 Z M 18.765625 -58.046875 C 18.765625 -55.648438 18.273438 -53.992188 17.296875 -53.078125 C 16.316406 -52.160156 14.503906 -51.703125 11.859375 -51.703125 C 9.179688 -51.703125 7.378906 -52.144531 6.453125 -53.03125 C 5.523438 -53.914062 5.0625 -55.503906 5.0625 -57.796875 C 5.0625 -60.191406 5.539062 -61.851562 6.5 -62.78125 C 7.457031 -63.71875 9.273438 -64.1875 11.953125 -64.1875 C 14.597656 -64.1875 16.394531 -63.734375 17.34375 -62.828125 C 18.289062 -61.929688 18.765625 -60.335938 18.765625 -58.046875 Z M 18.765625 -58.046875 "/></g></g></g><g fill="#1298ff" fill-opacity="1"><g transform="translate(110.957805, 102.599144)"><g><path d="M 73.015625 -1.609375 C 73.015625 -1.296875 72.921875 -1.019531 72.734375 -0.78125 C 72.546875 -0.539062 72.226562 -0.34375 71.78125 -0.1875 C 71.34375 -0.03125 70.742188 0.0820312 69.984375 0.15625 C 69.234375 0.238281 68.273438 0.28125 67.109375 0.28125 C 65.910156 0.28125 64.929688 0.238281 64.171875 0.15625 C 63.421875 0.0820312 62.816406 -0.03125 62.359375 -0.1875 C 61.898438 -0.34375 61.582031 -0.539062 61.40625 -0.78125 C 61.238281 -1.019531 61.15625 -1.296875 61.15625 -1.609375 L 61.15625 -26.609375 C 61.15625 -28.023438 61.019531 -29.316406 60.75 -30.484375 C 60.488281 -31.648438 60.082031 -32.648438 59.53125 -33.484375 C 58.976562 -34.316406 58.285156 -34.960938 57.453125 -35.421875 C 56.617188 -35.878906 55.617188 -36.109375 54.453125 -36.109375 C 53.035156 -36.109375 51.597656 -35.554688 50.140625 -34.453125 C 48.691406 -33.347656 47.117188 -31.742188 45.421875 -29.640625 L 45.421875 -1.609375 C 45.421875 -1.296875 45.328125 -1.019531 45.140625 -0.78125 C 44.953125 -0.539062 44.628906 -0.34375 44.171875 -0.1875 C 43.710938 -0.03125 43.101562 0.0820312 42.34375 0.15625 C 41.59375 0.238281 40.648438 0.28125 39.515625 0.28125 C 38.347656 0.28125 37.382812 0.238281 36.625 0.15625 C 35.875 0.0820312 35.269531 -0.03125 34.8125 -0.1875 C 34.351562 -0.34375 34.03125 -0.539062 33.84375 -0.78125 C 33.65625 -1.019531 33.5625 -1.296875 33.5625 -1.609375 L 33.5625 -26.609375 C 33.5625 -28.023438 33.425781 -29.316406 33.15625 -30.484375 C 32.882812 -31.648438 32.476562 -32.648438 31.9375 -33.484375 C 31.40625 -34.316406 30.710938 -34.960938 29.859375 -35.421875 C 29.015625 -35.878906 28.023438 -36.109375 26.890625 -36.109375 C 25.441406 -36.109375 23.992188 -35.554688 22.546875 -34.453125 C 21.097656 -33.347656 19.535156 -31.742188 17.859375 -29.640625 L 17.859375 -1.609375 C 17.859375 -1.296875 17.765625 -1.019531 17.578125 -0.78125 C 17.390625 -0.539062 17.066406 -0.34375 16.609375 -0.1875 C 16.148438 -0.03125 15.539062 0.0820312 14.78125 0.15625 C 14.03125 0.238281 13.070312 0.28125 11.90625 0.28125 C 10.738281 0.28125 9.773438 0.238281 9.015625 0.15625 C 8.265625 0.0820312 7.660156 -0.03125 7.203125 -0.1875 C 6.742188 -0.34375 6.421875 -0.539062 6.234375 -0.78125 C 6.046875 -1.019531 5.953125 -1.296875 5.953125 -1.609375 L 5.953125 -43.765625 C 5.953125 -44.078125 6.03125 -44.351562 6.1875 -44.59375 C 6.34375 -44.832031 6.625 -45.03125 7.03125 -45.1875 C 7.445312 -45.34375 7.976562 -45.457031 8.625 -45.53125 C 9.269531 -45.613281 10.082031 -45.65625 11.0625 -45.65625 C 12.070312 -45.65625 12.90625 -45.613281 13.5625 -45.53125 C 14.226562 -45.457031 14.738281 -45.34375 15.09375 -45.1875 C 15.457031 -45.03125 15.71875 -44.832031 15.875 -44.59375 C 16.03125 -44.351562 16.109375 -44.078125 16.109375 -43.765625 L 16.109375 -38.890625 C 18.441406 -41.410156 20.765625 -43.300781 23.078125 -44.5625 C 25.398438 -45.820312 27.820312 -46.453125 30.34375 -46.453125 C 32.070312 -46.453125 33.628906 -46.269531 35.015625 -45.90625 C 36.410156 -45.550781 37.648438 -45.035156 38.734375 -44.359375 C 39.816406 -43.679688 40.753906 -42.867188 41.546875 -41.921875 C 42.335938 -40.972656 43 -39.914062 43.53125 -38.75 C 44.789062 -40.101562 46.023438 -41.269531 47.234375 -42.25 C 48.453125 -43.226562 49.648438 -44.023438 50.828125 -44.640625 C 52.015625 -45.253906 53.195312 -45.707031 54.375 -46 C 55.5625 -46.300781 56.769531 -46.453125 58 -46.453125 C 60.800781 -46.453125 63.160156 -45.976562 65.078125 -45.03125 C 67.003906 -44.09375 68.554688 -42.8125 69.734375 -41.1875 C 70.921875 -39.5625 71.765625 -37.660156 72.265625 -35.484375 C 72.765625 -33.316406 73.015625 -31.019531 73.015625 -28.59375 Z M 73.015625 -1.609375 "/></g></g></g><g fill="#1298ff" fill-opacity="1"><g transform="translate(189.68982, 102.599144)"><g><path d="M 44.90625 -23.921875 C 44.90625 -22.460938 44.582031 -21.382812 43.9375 -20.6875 C 43.289062 -20 42.398438 -19.65625 41.265625 -19.65625 L 15.59375 -19.65625 C 15.59375 -17.863281 15.804688 -16.234375 16.234375 -14.765625 C 16.660156 -13.304688 17.335938 -12.0625 18.265625 -11.03125 C 19.191406 -10.007812 20.390625 -9.226562 21.859375 -8.6875 C 23.328125 -8.15625 25.082031 -7.890625 27.125 -7.890625 C 29.207031 -7.890625 31.035156 -8.039062 32.609375 -8.34375 C 34.179688 -8.644531 35.539062 -8.972656 36.6875 -9.328125 C 37.84375 -9.691406 38.796875 -10.023438 39.546875 -10.328125 C 40.304688 -10.628906 40.925781 -10.78125 41.40625 -10.78125 C 41.6875 -10.78125 41.921875 -10.722656 42.109375 -10.609375 C 42.296875 -10.503906 42.453125 -10.304688 42.578125 -10.015625 C 42.710938 -9.734375 42.800781 -9.332031 42.84375 -8.8125 C 42.894531 -8.289062 42.921875 -7.640625 42.921875 -6.859375 C 42.921875 -6.160156 42.90625 -5.566406 42.875 -5.078125 C 42.84375 -4.585938 42.789062 -4.171875 42.71875 -3.828125 C 42.65625 -3.484375 42.5625 -3.191406 42.4375 -2.953125 C 42.3125 -2.710938 42.144531 -2.484375 41.9375 -2.265625 C 41.738281 -2.046875 41.179688 -1.742188 40.265625 -1.359375 C 39.347656 -0.984375 38.179688 -0.613281 36.765625 -0.25 C 35.347656 0.101562 33.722656 0.414062 31.890625 0.6875 C 30.066406 0.957031 28.117188 1.09375 26.046875 1.09375 C 22.296875 1.09375 19.007812 0.617188 16.1875 -0.328125 C 13.363281 -1.273438 11.003906 -2.707031 9.109375 -4.625 C 7.222656 -6.550781 5.816406 -8.976562 4.890625 -11.90625 C 3.960938 -14.84375 3.5 -18.28125 3.5 -22.21875 C 3.5 -25.96875 3.984375 -29.34375 4.953125 -32.34375 C 5.929688 -35.351562 7.347656 -37.90625 9.203125 -40 C 11.066406 -42.101562 13.332031 -43.703125 16 -44.796875 C 18.664062 -45.898438 21.664062 -46.453125 25 -46.453125 C 28.53125 -46.453125 31.546875 -45.929688 34.046875 -44.890625 C 36.554688 -43.859375 38.613281 -42.421875 40.21875 -40.578125 C 41.820312 -38.734375 43.003906 -36.550781 43.765625 -34.03125 C 44.523438 -31.507812 44.90625 -28.769531 44.90625 -25.8125 Z M 33.375 -27.3125 C 33.46875 -30.65625 32.796875 -33.28125 31.359375 -35.1875 C 29.921875 -37.09375 27.707031 -38.046875 24.71875 -38.046875 C 23.207031 -38.046875 21.890625 -37.757812 20.765625 -37.1875 C 19.648438 -36.625 18.722656 -35.863281 17.984375 -34.90625 C 17.242188 -33.945312 16.675781 -32.8125 16.28125 -31.5 C 15.882812 -30.195312 15.65625 -28.800781 15.59375 -27.3125 Z M 33.375 -27.3125 "/></g></g></g></g></g></svg>