<svg xmlns="http://www.w3.org/2000/svg" xmlns:xlink="http://www.w3.org/1999/xlink" width="500" zoomAndPan="magnify" viewBox="0 0 375 374.999991" height="500" preserveAspectRatio="xMidYMid meet" version="1.0"><defs><g/><clipPath id="75ae229f82"><path d="M 94 0 L 256 0 L 256 135 L 94 135 Z M 94 0 " clip-rule="nonzero"/></clipPath><clipPath id="c467ed893c"><path d="M 256.667969 76.375 L 136.457031 136.148438 L 92.710938 48.175781 L 212.921875 -11.601562 Z M 256.667969 76.375 " clip-rule="nonzero"/></clipPath><clipPath id="56de11c009"><path d="M 8 32 L 161 32 L 161 84 L 8 84 Z M 8 32 " clip-rule="nonzero"/></clipPath><clipPath id="7649f0fc0f"><path d="M 162.667969 76.375 L 42.457031 136.148438 L -1.289062 48.175781 L 118.921875 -11.601562 Z M 162.667969 76.375 " clip-rule="nonzero"/></clipPath><clipPath id="6127ed6623"><path d="M 118.964844 -11.515625 L -1.246094 48.257812 L 42.5 136.230469 L 162.707031 76.457031 Z M 118.964844 -11.515625 " clip-rule="nonzero"/></clipPath><clipPath id="db9f4b9e73"><rect x="0" width="162" y="0" height="135"/></clipPath><clipPath id="962f255bb1"><rect x="0" width="231" y="0" height="81"/></clipPath><clipPath id="92595f2646"><rect x="0" width="52" y="0" height="52"/></clipPath><clipPath id="3a7b58cead"><rect x="0" width="232" y="0" height="97"/></clipPath><clipPath id="7f08d488d7"><rect x="0" width="181" y="0" height="81"/></clipPath><clipPath id="ad4f5136b0"><path d="M 107 238 L 270 238 L 270 375 L 107 375 Z M 107 238 " clip-rule="nonzero"/></clipPath><clipPath id="29bc1fa049"><path d="M 106.070312 299.894531 L 224.535156 236.734375 L 270.757812 323.429688 L 152.292969 386.589844 Z M 106.070312 299.894531 " clip-rule="nonzero"/></clipPath><clipPath id="e1259f556b"><path d="M 1 51 L 154 51 L 154 102 L 1 102 Z M 1 51 " clip-rule="nonzero"/></clipPath><clipPath id="1d414b1c3c"><path d="M -0.929688 61.894531 L 117.535156 -1.265625 L 163.757812 85.429688 L 45.292969 148.589844 Z M -0.929688 61.894531 " clip-rule="nonzero"/></clipPath><clipPath id="dc9563d75d"><path d="M 45.246094 148.507812 L 163.714844 85.347656 L 117.488281 -1.347656 L -0.976562 61.808594 Z M 45.246094 148.507812 " clip-rule="nonzero"/></clipPath><clipPath id="5c65d0d348"><rect x="0" width="163" y="0" height="137"/></clipPath><clipPath id="769b20ccbc"><rect x="0" width="234" y="0" height="130"/></clipPath></defs><g clip-path="url(#75ae229f82)"><g clip-path="url(#c467ed893c)"><g transform="matrix(1, 0, 0, 1, 94, 0)"><g clip-path="url(#db9f4b9e73)"><g clip-path="url(#56de11c009)"><g clip-path="url(#7649f0fc0f)"><g clip-path="url(#6127ed6623)"><path fill="#1298ff" d="M 9.652344 58 C 10.75 55.085938 14.402344 49.390625 17.121094 45.558594 C 20.40625 40.925781 24.851562 35.257812 30.21875 33.117188 C 32.125 32.355469 34.644531 34.121094 34.117188 36.273438 C 32.792969 41.683594 28.433594 46.761719 25.210938 51.320312 C 69.535156 34.902344 123.9375 40.121094 159.492188 72.621094 C 161.660156 74.605469 159.339844 78.023438 156.765625 76.382812 C 118.640625 52.121094 70.097656 44.875 28.554688 63.089844 C 29.894531 63.851562 31.234375 64.621094 32.578125 65.378906 C 38.011719 68.449219 43.828125 71.0625 48.007812 75.800781 C 50.785156 78.941406 47.664062 84.183594 43.644531 83.625 C 37.703125 82.808594 32.59375 79.472656 27.359375 76.726562 C 22.050781 73.9375 16.660156 71.269531 11.457031 68.289062 C 7.816406 66.210938 8.550781 60.914062 9.652344 58 Z M 9.652344 58 " fill-opacity="1" fill-rule="nonzero"/></g></g></g></g></g></g></g><g transform="matrix(1, 0, 0, 1, 67, 132)"><g clip-path="url(#962f255bb1)"><g fill="#1298ff" fill-opacity="1"><g transform="translate(1.085227, 62.593783)"><g><path d="M 44.0625 -0.96875 C 44.0625 -0.78125 44.003906 -0.613281 43.890625 -0.46875 C 43.773438 -0.320312 43.582031 -0.203125 43.3125 -0.109375 C 43.050781 -0.015625 42.691406 0.0507812 42.234375 0.09375 C 41.773438 0.144531 41.195312 0.171875 40.5 0.171875 C 39.769531 0.171875 39.175781 0.144531 38.71875 0.09375 C 38.269531 0.0507812 37.90625 -0.015625 37.625 -0.109375 C 37.351562 -0.203125 37.164062 -0.320312 37.0625 -0.46875 C 36.957031 -0.613281 36.90625 -0.78125 36.90625 -0.96875 L 36.90625 -16.0625 C 36.90625 -16.914062 36.820312 -17.691406 36.65625 -18.390625 C 36.5 -19.097656 36.253906 -19.703125 35.921875 -20.203125 C 35.585938 -20.710938 35.164062 -21.101562 34.65625 -21.375 C 34.15625 -21.644531 33.554688 -21.78125 32.859375 -21.78125 C 31.992188 -21.78125 31.125 -21.445312 30.25 -20.78125 C 29.382812 -20.125 28.4375 -19.15625 27.40625 -17.875 L 27.40625 -0.96875 C 27.40625 -0.78125 27.347656 -0.613281 27.234375 -0.46875 C 27.117188 -0.320312 26.921875 -0.203125 26.640625 -0.109375 C 26.367188 -0.015625 26.003906 0.0507812 25.546875 0.09375 C 25.097656 0.144531 24.53125 0.171875 23.84375 0.171875 C 23.132812 0.171875 22.550781 0.144531 22.09375 0.09375 C 21.644531 0.0507812 21.28125 -0.015625 21 -0.109375 C 20.726562 -0.203125 20.535156 -0.320312 20.421875 -0.46875 C 20.304688 -0.613281 20.25 -0.78125 20.25 -0.96875 L 20.25 -16.0625 C 20.25 -16.914062 20.164062 -17.691406 20 -18.390625 C 19.84375 -19.097656 19.601562 -19.703125 19.28125 -20.203125 C 18.957031 -20.710938 18.535156 -21.101562 18.015625 -21.375 C 17.503906 -21.644531 16.910156 -21.78125 16.234375 -21.78125 C 15.359375 -21.78125 14.484375 -21.445312 13.609375 -20.78125 C 12.734375 -20.125 11.789062 -19.15625 10.78125 -17.875 L 10.78125 -0.96875 C 10.78125 -0.78125 10.722656 -0.613281 10.609375 -0.46875 C 10.492188 -0.320312 10.296875 -0.203125 10.015625 -0.109375 C 9.742188 -0.015625 9.378906 0.0507812 8.921875 0.09375 C 8.460938 0.144531 7.882812 0.171875 7.1875 0.171875 C 6.476562 0.171875 5.894531 0.144531 5.4375 0.09375 C 4.988281 0.0507812 4.625 -0.015625 4.34375 -0.109375 C 4.070312 -0.203125 3.878906 -0.320312 3.765625 -0.46875 C 3.648438 -0.613281 3.59375 -0.78125 3.59375 -0.96875 L 3.59375 -26.40625 C 3.59375 -26.59375 3.640625 -26.757812 3.734375 -26.90625 C 3.828125 -27.050781 4 -27.171875 4.25 -27.265625 C 4.5 -27.359375 4.816406 -27.425781 5.203125 -27.46875 C 5.597656 -27.519531 6.085938 -27.546875 6.671875 -27.546875 C 7.285156 -27.546875 7.789062 -27.519531 8.1875 -27.46875 C 8.582031 -27.425781 8.890625 -27.359375 9.109375 -27.265625 C 9.328125 -27.171875 9.484375 -27.050781 9.578125 -26.90625 C 9.671875 -26.757812 9.71875 -26.59375 9.71875 -26.40625 L 9.71875 -23.46875 C 11.125 -24.988281 12.523438 -26.128906 13.921875 -26.890625 C 15.328125 -27.648438 16.789062 -28.03125 18.3125 -28.03125 C 19.351562 -28.03125 20.289062 -27.921875 21.125 -27.703125 C 21.96875 -27.484375 22.71875 -27.171875 23.375 -26.765625 C 24.03125 -26.359375 24.59375 -25.867188 25.0625 -25.296875 C 25.539062 -24.722656 25.941406 -24.085938 26.265625 -23.390625 C 27.023438 -24.203125 27.769531 -24.898438 28.5 -25.484375 C 29.238281 -26.078125 29.960938 -26.554688 30.671875 -26.921875 C 31.378906 -27.296875 32.085938 -27.570312 32.796875 -27.75 C 33.515625 -27.9375 34.25 -28.03125 35 -28.03125 C 36.6875 -28.03125 38.109375 -27.742188 39.265625 -27.171875 C 40.429688 -26.609375 41.367188 -25.835938 42.078125 -24.859375 C 42.796875 -23.878906 43.304688 -22.734375 43.609375 -21.421875 C 43.910156 -20.109375 44.0625 -18.71875 44.0625 -17.25 Z M 44.0625 -0.96875 "/></g></g></g><g fill="#1298ff" fill-opacity="1"><g transform="translate(48.594716, 62.593783)"><g><path d="M 27.09375 -14.4375 C 27.09375 -13.5625 26.894531 -12.910156 26.5 -12.484375 C 26.113281 -12.066406 25.578125 -11.859375 24.890625 -11.859375 L 9.40625 -11.859375 C 9.40625 -10.773438 9.535156 -9.789062 9.796875 -8.90625 C 10.054688 -8.03125 10.460938 -7.28125 11.015625 -6.65625 C 11.578125 -6.039062 12.300781 -5.570312 13.1875 -5.25 C 14.070312 -4.925781 15.132812 -4.765625 16.375 -4.765625 C 17.625 -4.765625 18.722656 -4.851562 19.671875 -5.03125 C 20.628906 -5.207031 21.453125 -5.40625 22.140625 -5.625 C 22.835938 -5.84375 23.410156 -6.039062 23.859375 -6.21875 C 24.316406 -6.40625 24.691406 -6.5 24.984375 -6.5 C 25.148438 -6.5 25.289062 -6.460938 25.40625 -6.390625 C 25.519531 -6.328125 25.613281 -6.210938 25.6875 -6.046875 C 25.769531 -5.878906 25.820312 -5.632812 25.84375 -5.3125 C 25.875 -5 25.890625 -4.609375 25.890625 -4.140625 C 25.890625 -3.710938 25.878906 -3.351562 25.859375 -3.0625 C 25.847656 -2.769531 25.820312 -2.519531 25.78125 -2.3125 C 25.738281 -2.101562 25.679688 -1.925781 25.609375 -1.78125 C 25.535156 -1.632812 25.4375 -1.492188 25.3125 -1.359375 C 25.1875 -1.234375 24.847656 -1.054688 24.296875 -0.828125 C 23.742188 -0.597656 23.039062 -0.375 22.1875 -0.15625 C 21.332031 0.0625 20.351562 0.25 19.25 0.40625 C 18.144531 0.570312 16.96875 0.65625 15.71875 0.65625 C 13.445312 0.65625 11.460938 0.367188 9.765625 -0.203125 C 8.066406 -0.773438 6.644531 -1.640625 5.5 -2.796875 C 4.363281 -3.953125 3.515625 -5.414062 2.953125 -7.1875 C 2.390625 -8.957031 2.109375 -11.03125 2.109375 -13.40625 C 2.109375 -15.664062 2.398438 -17.703125 2.984375 -19.515625 C 3.578125 -21.335938 4.4375 -22.878906 5.5625 -24.140625 C 6.6875 -25.398438 8.050781 -26.363281 9.65625 -27.03125 C 11.257812 -27.695312 13.070312 -28.03125 15.09375 -28.03125 C 17.21875 -28.03125 19.035156 -27.71875 20.546875 -27.09375 C 22.054688 -26.46875 23.296875 -25.597656 24.265625 -24.484375 C 25.234375 -23.367188 25.945312 -22.050781 26.40625 -20.53125 C 26.863281 -19.007812 27.09375 -17.359375 27.09375 -15.578125 Z M 20.140625 -16.484375 C 20.191406 -18.492188 19.785156 -20.070312 18.921875 -21.21875 C 18.054688 -22.375 16.722656 -22.953125 14.921875 -22.953125 C 14.003906 -22.953125 13.207031 -22.78125 12.53125 -22.4375 C 11.851562 -22.101562 11.289062 -21.644531 10.84375 -21.0625 C 10.40625 -20.476562 10.066406 -19.789062 9.828125 -19 C 9.585938 -18.21875 9.445312 -17.378906 9.40625 -16.484375 Z M 20.140625 -16.484375 "/></g></g></g><g fill="#1298ff" fill-opacity="1"><g transform="translate(77.995846, 62.593783)"><g><path d="M 44.0625 -0.96875 C 44.0625 -0.78125 44.003906 -0.613281 43.890625 -0.46875 C 43.773438 -0.320312 43.582031 -0.203125 43.3125 -0.109375 C 43.050781 -0.015625 42.691406 0.0507812 42.234375 0.09375 C 41.773438 0.144531 41.195312 0.171875 40.5 0.171875 C 39.769531 0.171875 39.175781 0.144531 38.71875 0.09375 C 38.269531 0.0507812 37.90625 -0.015625 37.625 -0.109375 C 37.351562 -0.203125 37.164062 -0.320312 37.0625 -0.46875 C 36.957031 -0.613281 36.90625 -0.78125 36.90625 -0.96875 L 36.90625 -16.0625 C 36.90625 -16.914062 36.820312 -17.691406 36.65625 -18.390625 C 36.5 -19.097656 36.253906 -19.703125 35.921875 -20.203125 C 35.585938 -20.710938 35.164062 -21.101562 34.65625 -21.375 C 34.15625 -21.644531 33.554688 -21.78125 32.859375 -21.78125 C 31.992188 -21.78125 31.125 -21.445312 30.25 -20.78125 C 29.382812 -20.125 28.4375 -19.15625 27.40625 -17.875 L 27.40625 -0.96875 C 27.40625 -0.78125 27.347656 -0.613281 27.234375 -0.46875 C 27.117188 -0.320312 26.921875 -0.203125 26.640625 -0.109375 C 26.367188 -0.015625 26.003906 0.0507812 25.546875 0.09375 C 25.097656 0.144531 24.53125 0.171875 23.84375 0.171875 C 23.132812 0.171875 22.550781 0.144531 22.09375 0.09375 C 21.644531 0.0507812 21.28125 -0.015625 21 -0.109375 C 20.726562 -0.203125 20.535156 -0.320312 20.421875 -0.46875 C 20.304688 -0.613281 20.25 -0.78125 20.25 -0.96875 L 20.25 -16.0625 C 20.25 -16.914062 20.164062 -17.691406 20 -18.390625 C 19.84375 -19.097656 19.601562 -19.703125 19.28125 -20.203125 C 18.957031 -20.710938 18.535156 -21.101562 18.015625 -21.375 C 17.503906 -21.644531 16.910156 -21.78125 16.234375 -21.78125 C 15.359375 -21.78125 14.484375 -21.445312 13.609375 -20.78125 C 12.734375 -20.125 11.789062 -19.15625 10.78125 -17.875 L 10.78125 -0.96875 C 10.78125 -0.78125 10.722656 -0.613281 10.609375 -0.46875 C 10.492188 -0.320312 10.296875 -0.203125 10.015625 -0.109375 C 9.742188 -0.015625 9.378906 0.0507812 8.921875 0.09375 C 8.460938 0.144531 7.882812 0.171875 7.1875 0.171875 C 6.476562 0.171875 5.894531 0.144531 5.4375 0.09375 C 4.988281 0.0507812 4.625 -0.015625 4.34375 -0.109375 C 4.070312 -0.203125 3.878906 -0.320312 3.765625 -0.46875 C 3.648438 -0.613281 3.59375 -0.78125 3.59375 -0.96875 L 3.59375 -26.40625 C 3.59375 -26.59375 3.640625 -26.757812 3.734375 -26.90625 C 3.828125 -27.050781 4 -27.171875 4.25 -27.265625 C 4.5 -27.359375 4.816406 -27.425781 5.203125 -27.46875 C 5.597656 -27.519531 6.085938 -27.546875 6.671875 -27.546875 C 7.285156 -27.546875 7.789062 -27.519531 8.1875 -27.46875 C 8.582031 -27.425781 8.890625 -27.359375 9.109375 -27.265625 C 9.328125 -27.171875 9.484375 -27.050781 9.578125 -26.90625 C 9.671875 -26.757812 9.71875 -26.59375 9.71875 -26.40625 L 9.71875 -23.46875 C 11.125 -24.988281 12.523438 -26.128906 13.921875 -26.890625 C 15.328125 -27.648438 16.789062 -28.03125 18.3125 -28.03125 C 19.351562 -28.03125 20.289062 -27.921875 21.125 -27.703125 C 21.96875 -27.484375 22.71875 -27.171875 23.375 -26.765625 C 24.03125 -26.359375 24.59375 -25.867188 25.0625 -25.296875 C 25.539062 -24.722656 25.941406 -24.085938 26.265625 -23.390625 C 27.023438 -24.203125 27.769531 -24.898438 28.5 -25.484375 C 29.238281 -26.078125 29.960938 -26.554688 30.671875 -26.921875 C 31.378906 -27.296875 32.085938 -27.570312 32.796875 -27.75 C 33.515625 -27.9375 34.25 -28.03125 35 -28.03125 C 36.6875 -28.03125 38.109375 -27.742188 39.265625 -27.171875 C 40.429688 -26.609375 41.367188 -25.835938 42.078125 -24.859375 C 42.796875 -23.878906 43.304688 -22.734375 43.609375 -21.421875 C 43.910156 -20.109375 44.0625 -18.71875 44.0625 -17.25 Z M 44.0625 -0.96875 "/></g></g></g><g fill="#1298ff" fill-opacity="1"><g transform="translate(125.505335, 62.593783)"><g><path d="M 29.203125 -14.03125 C 29.203125 -11.769531 28.953125 -9.734375 28.453125 -7.921875 C 27.960938 -6.117188 27.25 -4.578125 26.3125 -3.296875 C 25.382812 -2.023438 24.238281 -1.046875 22.875 -0.359375 C 21.519531 0.316406 19.976562 0.65625 18.25 0.65625 C 17.394531 0.65625 16.597656 0.570312 15.859375 0.40625 C 15.117188 0.25 14.410156 -0.00390625 13.734375 -0.359375 C 13.054688 -0.722656 12.390625 -1.179688 11.734375 -1.734375 C 11.078125 -2.285156 10.40625 -2.953125 9.71875 -3.734375 L 9.71875 -0.96875 C 9.71875 -0.757812 9.664062 -0.582031 9.5625 -0.4375 C 9.457031 -0.300781 9.285156 -0.179688 9.046875 -0.078125 C 8.816406 0.015625 8.5 0.078125 8.09375 0.109375 C 7.695312 0.148438 7.210938 0.171875 6.640625 0.171875 C 6.054688 0.171875 5.566406 0.148438 5.171875 0.109375 C 4.785156 0.078125 4.472656 0.015625 4.234375 -0.078125 C 3.992188 -0.179688 3.828125 -0.300781 3.734375 -0.4375 C 3.640625 -0.582031 3.59375 -0.757812 3.59375 -0.96875 L 3.59375 -38.46875 C 3.59375 -38.65625 3.648438 -38.828125 3.765625 -38.984375 C 3.878906 -39.140625 4.070312 -39.269531 4.34375 -39.375 C 4.625 -39.476562 4.988281 -39.554688 5.4375 -39.609375 C 5.894531 -39.671875 6.476562 -39.703125 7.1875 -39.703125 C 7.882812 -39.703125 8.460938 -39.671875 8.921875 -39.609375 C 9.378906 -39.554688 9.742188 -39.476562 10.015625 -39.375 C 10.296875 -39.269531 10.492188 -39.140625 10.609375 -38.984375 C 10.722656 -38.828125 10.78125 -38.65625 10.78125 -38.46875 L 10.78125 -24.40625 C 11.425781 -25.050781 12.070312 -25.601562 12.71875 -26.0625 C 13.363281 -26.519531 14.007812 -26.894531 14.65625 -27.1875 C 15.300781 -27.488281 15.96875 -27.703125 16.65625 -27.828125 C 17.34375 -27.960938 18.066406 -28.03125 18.828125 -28.03125 C 20.703125 -28.03125 22.296875 -27.65625 23.609375 -26.90625 C 24.921875 -26.15625 25.988281 -25.140625 26.8125 -23.859375 C 27.644531 -22.585938 28.25 -21.101562 28.625 -19.40625 C 29.007812 -17.707031 29.203125 -15.914062 29.203125 -14.03125 Z M 21.765625 -13.515625 C 21.765625 -14.597656 21.679688 -15.644531 21.515625 -16.65625 C 21.359375 -17.664062 21.078125 -18.554688 20.671875 -19.328125 C 20.273438 -20.109375 19.757812 -20.734375 19.125 -21.203125 C 18.488281 -21.671875 17.6875 -21.90625 16.71875 -21.90625 C 16.238281 -21.90625 15.769531 -21.835938 15.3125 -21.703125 C 14.851562 -21.566406 14.378906 -21.335938 13.890625 -21.015625 C 13.410156 -20.691406 12.914062 -20.273438 12.40625 -19.765625 C 11.894531 -19.253906 11.351562 -18.617188 10.78125 -17.859375 L 10.78125 -9.40625 C 11.789062 -8.113281 12.753906 -7.128906 13.671875 -6.453125 C 14.597656 -5.785156 15.5625 -5.453125 16.5625 -5.453125 C 17.5 -5.453125 18.289062 -5.6875 18.9375 -6.15625 C 19.582031 -6.632812 20.117188 -7.253906 20.546875 -8.015625 C 20.972656 -8.773438 21.28125 -9.640625 21.46875 -10.609375 C 21.664062 -11.578125 21.765625 -12.546875 21.765625 -13.515625 Z M 21.765625 -13.515625 "/></g></g></g><g fill="#1298ff" fill-opacity="1"><g transform="translate(156.845628, 62.593783)"><g><path d="M 27.09375 -14.4375 C 27.09375 -13.5625 26.894531 -12.910156 26.5 -12.484375 C 26.113281 -12.066406 25.578125 -11.859375 24.890625 -11.859375 L 9.40625 -11.859375 C 9.40625 -10.773438 9.535156 -9.789062 9.796875 -8.90625 C 10.054688 -8.03125 10.460938 -7.28125 11.015625 -6.65625 C 11.578125 -6.039062 12.300781 -5.570312 13.1875 -5.25 C 14.070312 -4.925781 15.132812 -4.765625 16.375 -4.765625 C 17.625 -4.765625 18.722656 -4.851562 19.671875 -5.03125 C 20.628906 -5.207031 21.453125 -5.40625 22.140625 -5.625 C 22.835938 -5.84375 23.410156 -6.039062 23.859375 -6.21875 C 24.316406 -6.40625 24.691406 -6.5 24.984375 -6.5 C 25.148438 -6.5 25.289062 -6.460938 25.40625 -6.390625 C 25.519531 -6.328125 25.613281 -6.210938 25.6875 -6.046875 C 25.769531 -5.878906 25.820312 -5.632812 25.84375 -5.3125 C 25.875 -5 25.890625 -4.609375 25.890625 -4.140625 C 25.890625 -3.710938 25.878906 -3.351562 25.859375 -3.0625 C 25.847656 -2.769531 25.820312 -2.519531 25.78125 -2.3125 C 25.738281 -2.101562 25.679688 -1.925781 25.609375 -1.78125 C 25.535156 -1.632812 25.4375 -1.492188 25.3125 -1.359375 C 25.1875 -1.234375 24.847656 -1.054688 24.296875 -0.828125 C 23.742188 -0.597656 23.039062 -0.375 22.1875 -0.15625 C 21.332031 0.0625 20.351562 0.25 19.25 0.40625 C 18.144531 0.570312 16.96875 0.65625 15.71875 0.65625 C 13.445312 0.65625 11.460938 0.367188 9.765625 -0.203125 C 8.066406 -0.773438 6.644531 -1.640625 5.5 -2.796875 C 4.363281 -3.953125 3.515625 -5.414062 2.953125 -7.1875 C 2.390625 -8.957031 2.109375 -11.03125 2.109375 -13.40625 C 2.109375 -15.664062 2.398438 -17.703125 2.984375 -19.515625 C 3.578125 -21.335938 4.4375 -22.878906 5.5625 -24.140625 C 6.6875 -25.398438 8.050781 -26.363281 9.65625 -27.03125 C 11.257812 -27.695312 13.070312 -28.03125 15.09375 -28.03125 C 17.21875 -28.03125 19.035156 -27.71875 20.546875 -27.09375 C 22.054688 -26.46875 23.296875 -25.597656 24.265625 -24.484375 C 25.234375 -23.367188 25.945312 -22.050781 26.40625 -20.53125 C 26.863281 -19.007812 27.09375 -17.359375 27.09375 -15.578125 Z M 20.140625 -16.484375 C 20.191406 -18.492188 19.785156 -20.070312 18.921875 -21.21875 C 18.054688 -22.375 16.722656 -22.953125 14.921875 -22.953125 C 14.003906 -22.953125 13.207031 -22.78125 12.53125 -22.4375 C 11.851562 -22.101562 11.289062 -21.644531 10.84375 -21.0625 C 10.40625 -20.476562 10.066406 -19.789062 9.828125 -19 C 9.585938 -18.21875 9.445312 -17.378906 9.40625 -16.484375 Z M 20.140625 -16.484375 "/></g></g></g><g fill="#1298ff" fill-opacity="1"><g transform="translate(186.246758, 62.593783)"><g><path d="M 19.9375 -24.046875 C 19.9375 -23.359375 19.914062 -22.796875 19.875 -22.359375 C 19.84375 -21.921875 19.785156 -21.578125 19.703125 -21.328125 C 19.628906 -21.085938 19.53125 -20.914062 19.40625 -20.8125 C 19.28125 -20.71875 19.125 -20.671875 18.9375 -20.671875 C 18.78125 -20.671875 18.609375 -20.703125 18.421875 -20.765625 C 18.234375 -20.835938 18.019531 -20.910156 17.78125 -20.984375 C 17.539062 -21.066406 17.273438 -21.140625 16.984375 -21.203125 C 16.703125 -21.265625 16.394531 -21.296875 16.0625 -21.296875 C 15.65625 -21.296875 15.253906 -21.210938 14.859375 -21.046875 C 14.460938 -20.890625 14.046875 -20.640625 13.609375 -20.296875 C 13.179688 -19.960938 12.734375 -19.507812 12.265625 -18.9375 C 11.804688 -18.363281 11.3125 -17.660156 10.78125 -16.828125 L 10.78125 -0.96875 C 10.78125 -0.78125 10.722656 -0.613281 10.609375 -0.46875 C 10.492188 -0.320312 10.296875 -0.203125 10.015625 -0.109375 C 9.742188 -0.015625 9.378906 0.0507812 8.921875 0.09375 C 8.460938 0.144531 7.882812 0.171875 7.1875 0.171875 C 6.476562 0.171875 5.894531 0.144531 5.4375 0.09375 C 4.988281 0.0507812 4.625 -0.015625 4.34375 -0.109375 C 4.070312 -0.203125 3.878906 -0.320312 3.765625 -0.46875 C 3.648438 -0.613281 3.59375 -0.78125 3.59375 -0.96875 L 3.59375 -26.40625 C 3.59375 -26.59375 3.640625 -26.757812 3.734375 -26.90625 C 3.828125 -27.050781 4 -27.171875 4.25 -27.265625 C 4.5 -27.359375 4.816406 -27.425781 5.203125 -27.46875 C 5.597656 -27.519531 6.085938 -27.546875 6.671875 -27.546875 C 7.285156 -27.546875 7.789062 -27.519531 8.1875 -27.46875 C 8.582031 -27.425781 8.890625 -27.359375 9.109375 -27.265625 C 9.328125 -27.171875 9.484375 -27.050781 9.578125 -26.90625 C 9.671875 -26.757812 9.71875 -26.59375 9.71875 -26.40625 L 9.71875 -23.25 C 10.382812 -24.195312 11.007812 -24.976562 11.59375 -25.59375 C 12.1875 -26.207031 12.75 -26.695312 13.28125 -27.0625 C 13.820312 -27.425781 14.359375 -27.675781 14.890625 -27.8125 C 15.421875 -27.957031 15.953125 -28.03125 16.484375 -28.03125 C 16.734375 -28.03125 17 -28.015625 17.28125 -27.984375 C 17.5625 -27.960938 17.851562 -27.914062 18.15625 -27.84375 C 18.46875 -27.78125 18.738281 -27.703125 18.96875 -27.609375 C 19.195312 -27.523438 19.363281 -27.4375 19.46875 -27.34375 C 19.570312 -27.25 19.644531 -27.144531 19.6875 -27.03125 C 19.738281 -26.914062 19.78125 -26.757812 19.8125 -26.5625 C 19.851562 -26.363281 19.882812 -26.0625 19.90625 -25.65625 C 19.925781 -25.257812 19.9375 -24.722656 19.9375 -24.046875 Z M 19.9375 -24.046875 "/></g></g></g><g fill="#1298ff" fill-opacity="1"><g transform="translate(207.007207, 62.593783)"><g><path d="M 21.5 -8.15625 C 21.5 -6.707031 21.226562 -5.429688 20.6875 -4.328125 C 20.144531 -3.234375 19.378906 -2.3125 18.390625 -1.5625 C 17.398438 -0.820312 16.226562 -0.269531 14.875 0.09375 C 13.53125 0.46875 12.070312 0.65625 10.5 0.65625 C 9.539062 0.65625 8.628906 0.582031 7.765625 0.4375 C 6.898438 0.300781 6.125 0.125 5.4375 -0.09375 C 4.757812 -0.3125 4.191406 -0.535156 3.734375 -0.765625 C 3.273438 -0.992188 2.941406 -1.207031 2.734375 -1.40625 C 2.523438 -1.613281 2.363281 -1.929688 2.25 -2.359375 C 2.132812 -2.785156 2.078125 -3.414062 2.078125 -4.25 C 2.078125 -4.800781 2.097656 -5.242188 2.140625 -5.578125 C 2.179688 -5.910156 2.238281 -6.175781 2.3125 -6.375 C 2.382812 -6.570312 2.476562 -6.703125 2.59375 -6.765625 C 2.707031 -6.835938 2.847656 -6.875 3.015625 -6.875 C 3.234375 -6.875 3.546875 -6.753906 3.953125 -6.515625 C 4.359375 -6.273438 4.863281 -6.007812 5.46875 -5.71875 C 6.082031 -5.4375 6.789062 -5.171875 7.59375 -4.921875 C 8.40625 -4.679688 9.328125 -4.5625 10.359375 -4.5625 C 11.003906 -4.5625 11.578125 -4.628906 12.078125 -4.765625 C 12.578125 -4.898438 13.015625 -5.085938 13.390625 -5.328125 C 13.765625 -5.578125 14.046875 -5.890625 14.234375 -6.265625 C 14.421875 -6.648438 14.515625 -7.09375 14.515625 -7.59375 C 14.515625 -8.15625 14.335938 -8.640625 13.984375 -9.046875 C 13.628906 -9.460938 13.160156 -9.820312 12.578125 -10.125 C 12.003906 -10.425781 11.351562 -10.707031 10.625 -10.96875 C 9.894531 -11.238281 9.144531 -11.535156 8.375 -11.859375 C 7.601562 -12.179688 6.847656 -12.550781 6.109375 -12.96875 C 5.378906 -13.394531 4.722656 -13.910156 4.140625 -14.515625 C 3.566406 -15.117188 3.101562 -15.847656 2.75 -16.703125 C 2.394531 -17.566406 2.21875 -18.597656 2.21875 -19.796875 C 2.21875 -21.003906 2.457031 -22.117188 2.9375 -23.140625 C 3.414062 -24.160156 4.097656 -25.03125 4.984375 -25.75 C 5.878906 -26.476562 6.96875 -27.039062 8.25 -27.4375 C 9.539062 -27.832031 10.984375 -28.03125 12.578125 -28.03125 C 13.378906 -28.03125 14.15625 -27.972656 14.90625 -27.859375 C 15.65625 -27.742188 16.332031 -27.597656 16.9375 -27.421875 C 17.550781 -27.253906 18.066406 -27.070312 18.484375 -26.875 C 18.898438 -26.675781 19.195312 -26.503906 19.375 -26.359375 C 19.5625 -26.222656 19.691406 -26.082031 19.765625 -25.9375 C 19.835938 -25.789062 19.890625 -25.617188 19.921875 -25.421875 C 19.960938 -25.222656 20 -24.972656 20.03125 -24.671875 C 20.0625 -24.378906 20.078125 -24.015625 20.078125 -23.578125 C 20.078125 -23.066406 20.0625 -22.648438 20.03125 -22.328125 C 20 -22.003906 19.953125 -21.75 19.890625 -21.5625 C 19.828125 -21.375 19.738281 -21.242188 19.625 -21.171875 C 19.507812 -21.109375 19.375 -21.078125 19.21875 -21.078125 C 19.050781 -21.078125 18.785156 -21.175781 18.421875 -21.375 C 18.054688 -21.570312 17.601562 -21.785156 17.0625 -22.015625 C 16.519531 -22.242188 15.890625 -22.457031 15.171875 -22.65625 C 14.460938 -22.851562 13.65625 -22.953125 12.75 -22.953125 C 12.101562 -22.953125 11.539062 -22.882812 11.0625 -22.75 C 10.59375 -22.625 10.203125 -22.4375 9.890625 -22.1875 C 9.585938 -21.9375 9.359375 -21.644531 9.203125 -21.3125 C 9.054688 -20.976562 8.984375 -20.625 8.984375 -20.25 C 8.984375 -19.65625 9.160156 -19.160156 9.515625 -18.765625 C 9.878906 -18.367188 10.351562 -18.015625 10.9375 -17.703125 C 11.53125 -17.398438 12.203125 -17.113281 12.953125 -16.84375 C 13.710938 -16.582031 14.472656 -16.296875 15.234375 -15.984375 C 16.003906 -15.671875 16.765625 -15.304688 17.515625 -14.890625 C 18.273438 -14.472656 18.945312 -13.957031 19.53125 -13.34375 C 20.125 -12.738281 20.597656 -12.007812 20.953125 -11.15625 C 21.316406 -10.3125 21.5 -9.3125 21.5 -8.15625 Z M 21.5 -8.15625 "/></g></g></g></g></g><g transform="matrix(1, 0, 0, 1, 68, 193)"><g clip-path="url(#92595f2646)"><g fill="#ffffff" fill-opacity="1"><g transform="translate(2.264454, 39.654076)"><g><path d="M 11.703125 -22.296875 C 11.703125 -21.960938 11.6875 -21.691406 11.65625 -21.484375 C 11.632812 -21.273438 11.597656 -21.113281 11.546875 -21 C 11.503906 -20.894531 11.453125 -20.820312 11.390625 -20.78125 C 11.335938 -20.738281 11.273438 -20.71875 11.203125 -20.71875 C 11.117188 -20.71875 11.023438 -20.738281 10.921875 -20.78125 C 10.828125 -20.820312 10.707031 -20.863281 10.5625 -20.90625 C 10.414062 -20.957031 10.238281 -21.003906 10.03125 -21.046875 C 9.832031 -21.085938 9.601562 -21.109375 9.34375 -21.109375 C 9.019531 -21.109375 8.742188 -21.054688 8.515625 -20.953125 C 8.285156 -20.859375 8.09375 -20.703125 7.9375 -20.484375 C 7.789062 -20.265625 7.679688 -19.976562 7.609375 -19.625 C 7.535156 -19.28125 7.5 -18.859375 7.5 -18.359375 L 7.5 -16.90625 L 10.375 -16.90625 C 10.476562 -16.90625 10.570312 -16.875 10.65625 -16.8125 C 10.75 -16.757812 10.820312 -16.664062 10.875 -16.53125 C 10.9375 -16.394531 10.984375 -16.207031 11.015625 -15.96875 C 11.046875 -15.738281 11.0625 -15.453125 11.0625 -15.109375 C 11.0625 -14.460938 11 -14 10.875 -13.71875 C 10.757812 -13.445312 10.59375 -13.3125 10.375 -13.3125 L 7.5 -13.3125 L 7.5 -0.59375 C 7.5 -0.476562 7.460938 -0.375 7.390625 -0.28125 C 7.328125 -0.195312 7.210938 -0.125 7.046875 -0.0625 C 6.878906 -0.0078125 6.648438 0.03125 6.359375 0.0625 C 6.066406 0.09375 5.707031 0.109375 5.28125 0.109375 C 4.863281 0.109375 4.507812 0.09375 4.21875 0.0625 C 3.925781 0.03125 3.695312 -0.0078125 3.53125 -0.0625 C 3.363281 -0.125 3.242188 -0.195312 3.171875 -0.28125 C 3.109375 -0.375 3.078125 -0.476562 3.078125 -0.59375 L 3.078125 -13.3125 L 1.109375 -13.3125 C 0.890625 -13.3125 0.722656 -13.445312 0.609375 -13.71875 C 0.492188 -14 0.4375 -14.460938 0.4375 -15.109375 C 0.4375 -15.453125 0.453125 -15.738281 0.484375 -15.96875 C 0.515625 -16.207031 0.554688 -16.394531 0.609375 -16.53125 C 0.660156 -16.664062 0.726562 -16.757812 0.8125 -16.8125 C 0.90625 -16.875 1.007812 -16.90625 1.125 -16.90625 L 3.078125 -16.90625 L 3.078125 -18.234375 C 3.078125 -19.296875 3.179688 -20.226562 3.390625 -21.03125 C 3.609375 -21.84375 3.941406 -22.515625 4.390625 -23.046875 C 4.847656 -23.585938 5.425781 -23.988281 6.125 -24.25 C 6.820312 -24.519531 7.644531 -24.65625 8.59375 -24.65625 C 9.050781 -24.65625 9.484375 -24.617188 9.890625 -24.546875 C 10.304688 -24.472656 10.628906 -24.390625 10.859375 -24.296875 C 11.097656 -24.210938 11.257812 -24.128906 11.34375 -24.046875 C 11.425781 -23.972656 11.492188 -23.863281 11.546875 -23.71875 C 11.597656 -23.570312 11.632812 -23.382812 11.65625 -23.15625 C 11.6875 -22.925781 11.703125 -22.640625 11.703125 -22.296875 Z M 11.703125 -22.296875 "/></g></g><g transform="translate(13.680905, 39.654076)"><g><path d="M 18.109375 -8.609375 C 18.109375 -7.273438 17.929688 -6.054688 17.578125 -4.953125 C 17.222656 -3.847656 16.6875 -2.894531 15.96875 -2.09375 C 15.257812 -1.289062 14.363281 -0.671875 13.28125 -0.234375 C 12.195312 0.191406 10.9375 0.40625 9.5 0.40625 C 8.101562 0.40625 6.882812 0.210938 5.84375 -0.171875 C 4.8125 -0.554688 3.953125 -1.117188 3.265625 -1.859375 C 2.585938 -2.609375 2.082031 -3.519531 1.75 -4.59375 C 1.425781 -5.675781 1.265625 -6.910156 1.265625 -8.296875 C 1.265625 -9.640625 1.441406 -10.863281 1.796875 -11.96875 C 2.160156 -13.082031 2.695312 -14.035156 3.40625 -14.828125 C 4.125 -15.617188 5.019531 -16.226562 6.09375 -16.65625 C 7.175781 -17.09375 8.4375 -17.3125 9.875 -17.3125 C 11.289062 -17.3125 12.515625 -17.117188 13.546875 -16.734375 C 14.578125 -16.359375 15.429688 -15.800781 16.109375 -15.0625 C 16.785156 -14.320312 17.285156 -13.410156 17.609375 -12.328125 C 17.941406 -11.242188 18.109375 -10.003906 18.109375 -8.609375 Z M 13.546875 -8.4375 C 13.546875 -9.207031 13.484375 -9.921875 13.359375 -10.578125 C 13.234375 -11.234375 13.023438 -11.800781 12.734375 -12.28125 C 12.441406 -12.757812 12.050781 -13.132812 11.5625 -13.40625 C 11.070312 -13.675781 10.457031 -13.8125 9.71875 -13.8125 C 9.0625 -13.8125 8.488281 -13.691406 8 -13.453125 C 7.507812 -13.210938 7.101562 -12.859375 6.78125 -12.390625 C 6.46875 -11.929688 6.226562 -11.375 6.0625 -10.71875 C 5.90625 -10.0625 5.828125 -9.316406 5.828125 -8.484375 C 5.828125 -7.710938 5.890625 -7 6.015625 -6.34375 C 6.148438 -5.695312 6.359375 -5.128906 6.640625 -4.640625 C 6.929688 -4.160156 7.320312 -3.789062 7.8125 -3.53125 C 8.3125 -3.269531 8.925781 -3.140625 9.65625 -3.140625 C 10.320312 -3.140625 10.898438 -3.257812 11.390625 -3.5 C 11.890625 -3.738281 12.296875 -4.085938 12.609375 -4.546875 C 12.929688 -5.003906 13.164062 -5.554688 13.3125 -6.203125 C 13.46875 -6.859375 13.546875 -7.601562 13.546875 -8.4375 Z M 13.546875 -8.4375 "/></g></g><g transform="translate(33.078301, 39.654076)"><g><path d="M 12.3125 -14.84375 C 12.3125 -14.425781 12.300781 -14.082031 12.28125 -13.8125 C 12.257812 -13.539062 12.222656 -13.328125 12.171875 -13.171875 C 12.128906 -13.023438 12.066406 -12.921875 11.984375 -12.859375 C 11.910156 -12.796875 11.816406 -12.765625 11.703125 -12.765625 C 11.609375 -12.765625 11.5 -12.785156 11.375 -12.828125 C 11.257812 -12.867188 11.128906 -12.910156 10.984375 -12.953125 C 10.835938 -13.003906 10.675781 -13.050781 10.5 -13.09375 C 10.320312 -13.132812 10.128906 -13.15625 9.921875 -13.15625 C 9.671875 -13.15625 9.421875 -13.101562 9.171875 -13 C 8.929688 -12.90625 8.675781 -12.75 8.40625 -12.53125 C 8.144531 -12.320312 7.867188 -12.039062 7.578125 -11.6875 C 7.296875 -11.34375 6.988281 -10.910156 6.65625 -10.390625 L 6.65625 -0.59375 C 6.65625 -0.476562 6.617188 -0.375 6.546875 -0.28125 C 6.484375 -0.195312 6.363281 -0.125 6.1875 -0.0625 C 6.019531 -0.0078125 5.796875 0.03125 5.515625 0.0625 C 5.234375 0.09375 4.875 0.109375 4.4375 0.109375 C 4 0.109375 3.640625 0.09375 3.359375 0.0625 C 3.078125 0.03125 2.851562 -0.0078125 2.6875 -0.0625 C 2.519531 -0.125 2.398438 -0.195312 2.328125 -0.28125 C 2.253906 -0.375 2.21875 -0.476562 2.21875 -0.59375 L 2.21875 -16.3125 C 2.21875 -16.425781 2.242188 -16.523438 2.296875 -16.609375 C 2.359375 -16.703125 2.46875 -16.773438 2.625 -16.828125 C 2.78125 -16.890625 2.976562 -16.9375 3.21875 -16.96875 C 3.457031 -17 3.757812 -17.015625 4.125 -17.015625 C 4.5 -17.015625 4.804688 -17 5.046875 -16.96875 C 5.296875 -16.9375 5.488281 -16.890625 5.625 -16.828125 C 5.757812 -16.773438 5.851562 -16.703125 5.90625 -16.609375 C 5.96875 -16.523438 6 -16.425781 6 -16.3125 L 6 -14.359375 C 6.414062 -14.941406 6.804688 -15.425781 7.171875 -15.8125 C 7.535156 -16.195312 7.878906 -16.5 8.203125 -16.71875 C 8.535156 -16.9375 8.863281 -17.085938 9.1875 -17.171875 C 9.519531 -17.265625 9.851562 -17.3125 10.1875 -17.3125 C 10.332031 -17.3125 10.492188 -17.300781 10.671875 -17.28125 C 10.847656 -17.269531 11.03125 -17.242188 11.21875 -17.203125 C 11.40625 -17.160156 11.566406 -17.113281 11.703125 -17.0625 C 11.847656 -17.007812 11.953125 -16.953125 12.015625 -16.890625 C 12.085938 -16.835938 12.132812 -16.773438 12.15625 -16.703125 C 12.1875 -16.628906 12.210938 -16.53125 12.234375 -16.40625 C 12.265625 -16.28125 12.285156 -16.09375 12.296875 -15.84375 C 12.304688 -15.601562 12.3125 -15.269531 12.3125 -14.84375 Z M 12.3125 -14.84375 "/></g></g></g></g></g><g transform="matrix(1, 0, 0, 1, 68, 215)"><g clip-path="url(#3a7b58cead)"><g fill="#ffffff" fill-opacity="1"><g transform="translate(0.433084, 74.540877)"><g><path d="M 30.546875 -1.0625 C 30.546875 -0.75 30.425781 -0.5 30.1875 -0.3125 C 29.957031 -0.125 29.597656 0.00390625 29.109375 0.078125 C 28.617188 0.160156 27.890625 0.203125 26.921875 0.203125 C 25.890625 0.203125 25.132812 0.160156 24.65625 0.078125 C 24.1875 0.00390625 23.851562 -0.125 23.65625 -0.3125 C 23.46875 -0.5 23.375 -0.75 23.375 -1.0625 L 23.375 -3.515625 C 22.101562 -2.160156 20.65625 -1.101562 19.03125 -0.34375 C 17.414062 0.414062 15.625 0.796875 13.65625 0.796875 C 12.019531 0.796875 10.515625 0.582031 9.140625 0.15625 C 7.773438 -0.269531 6.59375 -0.898438 5.59375 -1.734375 C 4.601562 -2.578125 3.832031 -3.617188 3.28125 -4.859375 C 2.726562 -6.097656 2.453125 -7.546875 2.453125 -9.203125 C 2.453125 -10.992188 2.800781 -12.550781 3.5 -13.875 C 4.195312 -15.195312 5.238281 -16.285156 6.625 -17.140625 C 8.019531 -18.003906 9.75 -18.644531 11.8125 -19.0625 C 13.882812 -19.476562 16.289062 -19.6875 19.03125 -19.6875 L 22.03125 -19.6875 L 22.03125 -21.546875 C 22.03125 -22.503906 21.929688 -23.34375 21.734375 -24.0625 C 21.535156 -24.789062 21.210938 -25.394531 20.765625 -25.875 C 20.316406 -26.363281 19.71875 -26.722656 18.96875 -26.953125 C 18.226562 -27.179688 17.304688 -27.296875 16.203125 -27.296875 C 14.753906 -27.296875 13.457031 -27.132812 12.3125 -26.8125 C 11.175781 -26.488281 10.171875 -26.128906 9.296875 -25.734375 C 8.429688 -25.347656 7.703125 -24.992188 7.109375 -24.671875 C 6.523438 -24.359375 6.050781 -24.203125 5.6875 -24.203125 C 5.4375 -24.203125 5.210938 -24.28125 5.015625 -24.4375 C 4.816406 -24.601562 4.65625 -24.832031 4.53125 -25.125 C 4.40625 -25.425781 4.304688 -25.796875 4.234375 -26.234375 C 4.171875 -26.671875 4.140625 -27.148438 4.140625 -27.671875 C 4.140625 -28.390625 4.195312 -28.953125 4.3125 -29.359375 C 4.425781 -29.773438 4.644531 -30.148438 4.96875 -30.484375 C 5.289062 -30.816406 5.851562 -31.179688 6.65625 -31.578125 C 7.457031 -31.984375 8.394531 -32.359375 9.46875 -32.703125 C 10.550781 -33.054688 11.726562 -33.34375 13 -33.5625 C 14.28125 -33.78125 15.597656 -33.890625 16.953125 -33.890625 C 19.367188 -33.890625 21.429688 -33.648438 23.140625 -33.171875 C 24.859375 -32.703125 26.265625 -31.976562 27.359375 -31 C 28.460938 -30.03125 29.269531 -28.773438 29.78125 -27.234375 C 30.289062 -25.691406 30.546875 -23.863281 30.546875 -21.75 Z M 22.03125 -14.234375 L 18.71875 -14.234375 C 17.3125 -14.234375 16.113281 -14.128906 15.125 -13.921875 C 14.144531 -13.710938 13.34375 -13.398438 12.71875 -12.984375 C 12.09375 -12.578125 11.632812 -12.078125 11.34375 -11.484375 C 11.0625 -10.898438 10.921875 -10.234375 10.921875 -9.484375 C 10.921875 -8.191406 11.328125 -7.175781 12.140625 -6.4375 C 12.960938 -5.707031 14.097656 -5.34375 15.546875 -5.34375 C 16.765625 -5.34375 17.882812 -5.648438 18.90625 -6.265625 C 19.925781 -6.890625 20.96875 -7.800781 22.03125 -9 Z M 22.03125 -14.234375 "/></g></g></g><g fill="#ffffff" fill-opacity="1"><g transform="translate(35.278901, 74.540877)"><g><path d="M 53.25 -1.171875 C 53.25 -0.941406 53.179688 -0.738281 53.046875 -0.5625 C 52.910156 -0.394531 52.679688 -0.253906 52.359375 -0.140625 C 52.035156 -0.0234375 51.597656 0.0546875 51.046875 0.109375 C 50.492188 0.171875 49.796875 0.203125 48.953125 0.203125 C 48.078125 0.203125 47.363281 0.171875 46.8125 0.109375 C 46.257812 0.0546875 45.816406 -0.0234375 45.484375 -0.140625 C 45.148438 -0.253906 44.921875 -0.394531 44.796875 -0.5625 C 44.671875 -0.738281 44.609375 -0.941406 44.609375 -1.171875 L 44.609375 -19.40625 C 44.609375 -20.4375 44.507812 -21.378906 44.3125 -22.234375 C 44.113281 -23.085938 43.8125 -23.816406 43.40625 -24.421875 C 43.007812 -25.023438 42.503906 -25.492188 41.890625 -25.828125 C 41.285156 -26.160156 40.554688 -26.328125 39.703125 -26.328125 C 38.671875 -26.328125 37.625 -25.925781 36.5625 -25.125 C 35.507812 -24.320312 34.363281 -23.148438 33.125 -21.609375 L 33.125 -1.171875 C 33.125 -0.941406 33.054688 -0.738281 32.921875 -0.5625 C 32.785156 -0.394531 32.550781 -0.253906 32.21875 -0.140625 C 31.882812 -0.0234375 31.441406 0.0546875 30.890625 0.109375 C 30.335938 0.171875 29.644531 0.203125 28.8125 0.203125 C 27.96875 0.203125 27.269531 0.171875 26.71875 0.109375 C 26.164062 0.0546875 25.722656 -0.0234375 25.390625 -0.140625 C 25.054688 -0.253906 24.816406 -0.394531 24.671875 -0.5625 C 24.535156 -0.738281 24.46875 -0.941406 24.46875 -1.171875 L 24.46875 -19.40625 C 24.46875 -20.4375 24.367188 -21.378906 24.171875 -22.234375 C 23.984375 -23.085938 23.691406 -23.816406 23.296875 -24.421875 C 22.910156 -25.023438 22.40625 -25.492188 21.78125 -25.828125 C 21.164062 -26.160156 20.441406 -26.328125 19.609375 -26.328125 C 18.554688 -26.328125 17.5 -25.925781 16.4375 -25.125 C 15.382812 -24.320312 14.25 -23.148438 13.03125 -21.609375 L 13.03125 -1.171875 C 13.03125 -0.941406 12.957031 -0.738281 12.8125 -0.5625 C 12.675781 -0.394531 12.441406 -0.253906 12.109375 -0.140625 C 11.773438 -0.0234375 11.332031 0.0546875 10.78125 0.109375 C 10.238281 0.171875 9.539062 0.203125 8.6875 0.203125 C 7.832031 0.203125 7.128906 0.171875 6.578125 0.109375 C 6.023438 0.0546875 5.582031 -0.0234375 5.25 -0.140625 C 4.914062 -0.253906 4.679688 -0.394531 4.546875 -0.5625 C 4.410156 -0.738281 4.34375 -0.941406 4.34375 -1.171875 L 4.34375 -31.921875 C 4.34375 -32.148438 4.398438 -32.347656 4.515625 -32.515625 C 4.628906 -32.691406 4.832031 -32.835938 5.125 -32.953125 C 5.425781 -33.066406 5.8125 -33.148438 6.28125 -33.203125 C 6.757812 -33.265625 7.351562 -33.296875 8.0625 -33.296875 C 8.800781 -33.296875 9.410156 -33.265625 9.890625 -33.203125 C 10.367188 -33.148438 10.738281 -33.066406 11 -32.953125 C 11.269531 -32.835938 11.460938 -32.691406 11.578125 -32.515625 C 11.691406 -32.347656 11.75 -32.148438 11.75 -31.921875 L 11.75 -28.375 C 13.457031 -30.207031 15.15625 -31.582031 16.84375 -32.5 C 18.53125 -33.425781 20.289062 -33.890625 22.125 -33.890625 C 23.394531 -33.890625 24.535156 -33.753906 25.546875 -33.484375 C 26.554688 -33.222656 27.457031 -32.84375 28.25 -32.34375 C 29.039062 -31.851562 29.722656 -31.265625 30.296875 -30.578125 C 30.867188 -29.890625 31.351562 -29.117188 31.75 -28.265625 C 32.664062 -29.253906 33.566406 -30.101562 34.453125 -30.8125 C 35.335938 -31.53125 36.207031 -32.113281 37.0625 -32.5625 C 37.925781 -33.007812 38.789062 -33.34375 39.65625 -33.5625 C 40.519531 -33.78125 41.398438 -33.890625 42.296875 -33.890625 C 44.335938 -33.890625 46.054688 -33.539062 47.453125 -32.84375 C 48.859375 -32.15625 49.992188 -31.21875 50.859375 -30.03125 C 51.722656 -28.851562 52.335938 -27.472656 52.703125 -25.890625 C 53.066406 -24.304688 53.25 -22.628906 53.25 -20.859375 Z M 53.25 -1.171875 "/></g></g></g><g fill="#ffffff" fill-opacity="1"><g transform="translate(92.700379, 74.540877)"><g><path d="M 30.546875 -1.0625 C 30.546875 -0.75 30.425781 -0.5 30.1875 -0.3125 C 29.957031 -0.125 29.597656 0.00390625 29.109375 0.078125 C 28.617188 0.160156 27.890625 0.203125 26.921875 0.203125 C 25.890625 0.203125 25.132812 0.160156 24.65625 0.078125 C 24.1875 0.00390625 23.851562 -0.125 23.65625 -0.3125 C 23.46875 -0.5 23.375 -0.75 23.375 -1.0625 L 23.375 -3.515625 C 22.101562 -2.160156 20.65625 -1.101562 19.03125 -0.34375 C 17.414062 0.414062 15.625 0.796875 13.65625 0.796875 C 12.019531 0.796875 10.515625 0.582031 9.140625 0.15625 C 7.773438 -0.269531 6.59375 -0.898438 5.59375 -1.734375 C 4.601562 -2.578125 3.832031 -3.617188 3.28125 -4.859375 C 2.726562 -6.097656 2.453125 -7.546875 2.453125 -9.203125 C 2.453125 -10.992188 2.800781 -12.550781 3.5 -13.875 C 4.195312 -15.195312 5.238281 -16.285156 6.625 -17.140625 C 8.019531 -18.003906 9.75 -18.644531 11.8125 -19.0625 C 13.882812 -19.476562 16.289062 -19.6875 19.03125 -19.6875 L 22.03125 -19.6875 L 22.03125 -21.546875 C 22.03125 -22.503906 21.929688 -23.34375 21.734375 -24.0625 C 21.535156 -24.789062 21.210938 -25.394531 20.765625 -25.875 C 20.316406 -26.363281 19.71875 -26.722656 18.96875 -26.953125 C 18.226562 -27.179688 17.304688 -27.296875 16.203125 -27.296875 C 14.753906 -27.296875 13.457031 -27.132812 12.3125 -26.8125 C 11.175781 -26.488281 10.171875 -26.128906 9.296875 -25.734375 C 8.429688 -25.347656 7.703125 -24.992188 7.109375 -24.671875 C 6.523438 -24.359375 6.050781 -24.203125 5.6875 -24.203125 C 5.4375 -24.203125 5.210938 -24.28125 5.015625 -24.4375 C 4.816406 -24.601562 4.65625 -24.832031 4.53125 -25.125 C 4.40625 -25.425781 4.304688 -25.796875 4.234375 -26.234375 C 4.171875 -26.671875 4.140625 -27.148438 4.140625 -27.671875 C 4.140625 -28.390625 4.195312 -28.953125 4.3125 -29.359375 C 4.425781 -29.773438 4.644531 -30.148438 4.96875 -30.484375 C 5.289062 -30.816406 5.851562 -31.179688 6.65625 -31.578125 C 7.457031 -31.984375 8.394531 -32.359375 9.46875 -32.703125 C 10.550781 -33.054688 11.726562 -33.34375 13 -33.5625 C 14.28125 -33.78125 15.597656 -33.890625 16.953125 -33.890625 C 19.367188 -33.890625 21.429688 -33.648438 23.140625 -33.171875 C 24.859375 -32.703125 26.265625 -31.976562 27.359375 -31 C 28.460938 -30.03125 29.269531 -28.773438 29.78125 -27.234375 C 30.289062 -25.691406 30.546875 -23.863281 30.546875 -21.75 Z M 22.03125 -14.234375 L 18.71875 -14.234375 C 17.3125 -14.234375 16.113281 -14.128906 15.125 -13.921875 C 14.144531 -13.710938 13.34375 -13.398438 12.71875 -12.984375 C 12.09375 -12.578125 11.632812 -12.078125 11.34375 -11.484375 C 11.0625 -10.898438 10.921875 -10.234375 10.921875 -9.484375 C 10.921875 -8.191406 11.328125 -7.175781 12.140625 -6.4375 C 12.960938 -5.707031 14.097656 -5.34375 15.546875 -5.34375 C 16.765625 -5.34375 17.882812 -5.648438 18.90625 -6.265625 C 19.925781 -6.890625 20.96875 -7.800781 22.03125 -9 Z M 22.03125 -14.234375 "/></g></g></g><g fill="#ffffff" fill-opacity="1"><g transform="translate(127.546197, 74.540877)"><g><path d="M 25.859375 -3.546875 C 25.859375 -2.878906 25.820312 -2.3125 25.75 -1.84375 C 25.675781 -1.375 25.582031 -1 25.46875 -0.71875 C 25.351562 -0.445312 25.203125 -0.257812 25.015625 -0.15625 C 24.835938 -0.0507812 24.632812 0 24.40625 0 L 4.3125 0 C 3.6875 0 3.207031 -0.203125 2.875 -0.609375 C 2.539062 -1.023438 2.375 -1.707031 2.375 -2.65625 L 2.375 -4.234375 C 2.375 -4.648438 2.390625 -5.023438 2.421875 -5.359375 C 2.460938 -5.691406 2.535156 -6.015625 2.640625 -6.328125 C 2.742188 -6.640625 2.878906 -6.953125 3.046875 -7.265625 C 3.222656 -7.585938 3.445312 -7.945312 3.71875 -8.34375 L 15.234375 -26.125 L 4.34375 -26.125 C 3.90625 -26.125 3.550781 -26.398438 3.28125 -26.953125 C 3.019531 -27.503906 2.890625 -28.390625 2.890625 -29.609375 C 2.890625 -30.273438 2.914062 -30.832031 2.96875 -31.28125 C 3.03125 -31.726562 3.117188 -32.082031 3.234375 -32.34375 C 3.347656 -32.613281 3.5 -32.804688 3.6875 -32.921875 C 3.875 -33.035156 4.09375 -33.09375 4.34375 -33.09375 L 23.125 -33.09375 C 23.445312 -33.09375 23.722656 -33.054688 23.953125 -32.984375 C 24.179688 -32.921875 24.367188 -32.796875 24.515625 -32.609375 C 24.671875 -32.421875 24.785156 -32.164062 24.859375 -31.84375 C 24.941406 -31.53125 24.984375 -31.128906 24.984375 -30.640625 L 24.984375 -28.953125 C 24.984375 -28.492188 24.960938 -28.085938 24.921875 -27.734375 C 24.878906 -27.378906 24.8125 -27.039062 24.71875 -26.71875 C 24.625 -26.394531 24.488281 -26.070312 24.3125 -25.75 C 24.144531 -25.425781 23.945312 -25.082031 23.71875 -24.71875 L 12.265625 -6.96875 L 24.40625 -6.96875 C 24.613281 -6.96875 24.804688 -6.921875 24.984375 -6.828125 C 25.171875 -6.734375 25.328125 -6.554688 25.453125 -6.296875 C 25.578125 -6.046875 25.675781 -5.695312 25.75 -5.25 C 25.820312 -4.800781 25.859375 -4.234375 25.859375 -3.546875 Z M 25.859375 -3.546875 "/></g></g></g><g fill="#ffffff" fill-opacity="1"><g transform="translate(155.602069, 74.540877)"><g><path d="M 35.4375 -16.859375 C 35.4375 -14.234375 35.085938 -11.84375 34.390625 -9.6875 C 33.703125 -7.53125 32.65625 -5.671875 31.25 -4.109375 C 29.851562 -2.546875 28.097656 -1.335938 25.984375 -0.484375 C 23.867188 0.367188 21.398438 0.796875 18.578125 0.796875 C 15.847656 0.796875 13.46875 0.414062 11.4375 -0.34375 C 9.414062 -1.101562 7.738281 -2.207031 6.40625 -3.65625 C 5.070312 -5.101562 4.082031 -6.882812 3.4375 -9 C 2.800781 -11.113281 2.484375 -13.523438 2.484375 -16.234375 C 2.484375 -18.859375 2.832031 -21.253906 3.53125 -23.421875 C 4.226562 -25.585938 5.28125 -27.445312 6.6875 -29 C 8.09375 -30.550781 9.84375 -31.753906 11.9375 -32.609375 C 14.039062 -33.460938 16.507812 -33.890625 19.34375 -33.890625 C 22.09375 -33.890625 24.476562 -33.515625 26.5 -32.765625 C 28.53125 -32.015625 30.203125 -30.914062 31.515625 -29.46875 C 32.835938 -28.019531 33.820312 -26.238281 34.46875 -24.125 C 35.113281 -22.007812 35.4375 -19.585938 35.4375 -16.859375 Z M 26.5 -16.515625 C 26.5 -18.023438 26.378906 -19.414062 26.140625 -20.6875 C 25.898438 -21.96875 25.492188 -23.078125 24.921875 -24.015625 C 24.347656 -24.960938 23.582031 -25.703125 22.625 -26.234375 C 21.675781 -26.765625 20.476562 -27.03125 19.03125 -27.03125 C 17.738281 -27.03125 16.609375 -26.789062 15.640625 -26.3125 C 14.679688 -25.84375 13.890625 -25.15625 13.265625 -24.25 C 12.648438 -23.34375 12.1875 -22.25 11.875 -20.96875 C 11.5625 -19.695312 11.40625 -18.242188 11.40625 -16.609375 C 11.40625 -15.097656 11.53125 -13.703125 11.78125 -12.421875 C 12.039062 -11.148438 12.453125 -10.039062 13.015625 -9.09375 C 13.578125 -8.15625 14.335938 -7.425781 15.296875 -6.90625 C 16.265625 -6.394531 17.460938 -6.140625 18.890625 -6.140625 C 20.203125 -6.140625 21.335938 -6.375 22.296875 -6.84375 C 23.265625 -7.3125 24.054688 -7.992188 24.671875 -8.890625 C 25.296875 -9.785156 25.753906 -10.867188 26.046875 -12.140625 C 26.347656 -13.421875 26.5 -14.878906 26.5 -16.515625 Z M 26.5 -16.515625 "/></g></g></g><g fill="#ffffff" fill-opacity="1"><g transform="translate(193.549887, 74.540877)"><g><path d="M 33.71875 -1.171875 C 33.71875 -0.941406 33.644531 -0.738281 33.5 -0.5625 C 33.363281 -0.394531 33.132812 -0.253906 32.8125 -0.140625 C 32.488281 -0.0234375 32.046875 0.0546875 31.484375 0.109375 C 30.921875 0.171875 30.226562 0.203125 29.40625 0.203125 C 28.550781 0.203125 27.84375 0.171875 27.28125 0.109375 C 26.71875 0.0546875 26.273438 -0.0234375 25.953125 -0.140625 C 25.628906 -0.253906 25.398438 -0.394531 25.265625 -0.5625 C 25.128906 -0.738281 25.0625 -0.941406 25.0625 -1.171875 L 25.0625 -18.71875 C 25.0625 -20.207031 24.953125 -21.378906 24.734375 -22.234375 C 24.515625 -23.085938 24.195312 -23.816406 23.78125 -24.421875 C 23.363281 -25.023438 22.828125 -25.492188 22.171875 -25.828125 C 21.523438 -26.160156 20.765625 -26.328125 19.890625 -26.328125 C 18.785156 -26.328125 17.671875 -25.925781 16.546875 -25.125 C 15.421875 -24.320312 14.25 -23.148438 13.03125 -21.609375 L 13.03125 -1.171875 C 13.03125 -0.941406 12.957031 -0.738281 12.8125 -0.5625 C 12.675781 -0.394531 12.441406 -0.253906 12.109375 -0.140625 C 11.773438 -0.0234375 11.332031 0.0546875 10.78125 0.109375 C 10.238281 0.171875 9.539062 0.203125 8.6875 0.203125 C 7.832031 0.203125 7.128906 0.171875 6.578125 0.109375 C 6.023438 0.0546875 5.582031 -0.0234375 5.25 -0.140625 C 4.914062 -0.253906 4.679688 -0.394531 4.546875 -0.5625 C 4.410156 -0.738281 4.34375 -0.941406 4.34375 -1.171875 L 4.34375 -31.921875 C 4.34375 -32.148438 4.398438 -32.347656 4.515625 -32.515625 C 4.628906 -32.691406 4.832031 -32.835938 5.125 -32.953125 C 5.425781 -33.066406 5.8125 -33.148438 6.28125 -33.203125 C 6.757812 -33.265625 7.351562 -33.296875 8.0625 -33.296875 C 8.800781 -33.296875 9.410156 -33.265625 9.890625 -33.203125 C 10.367188 -33.148438 10.738281 -33.066406 11 -32.953125 C 11.269531 -32.835938 11.460938 -32.691406 11.578125 -32.515625 C 11.691406 -32.347656 11.75 -32.148438 11.75 -31.921875 L 11.75 -28.375 C 13.457031 -30.207031 15.1875 -31.582031 16.9375 -32.5 C 18.695312 -33.425781 20.53125 -33.890625 22.4375 -33.890625 C 24.53125 -33.890625 26.296875 -33.539062 27.734375 -32.84375 C 29.171875 -32.15625 30.332031 -31.21875 31.21875 -30.03125 C 32.101562 -28.851562 32.738281 -27.472656 33.125 -25.890625 C 33.519531 -24.304688 33.71875 -22.398438 33.71875 -20.171875 Z M 33.71875 -1.171875 "/></g></g></g></g></g><g transform="matrix(1, 0, 0, 1, 116, 178)"><g clip-path="url(#7f08d488d7)"><g fill="#ffffff" fill-opacity="1"><g transform="translate(1.278605, 63.131107)"><g><path d="M 22.890625 -5.03125 C 22.890625 -4.53125 22.875 -4.113281 22.84375 -3.78125 C 22.820312 -3.445312 22.785156 -3.164062 22.734375 -2.9375 C 22.679688 -2.707031 22.625 -2.519531 22.5625 -2.375 C 22.5 -2.238281 22.351562 -2.0625 22.125 -1.84375 C 21.894531 -1.625 21.503906 -1.359375 20.953125 -1.046875 C 20.398438 -0.734375 19.769531 -0.453125 19.0625 -0.203125 C 18.351562 0.046875 17.582031 0.242188 16.75 0.390625 C 15.925781 0.546875 15.078125 0.625 14.203125 0.625 C 12.242188 0.625 10.503906 0.320312 8.984375 -0.28125 C 7.472656 -0.894531 6.203125 -1.796875 5.171875 -2.984375 C 4.140625 -4.171875 3.363281 -5.625 2.84375 -7.34375 C 2.320312 -9.0625 2.0625 -11.023438 2.0625 -13.234375 C 2.0625 -15.785156 2.378906 -17.988281 3.015625 -19.84375 C 3.648438 -21.707031 4.539062 -23.25 5.6875 -24.46875 C 6.832031 -25.6875 8.1875 -26.585938 9.75 -27.171875 C 11.3125 -27.765625 13.023438 -28.0625 14.890625 -28.0625 C 15.648438 -28.0625 16.394531 -27.992188 17.125 -27.859375 C 17.863281 -27.734375 18.550781 -27.554688 19.1875 -27.328125 C 19.832031 -27.097656 20.40625 -26.835938 20.90625 -26.546875 C 21.40625 -26.265625 21.757812 -26.019531 21.96875 -25.8125 C 22.1875 -25.601562 22.335938 -25.425781 22.421875 -25.28125 C 22.503906 -25.132812 22.566406 -24.945312 22.609375 -24.71875 C 22.660156 -24.488281 22.703125 -24.207031 22.734375 -23.875 C 22.765625 -23.539062 22.78125 -23.132812 22.78125 -22.65625 C 22.78125 -21.550781 22.679688 -20.773438 22.484375 -20.328125 C 22.296875 -19.878906 22.050781 -19.65625 21.75 -19.65625 C 21.425781 -19.65625 21.082031 -19.789062 20.71875 -20.0625 C 20.351562 -20.332031 19.921875 -20.628906 19.421875 -20.953125 C 18.929688 -21.273438 18.34375 -21.566406 17.65625 -21.828125 C 16.976562 -22.097656 16.160156 -22.234375 15.203125 -22.234375 C 13.335938 -22.234375 11.910156 -21.515625 10.921875 -20.078125 C 9.929688 -18.640625 9.4375 -16.53125 9.4375 -13.75 C 9.4375 -12.375 9.554688 -11.160156 9.796875 -10.109375 C 10.046875 -9.066406 10.410156 -8.191406 10.890625 -7.484375 C 11.378906 -6.785156 11.988281 -6.257812 12.71875 -5.90625 C 13.457031 -5.550781 14.316406 -5.375 15.296875 -5.375 C 16.285156 -5.375 17.132812 -5.519531 17.84375 -5.8125 C 18.5625 -6.113281 19.1875 -6.441406 19.71875 -6.796875 C 20.25 -7.160156 20.695312 -7.488281 21.0625 -7.78125 C 21.425781 -8.082031 21.734375 -8.234375 21.984375 -8.234375 C 22.148438 -8.234375 22.289062 -8.179688 22.40625 -8.078125 C 22.519531 -7.984375 22.609375 -7.804688 22.671875 -7.546875 C 22.742188 -7.296875 22.796875 -6.96875 22.828125 -6.5625 C 22.867188 -6.164062 22.890625 -5.65625 22.890625 -5.03125 Z M 22.890625 -5.03125 "/></g></g></g><g fill="#ffffff" fill-opacity="1"><g transform="translate(25.769668, 63.131107)"><g><path d="M 10.796875 -0.96875 C 10.796875 -0.78125 10.738281 -0.613281 10.625 -0.46875 C 10.507812 -0.320312 10.3125 -0.203125 10.03125 -0.109375 C 9.757812 -0.015625 9.394531 0.0507812 8.9375 0.09375 C 8.488281 0.144531 7.910156 0.171875 7.203125 0.171875 C 6.492188 0.171875 5.910156 0.144531 5.453125 0.09375 C 4.992188 0.0507812 4.625 -0.015625 4.34375 -0.109375 C 4.070312 -0.203125 3.878906 -0.320312 3.765625 -0.46875 C 3.648438 -0.613281 3.59375 -0.78125 3.59375 -0.96875 L 3.59375 -38.546875 C 3.59375 -38.742188 3.648438 -38.914062 3.765625 -39.0625 C 3.878906 -39.21875 4.070312 -39.347656 4.34375 -39.453125 C 4.625 -39.554688 4.992188 -39.632812 5.453125 -39.6875 C 5.910156 -39.75 6.492188 -39.78125 7.203125 -39.78125 C 7.910156 -39.78125 8.488281 -39.75 8.9375 -39.6875 C 9.394531 -39.632812 9.757812 -39.554688 10.03125 -39.453125 C 10.3125 -39.347656 10.507812 -39.21875 10.625 -39.0625 C 10.738281 -38.914062 10.796875 -38.742188 10.796875 -38.546875 Z M 10.796875 -0.96875 "/></g></g></g><g fill="#ffffff" fill-opacity="1"><g transform="translate(40.144239, 63.131107)"><g><path d="M 27.15625 -14.46875 C 27.15625 -13.582031 26.957031 -12.929688 26.5625 -12.515625 C 26.175781 -12.097656 25.640625 -11.890625 24.953125 -11.890625 L 9.4375 -11.890625 C 9.4375 -10.804688 9.5625 -9.820312 9.8125 -8.9375 C 10.070312 -8.050781 10.484375 -7.296875 11.046875 -6.671875 C 11.609375 -6.054688 12.332031 -5.582031 13.21875 -5.25 C 14.101562 -4.925781 15.164062 -4.765625 16.40625 -4.765625 C 17.664062 -4.765625 18.769531 -4.851562 19.71875 -5.03125 C 20.675781 -5.21875 21.5 -5.421875 22.1875 -5.640625 C 22.882812 -5.859375 23.460938 -6.054688 23.921875 -6.234375 C 24.378906 -6.421875 24.75 -6.515625 25.03125 -6.515625 C 25.207031 -6.515625 25.351562 -6.476562 25.46875 -6.40625 C 25.582031 -6.34375 25.675781 -6.222656 25.75 -6.046875 C 25.820312 -5.878906 25.875 -5.640625 25.90625 -5.328125 C 25.9375 -5.015625 25.953125 -4.617188 25.953125 -4.140625 C 25.953125 -3.722656 25.941406 -3.363281 25.921875 -3.0625 C 25.898438 -2.769531 25.867188 -2.519531 25.828125 -2.3125 C 25.796875 -2.101562 25.738281 -1.925781 25.65625 -1.78125 C 25.582031 -1.644531 25.484375 -1.507812 25.359375 -1.375 C 25.234375 -1.238281 24.894531 -1.054688 24.34375 -0.828125 C 23.789062 -0.597656 23.085938 -0.375 22.234375 -0.15625 C 21.378906 0.0625 20.398438 0.25 19.296875 0.40625 C 18.191406 0.570312 17.007812 0.65625 15.75 0.65625 C 13.476562 0.65625 11.488281 0.367188 9.78125 -0.203125 C 8.082031 -0.773438 6.660156 -1.640625 5.515625 -2.796875 C 4.367188 -3.960938 3.515625 -5.429688 2.953125 -7.203125 C 2.390625 -8.972656 2.109375 -11.050781 2.109375 -13.4375 C 2.109375 -15.695312 2.40625 -17.738281 3 -19.5625 C 3.59375 -21.382812 4.453125 -22.925781 5.578125 -24.1875 C 6.703125 -25.457031 8.066406 -26.425781 9.671875 -27.09375 C 11.285156 -27.757812 13.101562 -28.09375 15.125 -28.09375 C 17.25 -28.09375 19.066406 -27.773438 20.578125 -27.140625 C 22.097656 -26.515625 23.34375 -25.644531 24.3125 -24.53125 C 25.289062 -23.414062 26.007812 -22.097656 26.46875 -20.578125 C 26.925781 -19.054688 27.15625 -17.398438 27.15625 -15.609375 Z M 20.171875 -16.515625 C 20.234375 -18.535156 19.828125 -20.117188 18.953125 -21.265625 C 18.085938 -22.421875 16.753906 -23 14.953125 -23 C 14.035156 -23 13.238281 -22.828125 12.5625 -22.484375 C 11.882812 -22.148438 11.320312 -21.691406 10.875 -21.109375 C 10.425781 -20.523438 10.082031 -19.835938 9.84375 -19.046875 C 9.601562 -18.253906 9.46875 -17.410156 9.4375 -16.515625 Z M 20.171875 -16.515625 "/></g></g></g><g fill="#ffffff" fill-opacity="1"><g transform="translate(69.607815, 63.131107)"><g><path d="M 25.328125 -0.890625 C 25.328125 -0.617188 25.226562 -0.40625 25.03125 -0.25 C 24.84375 -0.101562 24.539062 0 24.125 0.0625 C 23.71875 0.132812 23.117188 0.171875 22.328125 0.171875 C 21.460938 0.171875 20.832031 0.132812 20.4375 0.0625 C 20.050781 0 19.773438 -0.101562 19.609375 -0.25 C 19.453125 -0.40625 19.375 -0.617188 19.375 -0.890625 L 19.375 -2.921875 C 18.332031 -1.796875 17.140625 -0.914062 15.796875 -0.28125 C 14.453125 0.34375 12.957031 0.65625 11.3125 0.65625 C 9.957031 0.65625 8.710938 0.476562 7.578125 0.125 C 6.453125 -0.226562 5.472656 -0.75 4.640625 -1.4375 C 3.816406 -2.132812 3.175781 -3 2.71875 -4.03125 C 2.257812 -5.0625 2.03125 -6.257812 2.03125 -7.625 C 2.03125 -9.113281 2.316406 -10.40625 2.890625 -11.5 C 3.472656 -12.59375 4.34375 -13.5 5.5 -14.21875 C 6.65625 -14.9375 8.085938 -15.460938 9.796875 -15.796875 C 11.515625 -16.140625 13.507812 -16.3125 15.78125 -16.3125 L 18.265625 -16.3125 L 18.265625 -17.859375 C 18.265625 -18.660156 18.179688 -19.359375 18.015625 -19.953125 C 17.859375 -20.554688 17.59375 -21.054688 17.21875 -21.453125 C 16.84375 -21.859375 16.34375 -22.15625 15.71875 -22.34375 C 15.101562 -22.539062 14.34375 -22.640625 13.4375 -22.640625 C 12.226562 -22.640625 11.148438 -22.503906 10.203125 -22.234375 C 9.265625 -21.960938 8.429688 -21.664062 7.703125 -21.34375 C 6.984375 -21.019531 6.378906 -20.722656 5.890625 -20.453125 C 5.410156 -20.191406 5.019531 -20.0625 4.71875 -20.0625 C 4.507812 -20.0625 4.320312 -20.128906 4.15625 -20.265625 C 4 -20.398438 3.863281 -20.585938 3.75 -20.828125 C 3.644531 -21.078125 3.5625 -21.382812 3.5 -21.75 C 3.445312 -22.113281 3.421875 -22.515625 3.421875 -22.953125 C 3.421875 -23.535156 3.46875 -24 3.5625 -24.34375 C 3.664062 -24.6875 3.847656 -24.992188 4.109375 -25.265625 C 4.378906 -25.546875 4.847656 -25.851562 5.515625 -26.1875 C 6.179688 -26.519531 6.960938 -26.828125 7.859375 -27.109375 C 8.753906 -27.398438 9.726562 -27.632812 10.78125 -27.8125 C 11.84375 -28 12.9375 -28.09375 14.0625 -28.09375 C 16.0625 -28.09375 17.769531 -27.894531 19.1875 -27.5 C 20.613281 -27.113281 21.78125 -26.515625 22.6875 -25.703125 C 23.601562 -24.898438 24.269531 -23.859375 24.6875 -22.578125 C 25.113281 -21.296875 25.328125 -19.78125 25.328125 -18.03125 Z M 18.265625 -11.796875 L 15.515625 -11.796875 C 14.359375 -11.796875 13.367188 -11.707031 12.546875 -11.53125 C 11.722656 -11.363281 11.054688 -11.109375 10.546875 -10.765625 C 10.035156 -10.429688 9.660156 -10.019531 9.421875 -9.53125 C 9.179688 -9.039062 9.0625 -8.484375 9.0625 -7.859375 C 9.0625 -6.796875 9.398438 -5.957031 10.078125 -5.34375 C 10.753906 -4.738281 11.691406 -4.4375 12.890625 -4.4375 C 13.898438 -4.4375 14.828125 -4.691406 15.671875 -5.203125 C 16.523438 -5.710938 17.390625 -6.460938 18.265625 -7.453125 Z M 18.265625 -11.796875 "/></g></g></g><g fill="#ffffff" fill-opacity="1"><g transform="translate(98.499837, 63.131107)"><g><path d="M 27.953125 -0.96875 C 27.953125 -0.78125 27.894531 -0.613281 27.78125 -0.46875 C 27.664062 -0.320312 27.472656 -0.203125 27.203125 -0.109375 C 26.941406 -0.015625 26.578125 0.0507812 26.109375 0.09375 C 25.640625 0.144531 25.0625 0.171875 24.375 0.171875 C 23.675781 0.171875 23.09375 0.144531 22.625 0.09375 C 22.15625 0.0507812 21.785156 -0.015625 21.515625 -0.109375 C 21.253906 -0.203125 21.066406 -0.320312 20.953125 -0.46875 C 20.835938 -0.613281 20.78125 -0.78125 20.78125 -0.96875 L 20.78125 -15.515625 C 20.78125 -16.753906 20.6875 -17.722656 20.5 -18.421875 C 20.320312 -19.128906 20.0625 -19.734375 19.71875 -20.234375 C 19.375 -20.742188 18.929688 -21.132812 18.390625 -21.40625 C 17.847656 -21.6875 17.210938 -21.828125 16.484375 -21.828125 C 15.578125 -21.828125 14.65625 -21.492188 13.71875 -20.828125 C 12.78125 -20.160156 11.804688 -19.191406 10.796875 -17.921875 L 10.796875 -0.96875 C 10.796875 -0.78125 10.738281 -0.613281 10.625 -0.46875 C 10.507812 -0.320312 10.3125 -0.203125 10.03125 -0.109375 C 9.757812 -0.015625 9.394531 0.0507812 8.9375 0.09375 C 8.488281 0.144531 7.910156 0.171875 7.203125 0.171875 C 6.492188 0.171875 5.910156 0.144531 5.453125 0.09375 C 4.992188 0.0507812 4.625 -0.015625 4.34375 -0.109375 C 4.070312 -0.203125 3.878906 -0.320312 3.765625 -0.46875 C 3.648438 -0.613281 3.59375 -0.78125 3.59375 -0.96875 L 3.59375 -26.46875 C 3.59375 -26.65625 3.640625 -26.816406 3.734375 -26.953125 C 3.835938 -27.097656 4.007812 -27.21875 4.25 -27.3125 C 4.5 -27.414062 4.816406 -27.488281 5.203125 -27.53125 C 5.597656 -27.582031 6.09375 -27.609375 6.6875 -27.609375 C 7.300781 -27.609375 7.804688 -27.582031 8.203125 -27.53125 C 8.597656 -27.488281 8.90625 -27.414062 9.125 -27.3125 C 9.34375 -27.21875 9.5 -27.097656 9.59375 -26.953125 C 9.695312 -26.816406 9.75 -26.65625 9.75 -26.46875 L 9.75 -23.515625 C 11.15625 -25.046875 12.585938 -26.191406 14.046875 -26.953125 C 15.503906 -27.710938 17.023438 -28.09375 18.609375 -28.09375 C 20.335938 -28.09375 21.796875 -27.804688 22.984375 -27.234375 C 24.179688 -26.660156 25.144531 -25.882812 25.875 -24.90625 C 26.613281 -23.925781 27.144531 -22.773438 27.46875 -21.453125 C 27.789062 -20.140625 27.953125 -18.5625 27.953125 -16.71875 Z M 27.953125 -0.96875 "/></g></g></g><g fill="#ffffff" fill-opacity="1"><g transform="translate(129.906694, 63.131107)"><g><path d="M 27.15625 -14.46875 C 27.15625 -13.582031 26.957031 -12.929688 26.5625 -12.515625 C 26.175781 -12.097656 25.640625 -11.890625 24.953125 -11.890625 L 9.4375 -11.890625 C 9.4375 -10.804688 9.5625 -9.820312 9.8125 -8.9375 C 10.070312 -8.050781 10.484375 -7.296875 11.046875 -6.671875 C 11.609375 -6.054688 12.332031 -5.582031 13.21875 -5.25 C 14.101562 -4.925781 15.164062 -4.765625 16.40625 -4.765625 C 17.664062 -4.765625 18.769531 -4.851562 19.71875 -5.03125 C 20.675781 -5.21875 21.5 -5.421875 22.1875 -5.640625 C 22.882812 -5.859375 23.460938 -6.054688 23.921875 -6.234375 C 24.378906 -6.421875 24.75 -6.515625 25.03125 -6.515625 C 25.207031 -6.515625 25.351562 -6.476562 25.46875 -6.40625 C 25.582031 -6.34375 25.675781 -6.222656 25.75 -6.046875 C 25.820312 -5.878906 25.875 -5.640625 25.90625 -5.328125 C 25.9375 -5.015625 25.953125 -4.617188 25.953125 -4.140625 C 25.953125 -3.722656 25.941406 -3.363281 25.921875 -3.0625 C 25.898438 -2.769531 25.867188 -2.519531 25.828125 -2.3125 C 25.796875 -2.101562 25.738281 -1.925781 25.65625 -1.78125 C 25.582031 -1.644531 25.484375 -1.507812 25.359375 -1.375 C 25.234375 -1.238281 24.894531 -1.054688 24.34375 -0.828125 C 23.789062 -0.597656 23.085938 -0.375 22.234375 -0.15625 C 21.378906 0.0625 20.398438 0.25 19.296875 0.40625 C 18.191406 0.570312 17.007812 0.65625 15.75 0.65625 C 13.476562 0.65625 11.488281 0.367188 9.78125 -0.203125 C 8.082031 -0.773438 6.660156 -1.640625 5.515625 -2.796875 C 4.367188 -3.960938 3.515625 -5.429688 2.953125 -7.203125 C 2.390625 -8.972656 2.109375 -11.050781 2.109375 -13.4375 C 2.109375 -15.695312 2.40625 -17.738281 3 -19.5625 C 3.59375 -21.382812 4.453125 -22.925781 5.578125 -24.1875 C 6.703125 -25.457031 8.066406 -26.425781 9.671875 -27.09375 C 11.285156 -27.757812 13.101562 -28.09375 15.125 -28.09375 C 17.25 -28.09375 19.066406 -27.773438 20.578125 -27.140625 C 22.097656 -26.515625 23.34375 -25.644531 24.3125 -24.53125 C 25.289062 -23.414062 26.007812 -22.097656 26.46875 -20.578125 C 26.925781 -19.054688 27.15625 -17.398438 27.15625 -15.609375 Z M 20.171875 -16.515625 C 20.234375 -18.535156 19.828125 -20.117188 18.953125 -21.265625 C 18.085938 -22.421875 16.753906 -23 14.953125 -23 C 14.035156 -23 13.238281 -22.828125 12.5625 -22.484375 C 11.882812 -22.148438 11.320312 -21.691406 10.875 -21.109375 C 10.425781 -20.523438 10.082031 -19.835938 9.84375 -19.046875 C 9.601562 -18.253906 9.46875 -17.410156 9.4375 -16.515625 Z M 20.171875 -16.515625 "/></g></g></g><g fill="#ffffff" fill-opacity="1"><g transform="translate(159.37027, 63.131107)"><g><path d="M 19.984375 -24.09375 C 19.984375 -23.40625 19.960938 -22.84375 19.921875 -22.40625 C 19.878906 -21.96875 19.820312 -21.625 19.75 -21.375 C 19.675781 -21.125 19.578125 -20.953125 19.453125 -20.859375 C 19.328125 -20.765625 19.171875 -20.71875 18.984375 -20.71875 C 18.828125 -20.71875 18.648438 -20.75 18.453125 -20.8125 C 18.265625 -20.882812 18.050781 -20.957031 17.8125 -21.03125 C 17.582031 -21.113281 17.320312 -21.1875 17.03125 -21.25 C 16.75 -21.3125 16.4375 -21.34375 16.09375 -21.34375 C 15.6875 -21.34375 15.285156 -21.257812 14.890625 -21.09375 C 14.492188 -20.9375 14.078125 -20.6875 13.640625 -20.34375 C 13.210938 -20 12.765625 -19.539062 12.296875 -18.96875 C 11.835938 -18.40625 11.335938 -17.703125 10.796875 -16.859375 L 10.796875 -0.96875 C 10.796875 -0.78125 10.738281 -0.613281 10.625 -0.46875 C 10.507812 -0.320312 10.3125 -0.203125 10.03125 -0.109375 C 9.757812 -0.015625 9.394531 0.0507812 8.9375 0.09375 C 8.488281 0.144531 7.910156 0.171875 7.203125 0.171875 C 6.492188 0.171875 5.910156 0.144531 5.453125 0.09375 C 4.992188 0.0507812 4.625 -0.015625 4.34375 -0.109375 C 4.070312 -0.203125 3.878906 -0.320312 3.765625 -0.46875 C 3.648438 -0.613281 3.59375 -0.78125 3.59375 -0.96875 L 3.59375 -26.46875 C 3.59375 -26.65625 3.640625 -26.816406 3.734375 -26.953125 C 3.835938 -27.097656 4.007812 -27.21875 4.25 -27.3125 C 4.5 -27.414062 4.816406 -27.488281 5.203125 -27.53125 C 5.597656 -27.582031 6.09375 -27.609375 6.6875 -27.609375 C 7.300781 -27.609375 7.804688 -27.582031 8.203125 -27.53125 C 8.597656 -27.488281 8.90625 -27.414062 9.125 -27.3125 C 9.34375 -27.21875 9.5 -27.097656 9.59375 -26.953125 C 9.695312 -26.816406 9.75 -26.65625 9.75 -26.46875 L 9.75 -23.296875 C 10.414062 -24.242188 11.039062 -25.023438 11.625 -25.640625 C 12.21875 -26.265625 12.78125 -26.757812 13.3125 -27.125 C 13.851562 -27.488281 14.390625 -27.738281 14.921875 -27.875 C 15.453125 -28.019531 15.984375 -28.09375 16.515625 -28.09375 C 16.765625 -28.09375 17.03125 -28.078125 17.3125 -28.046875 C 17.601562 -28.023438 17.898438 -27.976562 18.203125 -27.90625 C 18.503906 -27.84375 18.769531 -27.765625 19 -27.671875 C 19.226562 -27.585938 19.394531 -27.5 19.5 -27.40625 C 19.601562 -27.3125 19.679688 -27.207031 19.734375 -27.09375 C 19.785156 -26.976562 19.828125 -26.820312 19.859375 -26.625 C 19.898438 -26.425781 19.929688 -26.125 19.953125 -25.71875 C 19.972656 -25.320312 19.984375 -24.78125 19.984375 -24.09375 Z M 19.984375 -24.09375 "/></g></g></g></g></g><g clip-path="url(#ad4f5136b0)"><g clip-path="url(#29bc1fa049)"><g transform="matrix(1, 0, 0, 1, 107, 238)"><g clip-path="url(#5c65d0d348)"><g clip-path="url(#e1259f556b)"><g clip-path="url(#1d414b1c3c)"><g clip-path="url(#dc9563d75d)"><path fill="#ff9f2e" d="M 152.546875 75.917969 C 151.53125 78.863281 148.039062 84.660156 145.429688 88.570312 C 142.277344 93.292969 137.996094 99.082031 132.691406 101.375 C 130.808594 102.191406 128.238281 100.496094 128.703125 98.332031 C 129.871094 92.886719 134.085938 87.683594 137.179688 83.039062 C 93.339844 100.707031 38.8125 97.035156 2.351562 65.554688 C 0.125 63.632812 2.347656 60.152344 4.96875 61.714844 C 43.765625 84.886719 92.492188 90.753906 133.503906 71.371094 C 132.144531 70.644531 130.78125 69.910156 129.417969 69.191406 C 123.898438 66.277344 118.011719 63.832031 113.699219 59.214844 C 110.835938 56.152344 113.804688 50.828125 117.839844 51.265625 C 123.800781 51.917969 129.003906 55.105469 134.3125 57.703125 C 139.699219 60.339844 145.164062 62.851562 150.449219 65.683594 C 154.144531 67.660156 153.5625 72.972656 152.546875 75.917969 Z M 152.546875 75.917969 " fill-opacity="1" fill-rule="nonzero"/></g></g></g></g></g></g></g><g transform="matrix(1, 0, 0, 1, 65, 51)"><g clip-path="url(#769b20ccbc)"><g fill="#1298ff" fill-opacity="1"><g transform="translate(0.472363, 100.376522)"><g><path d="M 47.375 -22.8125 C 47.375 -19.132812 46.976562 -15.820312 46.1875 -12.875 C 45.40625 -9.9375 44.257812 -7.429688 42.75 -5.359375 C 41.238281 -3.296875 39.359375 -1.707031 37.109375 -0.59375 C 34.859375 0.507812 32.28125 1.0625 29.375 1.0625 C 28.175781 1.0625 27.070312 0.945312 26.0625 0.71875 C 25.0625 0.488281 24.09375 0.132812 23.15625 -0.34375 C 22.21875 -0.820312 21.285156 -1.414062 20.359375 -2.125 C 19.429688 -2.832031 18.472656 -3.664062 17.484375 -4.625 L 17.484375 14.8125 C 17.484375 15.113281 17.390625 15.382812 17.203125 15.625 C 17.023438 15.875 16.710938 16.082031 16.265625 16.25 C 15.816406 16.425781 15.222656 16.5625 14.484375 16.65625 C 13.742188 16.75 12.800781 16.796875 11.65625 16.796875 C 10.519531 16.796875 9.578125 16.75 8.828125 16.65625 C 8.085938 16.5625 7.492188 16.425781 7.046875 16.25 C 6.609375 16.082031 6.296875 15.875 6.109375 15.625 C 5.921875 15.382812 5.828125 15.113281 5.828125 14.8125 L 5.828125 -42.84375 C 5.828125 -43.144531 5.90625 -43.410156 6.0625 -43.640625 C 6.21875 -43.878906 6.488281 -44.070312 6.875 -44.21875 C 7.257812 -44.375 7.765625 -44.488281 8.390625 -44.5625 C 9.023438 -44.644531 9.820312 -44.6875 10.78125 -44.6875 C 11.707031 -44.6875 12.484375 -44.644531 13.109375 -44.5625 C 13.742188 -44.488281 14.253906 -44.375 14.640625 -44.21875 C 15.023438 -44.070312 15.296875 -43.878906 15.453125 -43.640625 C 15.609375 -43.410156 15.6875 -43.144531 15.6875 -42.84375 L 15.6875 -37.984375 C 16.882812 -39.210938 18.0625 -40.296875 19.21875 -41.234375 C 20.375 -42.179688 21.550781 -42.96875 22.75 -43.59375 C 23.957031 -44.226562 25.203125 -44.703125 26.484375 -45.015625 C 27.765625 -45.328125 29.128906 -45.484375 30.578125 -45.484375 C 33.597656 -45.484375 36.171875 -44.890625 38.296875 -43.703125 C 40.429688 -42.515625 42.171875 -40.882812 43.515625 -38.8125 C 44.859375 -36.75 45.835938 -34.34375 46.453125 -31.59375 C 47.066406 -28.851562 47.375 -25.925781 47.375 -22.8125 Z M 35.25 -21.96875 C 35.25 -23.726562 35.117188 -25.414062 34.859375 -27.03125 C 34.597656 -28.65625 34.148438 -30.097656 33.515625 -31.359375 C 32.890625 -32.628906 32.054688 -33.640625 31.015625 -34.390625 C 29.984375 -35.148438 28.695312 -35.53125 27.15625 -35.53125 C 26.382812 -35.53125 25.617188 -35.414062 24.859375 -35.1875 C 24.109375 -34.957031 23.335938 -34.578125 22.546875 -34.046875 C 21.765625 -33.523438 20.957031 -32.847656 20.125 -32.015625 C 19.289062 -31.179688 18.410156 -30.148438 17.484375 -28.921875 L 17.484375 -15.3125 C 19.117188 -13.25 20.675781 -11.65625 22.15625 -10.53125 C 23.632812 -9.40625 25.175781 -8.84375 26.78125 -8.84375 C 28.289062 -8.84375 29.578125 -9.226562 30.640625 -10 C 31.710938 -10.769531 32.585938 -11.773438 33.265625 -13.015625 C 33.941406 -14.265625 34.441406 -15.675781 34.765625 -17.25 C 35.085938 -18.820312 35.25 -20.394531 35.25 -21.96875 Z M 35.25 -21.96875 "/></g></g></g><g fill="#1298ff" fill-opacity="1"><g transform="translate(51.314928, 100.376522)"><g><path d="M 32.34375 -39 C 32.34375 -37.882812 32.3125 -36.972656 32.25 -36.265625 C 32.1875 -35.554688 32.09375 -35 31.96875 -34.59375 C 31.84375 -34.195312 31.679688 -33.921875 31.484375 -33.765625 C 31.285156 -33.617188 31.03125 -33.546875 30.71875 -33.546875 C 30.46875 -33.546875 30.1875 -33.597656 29.875 -33.703125 C 29.570312 -33.804688 29.226562 -33.921875 28.84375 -34.046875 C 28.457031 -34.171875 28.03125 -34.285156 27.5625 -34.390625 C 27.101562 -34.503906 26.597656 -34.5625 26.046875 -34.5625 C 25.398438 -34.5625 24.75 -34.425781 24.09375 -34.15625 C 23.445312 -33.894531 22.773438 -33.488281 22.078125 -32.9375 C 21.390625 -32.382812 20.664062 -31.644531 19.90625 -30.71875 C 19.15625 -29.789062 18.347656 -28.648438 17.484375 -27.296875 L 17.484375 -1.578125 C 17.484375 -1.265625 17.390625 -0.992188 17.203125 -0.765625 C 17.023438 -0.535156 16.710938 -0.34375 16.265625 -0.1875 C 15.816406 -0.03125 15.222656 0.0820312 14.484375 0.15625 C 13.742188 0.238281 12.800781 0.28125 11.65625 0.28125 C 10.519531 0.28125 9.578125 0.238281 8.828125 0.15625 C 8.085938 0.0820312 7.492188 -0.03125 7.046875 -0.1875 C 6.609375 -0.34375 6.296875 -0.535156 6.109375 -0.765625 C 5.921875 -0.992188 5.828125 -1.265625 5.828125 -1.578125 L 5.828125 -42.84375 C 5.828125 -43.144531 5.90625 -43.410156 6.0625 -43.640625 C 6.21875 -43.878906 6.492188 -44.070312 6.890625 -44.21875 C 7.296875 -44.375 7.8125 -44.488281 8.4375 -44.5625 C 9.070312 -44.644531 9.867188 -44.6875 10.828125 -44.6875 C 11.816406 -44.6875 12.632812 -44.644531 13.28125 -44.5625 C 13.925781 -44.488281 14.425781 -44.375 14.78125 -44.21875 C 15.132812 -44.070312 15.390625 -43.878906 15.546875 -43.640625 C 15.703125 -43.410156 15.78125 -43.144531 15.78125 -42.84375 L 15.78125 -37.703125 C 16.851562 -39.242188 17.867188 -40.515625 18.828125 -41.515625 C 19.785156 -42.523438 20.695312 -43.320312 21.5625 -43.90625 C 22.425781 -44.488281 23.289062 -44.894531 24.15625 -45.125 C 25.019531 -45.363281 25.878906 -45.484375 26.734375 -45.484375 C 27.140625 -45.484375 27.570312 -45.457031 28.03125 -45.40625 C 28.5 -45.363281 28.976562 -45.285156 29.46875 -45.171875 C 29.957031 -45.066406 30.390625 -44.941406 30.765625 -44.796875 C 31.140625 -44.660156 31.410156 -44.515625 31.578125 -44.359375 C 31.742188 -44.210938 31.863281 -44.046875 31.9375 -43.859375 C 32.019531 -43.671875 32.09375 -43.414062 32.15625 -43.09375 C 32.21875 -42.769531 32.265625 -42.285156 32.296875 -41.640625 C 32.328125 -40.992188 32.34375 -40.113281 32.34375 -39 Z M 32.34375 -39 "/></g></g></g><g fill="#1298ff" fill-opacity="1"><g transform="translate(84.994071, 100.376522)"><g><path d="M 17.484375 -1.578125 C 17.484375 -1.265625 17.390625 -0.992188 17.203125 -0.765625 C 17.023438 -0.535156 16.710938 -0.34375 16.265625 -0.1875 C 15.816406 -0.03125 15.222656 0.0820312 14.484375 0.15625 C 13.742188 0.238281 12.800781 0.28125 11.65625 0.28125 C 10.519531 0.28125 9.578125 0.238281 8.828125 0.15625 C 8.085938 0.0820312 7.492188 -0.03125 7.046875 -0.1875 C 6.609375 -0.34375 6.296875 -0.535156 6.109375 -0.765625 C 5.921875 -0.992188 5.828125 -1.265625 5.828125 -1.578125 L 5.828125 -42.75 C 5.828125 -43.0625 5.921875 -43.332031 6.109375 -43.5625 C 6.296875 -43.789062 6.609375 -43.988281 7.046875 -44.15625 C 7.492188 -44.332031 8.085938 -44.460938 8.828125 -44.546875 C 9.578125 -44.640625 10.519531 -44.6875 11.65625 -44.6875 C 12.800781 -44.6875 13.742188 -44.640625 14.484375 -44.546875 C 15.222656 -44.460938 15.816406 -44.332031 16.265625 -44.15625 C 16.710938 -43.988281 17.023438 -43.789062 17.203125 -43.5625 C 17.390625 -43.332031 17.484375 -43.0625 17.484375 -42.75 Z M 18.359375 -56.8125 C 18.359375 -54.46875 17.878906 -52.847656 16.921875 -51.953125 C 15.972656 -51.054688 14.203125 -50.609375 11.609375 -50.609375 C 8.992188 -50.609375 7.226562 -51.039062 6.3125 -51.90625 C 5.40625 -52.769531 4.953125 -54.328125 4.953125 -56.578125 C 4.953125 -58.921875 5.421875 -60.546875 6.359375 -61.453125 C 7.296875 -62.367188 9.078125 -62.828125 11.703125 -62.828125 C 14.296875 -62.828125 16.050781 -62.382812 16.96875 -61.5 C 17.894531 -60.625 18.359375 -59.0625 18.359375 -56.8125 Z M 18.359375 -56.8125 "/></g></g></g><g fill="#1298ff" fill-opacity="1"><g transform="translate(108.264151, 100.376522)"><g><path d="M 71.484375 -1.578125 C 71.484375 -1.265625 71.390625 -0.992188 71.203125 -0.765625 C 71.015625 -0.535156 70.703125 -0.34375 70.265625 -0.1875 C 69.835938 -0.03125 69.253906 0.0820312 68.515625 0.15625 C 67.773438 0.238281 66.835938 0.28125 65.703125 0.28125 C 64.523438 0.28125 63.566406 0.238281 62.828125 0.15625 C 62.085938 0.0820312 61.492188 -0.03125 61.046875 -0.1875 C 60.597656 -0.34375 60.285156 -0.535156 60.109375 -0.765625 C 59.941406 -0.992188 59.859375 -1.265625 59.859375 -1.578125 L 59.859375 -26.046875 C 59.859375 -27.429688 59.726562 -28.691406 59.46875 -29.828125 C 59.207031 -30.972656 58.804688 -31.953125 58.265625 -32.765625 C 57.722656 -33.585938 57.046875 -34.222656 56.234375 -34.671875 C 55.421875 -35.117188 54.441406 -35.34375 53.296875 -35.34375 C 51.910156 -35.34375 50.503906 -34.800781 49.078125 -33.71875 C 47.660156 -32.644531 46.117188 -31.078125 44.453125 -29.015625 L 44.453125 -1.578125 C 44.453125 -1.265625 44.359375 -0.992188 44.171875 -0.765625 C 43.992188 -0.535156 43.679688 -0.34375 43.234375 -0.1875 C 42.785156 -0.03125 42.191406 0.0820312 41.453125 0.15625 C 40.710938 0.238281 39.785156 0.28125 38.671875 0.28125 C 37.535156 0.28125 36.597656 0.238281 35.859375 0.15625 C 35.117188 0.0820312 34.523438 -0.03125 34.078125 -0.1875 C 33.628906 -0.34375 33.3125 -0.535156 33.125 -0.765625 C 32.9375 -0.992188 32.84375 -1.265625 32.84375 -1.578125 L 32.84375 -26.046875 C 32.84375 -27.429688 32.710938 -28.691406 32.453125 -29.828125 C 32.191406 -30.972656 31.796875 -31.953125 31.265625 -32.765625 C 30.742188 -33.585938 30.066406 -34.222656 29.234375 -34.671875 C 28.398438 -35.117188 27.429688 -35.34375 26.328125 -35.34375 C 24.910156 -35.34375 23.488281 -34.800781 22.0625 -33.71875 C 20.644531 -32.644531 19.117188 -31.078125 17.484375 -29.015625 L 17.484375 -1.578125 C 17.484375 -1.265625 17.390625 -0.992188 17.203125 -0.765625 C 17.023438 -0.535156 16.710938 -0.34375 16.265625 -0.1875 C 15.816406 -0.03125 15.222656 0.0820312 14.484375 0.15625 C 13.742188 0.238281 12.800781 0.28125 11.65625 0.28125 C 10.519531 0.28125 9.578125 0.238281 8.828125 0.15625 C 8.085938 0.0820312 7.492188 -0.03125 7.046875 -0.1875 C 6.609375 -0.34375 6.296875 -0.535156 6.109375 -0.765625 C 5.921875 -0.992188 5.828125 -1.265625 5.828125 -1.578125 L 5.828125 -42.84375 C 5.828125 -43.144531 5.90625 -43.410156 6.0625 -43.640625 C 6.21875 -43.878906 6.492188 -44.070312 6.890625 -44.21875 C 7.296875 -44.375 7.8125 -44.488281 8.4375 -44.5625 C 9.070312 -44.644531 9.867188 -44.6875 10.828125 -44.6875 C 11.816406 -44.6875 12.632812 -44.644531 13.28125 -44.5625 C 13.925781 -44.488281 14.425781 -44.375 14.78125 -44.21875 C 15.132812 -44.070312 15.390625 -43.878906 15.546875 -43.640625 C 15.703125 -43.410156 15.78125 -43.144531 15.78125 -42.84375 L 15.78125 -38.078125 C 18.0625 -40.546875 20.332031 -42.394531 22.59375 -43.625 C 24.863281 -44.863281 27.234375 -45.484375 29.703125 -45.484375 C 31.398438 -45.484375 32.925781 -45.304688 34.28125 -44.953125 C 35.632812 -44.597656 36.84375 -44.085938 37.90625 -43.421875 C 38.976562 -42.753906 39.898438 -41.957031 40.671875 -41.03125 C 41.441406 -40.113281 42.085938 -39.082031 42.609375 -37.9375 C 43.835938 -39.257812 45.046875 -40.398438 46.234375 -41.359375 C 47.421875 -42.316406 48.59375 -43.09375 49.75 -43.6875 C 50.914062 -44.289062 52.078125 -44.738281 53.234375 -45.03125 C 54.390625 -45.332031 55.566406 -45.484375 56.765625 -45.484375 C 59.515625 -45.484375 61.828125 -45.019531 63.703125 -44.09375 C 65.585938 -43.164062 67.109375 -41.90625 68.265625 -40.3125 C 69.421875 -38.726562 70.242188 -36.867188 70.734375 -34.734375 C 71.234375 -32.609375 71.484375 -30.359375 71.484375 -27.984375 Z M 71.484375 -1.578125 "/></g></g></g><g fill="#1298ff" fill-opacity="1"><g transform="translate(185.337572, 100.376522)"><g><path d="M 43.953125 -23.40625 C 43.953125 -21.988281 43.632812 -20.941406 43 -20.265625 C 42.363281 -19.585938 41.492188 -19.25 40.390625 -19.25 L 15.265625 -19.25 C 15.265625 -17.488281 15.472656 -15.890625 15.890625 -14.453125 C 16.304688 -13.023438 16.96875 -11.804688 17.875 -10.796875 C 18.789062 -9.796875 19.960938 -9.03125 21.390625 -8.5 C 22.828125 -7.976562 24.550781 -7.71875 26.5625 -7.71875 C 28.59375 -7.71875 30.378906 -7.863281 31.921875 -8.15625 C 33.460938 -8.457031 34.796875 -8.785156 35.921875 -9.140625 C 37.046875 -9.492188 37.976562 -9.816406 38.71875 -10.109375 C 39.457031 -10.398438 40.0625 -10.546875 40.53125 -10.546875 C 40.800781 -10.546875 41.03125 -10.488281 41.21875 -10.375 C 41.40625 -10.269531 41.5625 -10.078125 41.6875 -9.796875 C 41.8125 -9.523438 41.894531 -9.132812 41.9375 -8.625 C 41.988281 -8.113281 42.015625 -7.472656 42.015625 -6.703125 C 42.015625 -6.023438 42 -5.445312 41.96875 -4.96875 C 41.9375 -4.488281 41.890625 -4.078125 41.828125 -3.734375 C 41.765625 -3.398438 41.671875 -3.117188 41.546875 -2.890625 C 41.421875 -2.660156 41.257812 -2.4375 41.0625 -2.21875 C 40.863281 -2 40.316406 -1.703125 39.421875 -1.328125 C 38.523438 -0.960938 37.378906 -0.601562 35.984375 -0.25 C 34.597656 0.101562 33.007812 0.410156 31.21875 0.671875 C 29.4375 0.929688 27.523438 1.0625 25.484375 1.0625 C 21.816406 1.0625 18.601562 0.597656 15.84375 -0.328125 C 13.082031 -1.253906 10.773438 -2.65625 8.921875 -4.53125 C 7.078125 -6.414062 5.695312 -8.789062 4.78125 -11.65625 C 3.875 -14.53125 3.421875 -17.894531 3.421875 -21.75 C 3.421875 -25.414062 3.898438 -28.722656 4.859375 -31.671875 C 5.816406 -34.617188 7.203125 -37.113281 9.015625 -39.15625 C 10.835938 -41.207031 13.050781 -42.773438 15.65625 -43.859375 C 18.257812 -44.941406 21.195312 -45.484375 24.46875 -45.484375 C 27.925781 -45.484375 30.878906 -44.972656 33.328125 -43.953125 C 35.785156 -42.929688 37.800781 -41.519531 39.375 -39.71875 C 40.945312 -37.914062 42.101562 -35.78125 42.84375 -33.3125 C 43.582031 -30.84375 43.953125 -28.160156 43.953125 -25.265625 Z M 32.65625 -26.734375 C 32.75 -30.003906 32.09375 -32.570312 30.6875 -34.4375 C 29.289062 -36.3125 27.128906 -37.25 24.203125 -37.25 C 22.710938 -37.25 21.421875 -36.96875 20.328125 -36.40625 C 19.234375 -35.851562 18.320312 -35.101562 17.59375 -34.15625 C 16.875 -33.21875 16.320312 -32.109375 15.9375 -30.828125 C 15.550781 -29.554688 15.328125 -28.191406 15.265625 -26.734375 Z M 32.65625 -26.734375 "/></g></g></g></g></g></svg>